<svg id="full_images" data-name="full images" xmlns="http://www.w3.org/2000/svg" viewBox="0 0 737.96 652.59">
  <title>endrings</title>
  <g id="endring">
    <g>
      <path d="M980.8,482.81h-9.24a8.58,8.58,0,0,0,9.24,0" transform="translate(-626.02 -481.96)" fill="#112a5a"/>
      <path d="M959.6,489.11a8.59,8.59,0,1,0,8.59,8.58,8.59,8.59,0,0,0-8.59-8.58" transform="translate(-626.02 -481.96)" fill="#112a5a"/>
      <path d="M944.37,512.18a8.59,8.59,0,1,0,8.59,8.59,8.59,8.59,0,0,0-8.59-8.59" transform="translate(-626.02 -481.96)" fill="#112a5a"/>
      <path d="M930.54,536.12a8.59,8.59,0,1,0,8.59,8.59,8.6,8.6,0,0,0-8.59-8.59" transform="translate(-626.02 -481.96)" fill="#112a5a"/>
      <path d="M918.17,560.85a8.59,8.59,0,1,0,8.59,8.58,8.58,8.58,0,0,0-8.59-8.58" transform="translate(-626.02 -481.96)" fill="#112a5a"/>
      <path d="M907.31,586.27a8.59,8.59,0,1,0,8.59,8.59,8.6,8.6,0,0,0-8.59-8.59" transform="translate(-626.02 -481.96)" fill="#112a5a"/>
      <path d="M898,612.3a8.59,8.59,0,1,0,8.59,8.59A8.6,8.6,0,0,0,898,612.3" transform="translate(-626.02 -481.96)" fill="#112a5a"/>
      <path d="M890.23,638.84a8.59,8.59,0,1,0,8.59,8.58,8.59,8.59,0,0,0-8.59-8.58" transform="translate(-626.02 -481.96)" fill="#112a5a"/>
      <path d="M884.08,665.8a8.58,8.58,0,1,0,8.58,8.57,8.58,8.58,0,0,0-8.58-8.57" transform="translate(-626.02 -481.96)" fill="#112a5a"/>
      <path d="M879.55,693.07a8.58,8.58,0,1,0,8.58,8.58,8.58,8.58,0,0,0-8.58-8.58" transform="translate(-626.02 -481.96)" fill="#112a5a"/>
      <path d="M876.66,720.56a8.59,8.59,0,1,0,8.59,8.59,8.59,8.59,0,0,0-8.59-8.59" transform="translate(-626.02 -481.96)" fill="#112a5a"/>
      <path d="M875.42,748.18a8.59,8.59,0,1,0,8.59,8.59,8.6,8.6,0,0,0-8.59-8.59" transform="translate(-626.02 -481.96)" fill="#112a5a"/>
      <path d="M875.84,775.82a8.59,8.59,0,1,0,8.58,8.59,8.59,8.59,0,0,0-8.58-8.59" transform="translate(-626.02 -481.96)" fill="#112a5a"/>
      <path d="M877.9,803.4a8.58,8.58,0,1,0,8.58,8.57,8.58,8.58,0,0,0-8.58-8.57" transform="translate(-626.02 -481.96)" fill="#112a5a"/>
      <path d="M881.61,830.79a8.59,8.59,0,1,0,8.59,8.59,8.58,8.58,0,0,0-8.59-8.59" transform="translate(-626.02 -481.96)" fill="#112a5a"/>
      <path d="M887,857.92a8.59,8.59,0,1,0,8.59,8.58,8.59,8.59,0,0,0-8.59-8.58" transform="translate(-626.02 -481.96)" fill="#112a5a"/>
      <path d="M893.91,884.74a8.53,8.53,0,1,0,8.52,8.52,8.53,8.53,0,0,0-8.52-8.52" transform="translate(-626.02 -481.96)" fill="#112a5a"/>
      <path d="M902.45,911a8.53,8.53,0,1,0,8.53,8.53,8.53,8.53,0,0,0-8.53-8.53" transform="translate(-626.02 -481.96)" fill="#112a5a"/>
      <path d="M912.55,936.83A8.46,8.46,0,1,0,921,945.3a8.47,8.47,0,0,0-8.46-8.47" transform="translate(-626.02 -481.96)" fill="#112a5a"/>
      <path d="M924.18,961.93a8.46,8.46,0,1,0,8.45,8.45,8.45,8.45,0,0,0-8.45-8.45" transform="translate(-626.02 -481.96)" fill="#112a5a"/>
      <path d="M937.28,986.33a8.39,8.39,0,1,0,8.39,8.39,8.4,8.4,0,0,0-8.39-8.39" transform="translate(-626.02 -481.96)" fill="#112a5a"/>
      <path d="M951.81,1009.85a8.4,8.4,0,1,0,8.4,8.39,8.39,8.39,0,0,0-8.4-8.39" transform="translate(-626.02 -481.96)" fill="#112a5a"/>
      <path d="M967.73,1032.46a8.39,8.39,0,1,0,8.39,8.39,8.4,8.4,0,0,0-8.39-8.39" transform="translate(-626.02 -481.96)" fill="#112a5a"/>
      <path d="M985,1054.2a8.27,8.27,0,1,0,8.27,8.27,8.26,8.26,0,0,0-8.27-8.27" transform="translate(-626.02 -481.96)" fill="#112a5a"/>
      <path d="M1003.46,1074.81a8.2,8.2,0,1,0,8.2,8.2,8.2,8.2,0,0,0-8.2-8.2" transform="translate(-626.02 -481.96)" fill="#112a5a"/>
      <path d="M1023.15,1094.27a8.14,8.14,0,1,0,8.14,8.14,8.14,8.14,0,0,0-8.14-8.14" transform="translate(-626.02 -481.96)" fill="#112a5a"/>
      <path d="M1044,1112.59a8,8,0,1,0,8,8,8,8,0,0,0-8-8" transform="translate(-626.02 -481.96)" fill="#112a5a"/>
      <path d="M1065.85,1126.63a10.89,10.89,0,0,0-9.49,5.54h19a10.89,10.89,0,0,0-9.49-5.54" transform="translate(-626.02 -481.96)" fill="#112a5a"/>
      <path d="M942.27,482.81h-13.6a8.08,8.08,0,0,0,13.6,0" transform="translate(-626.02 -481.96)" fill="#112a5a"/>
      <path d="M920.12,490.3a11.15,11.15,0,1,0,11.14,11.14,11.15,11.15,0,0,0-11.14-11.14" transform="translate(-626.02 -481.96)" fill="#112a5a"/>
      <path d="M906.07,517.18a8.08,8.08,0,1,0,8.07,8.08,8.08,8.08,0,0,0-8.07-8.08" transform="translate(-626.02 -481.96)" fill="#112a5a"/>
      <path d="M893.37,541.74a8.08,8.08,0,1,0,8.08,8.08,8.08,8.08,0,0,0-8.08-8.08" transform="translate(-626.02 -481.96)" fill="#112a5a"/>
      <path d="M882.08,563.91a11.15,11.15,0,1,0,11.15,11.15,11.15,11.15,0,0,0-11.15-11.15" transform="translate(-626.02 -481.96)" fill="#112a5a"/>
      <path d="M872.22,592.81a8.08,8.08,0,1,0,8.08,8.08,8.07,8.07,0,0,0-8.08-8.08" transform="translate(-626.02 -481.96)" fill="#112a5a"/>
      <path d="M863.82,616.08A11.15,11.15,0,1,0,875,627.23a11.15,11.15,0,0,0-11.15-11.15" transform="translate(-626.02 -481.96)" fill="#112a5a"/>
      <path d="M856.92,645.42A8.59,8.59,0,1,0,865.5,654a8.59,8.59,0,0,0-8.58-8.58" transform="translate(-626.02 -481.96)" fill="#112a5a"/>
      <path d="M851.53,672.53a8.59,8.59,0,1,0,8.58,8.59,8.6,8.6,0,0,0-8.58-8.59" transform="translate(-626.02 -481.96)" fill="#112a5a"/>
      <path d="M847.66,700.42a8.07,8.07,0,1,0,8.08,8.07,8.07,8.07,0,0,0-8.08-8.07" transform="translate(-626.02 -481.96)" fill="#112a5a"/>
      <path d="M845.33,728a8.08,8.08,0,1,0,8.08,8.07,8.07,8.07,0,0,0-8.08-8.07" transform="translate(-626.02 -481.96)" fill="#112a5a"/>
      <path d="M844.56,755.61a8.07,8.07,0,1,0,8.08,8.08,8.07,8.07,0,0,0-8.08-8.08" transform="translate(-626.02 -481.96)" fill="#112a5a"/>
      <path d="M845.33,780.17a11.15,11.15,0,1,0,11.16,11.14,11.14,11.14,0,0,0-11.16-11.14" transform="translate(-626.02 -481.96)" fill="#112a5a"/>
      <path d="M847.66,807.65a11.22,11.22,0,1,0,11.21,11.22,11.22,11.22,0,0,0-11.21-11.22" transform="translate(-626.02 -481.96)" fill="#112a5a"/>
      <path d="M851.53,837.66a8.58,8.58,0,1,0,8.58,8.58,8.59,8.59,0,0,0-8.58-8.58" transform="translate(-626.02 -481.96)" fill="#112a5a"/>
      <path d="M856.92,864.77a8.59,8.59,0,1,0,8.58,8.59,8.6,8.6,0,0,0-8.58-8.59" transform="translate(-626.02 -481.96)" fill="#112a5a"/>
      <path d="M863.82,888.92A11.22,11.22,0,1,0,875,900.13a11.22,11.22,0,0,0-11.22-11.21" transform="translate(-626.02 -481.96)" fill="#112a5a"/>
      <path d="M872.22,915.26a11.21,11.21,0,1,0,11.21,11.21,11.21,11.21,0,0,0-11.21-11.21" transform="translate(-626.02 -481.96)" fill="#112a5a"/>
      <path d="M882.08,941.16a11.15,11.15,0,1,0,11.15,11.15,11.14,11.14,0,0,0-11.15-11.15" transform="translate(-626.02 -481.96)" fill="#112a5a"/>
      <path d="M893.37,966.38a11.16,11.16,0,1,0,11.15,11.16,11.15,11.15,0,0,0-11.15-11.16" transform="translate(-626.02 -481.96)" fill="#112a5a"/>
      <path d="M906.07,991a11.16,11.16,0,1,0,11.14,11.15A11.15,11.15,0,0,0,906.07,991" transform="translate(-626.02 -481.96)" fill="#112a5a"/>
      <path d="M920.12,1014.77a11.15,11.15,0,1,0,11.14,11.15,11.15,11.15,0,0,0-11.14-11.15" transform="translate(-626.02 -481.96)" fill="#112a5a"/>
      <path d="M935.47,1037.69a11.22,11.22,0,1,0,11.21,11.22,11.21,11.21,0,0,0-11.21-11.22" transform="translate(-626.02 -481.96)" fill="#112a5a"/>
      <path d="M952.1,1062.66a8.33,8.33,0,1,0,8.33,8.33,8.32,8.32,0,0,0-8.33-8.33" transform="translate(-626.02 -481.96)" fill="#112a5a"/>
      <path d="M969.93,1081a11.15,11.15,0,1,0,11.15,11.15A11.15,11.15,0,0,0,969.93,1081" transform="translate(-626.02 -481.96)" fill="#112a5a"/>
      <path d="M988.93,1101.06a11.15,11.15,0,1,0,11.15,11.15,11.15,11.15,0,0,0-11.15-11.15" transform="translate(-626.02 -481.96)" fill="#112a5a"/>
      <path d="M1009,1123.06a8.15,8.15,0,0,0-8.14,8.14,7.77,7.77,0,0,0,.06,1h16.16a7.77,7.77,0,0,0,.06-1,8.15,8.15,0,0,0-8.14-8.14" transform="translate(-626.02 -481.96)" fill="#112a5a"/>
      <path d="M901.47,482.81H890.28a5.64,5.64,0,0,0,11.19,0" transform="translate(-626.02 -481.96)" fill="#112a5a"/>
      <path d="M881.63,499.23a6.6,6.6,0,1,0,6.61,6.6,6.61,6.61,0,0,0-6.61-6.6" transform="translate(-626.02 -481.96)" fill="#112a5a"/>
      <path d="M868.66,524.61a5.64,5.64,0,1,0,5.64,5.63,5.64,5.64,0,0,0-5.64-5.63" transform="translate(-626.02 -481.96)" fill="#112a5a"/>
      <path d="M857,548.71a6.6,6.6,0,1,0,6.6,6.6,6.61,6.61,0,0,0-6.6-6.6" transform="translate(-626.02 -481.96)" fill="#112a5a"/>
      <path d="M846.66,575.64A5.32,5.32,0,1,0,852,581a5.32,5.32,0,0,0-5.33-5.32" transform="translate(-626.02 -481.96)" fill="#112a5a"/>
      <path d="M837.71,602a5.13,5.13,0,1,0,5.13,5.12,5.13,5.13,0,0,0-5.13-5.12" transform="translate(-626.02 -481.96)" fill="#112a5a"/>
      <path d="M830.13,627.11a6.6,6.6,0,1,0,6.61,6.6,6.6,6.6,0,0,0-6.61-6.6" transform="translate(-626.02 -481.96)" fill="#112a5a"/>
      <path d="M824,654.07a6.6,6.6,0,1,0,6.59,6.59,6.6,6.6,0,0,0-6.59-6.59" transform="translate(-626.02 -481.96)" fill="#112a5a"/>
      <path d="M819.27,681.31a6.6,6.6,0,1,0,6.59,6.59,6.6,6.6,0,0,0-6.59-6.59" transform="translate(-626.02 -481.96)" fill="#112a5a"/>
      <path d="M816,708.76a6.6,6.6,0,1,0,6.6,6.6,6.61,6.61,0,0,0-6.6-6.6" transform="translate(-626.02 -481.96)" fill="#112a5a"/>
      <path d="M814.16,736.35a6.6,6.6,0,1,0,6.61,6.6,6.6,6.6,0,0,0-6.61-6.6" transform="translate(-626.02 -481.96)" fill="#112a5a"/>
      <path d="M813.8,762a8.59,8.59,0,1,0,8.58,8.59A8.6,8.6,0,0,0,813.8,762" transform="translate(-626.02 -481.96)" fill="#112a5a"/>
      <path d="M814.9,789.63a8.59,8.59,0,1,0,8.58,8.59,8.58,8.58,0,0,0-8.58-8.59" transform="translate(-626.02 -481.96)" fill="#112a5a"/>
      <path d="M817.44,817.17a8.58,8.58,0,1,0,8.59,8.57,8.58,8.58,0,0,0-8.59-8.57" transform="translate(-626.02 -481.96)" fill="#112a5a"/>
      <path d="M821.44,844.59A8.52,8.52,0,1,0,830,853.1a8.52,8.52,0,0,0-8.53-8.51" transform="translate(-626.02 -481.96)" fill="#112a5a"/>
      <path d="M826.89,871.69a8.52,8.52,0,1,0,8.52,8.53,8.53,8.53,0,0,0-8.52-8.53" transform="translate(-626.02 -481.96)" fill="#112a5a"/>
      <path d="M833.75,900.46a6.54,6.54,0,1,0,6.53,6.54,6.54,6.54,0,0,0-6.53-6.54" transform="translate(-626.02 -481.96)" fill="#112a5a"/>
      <path d="M842,926.85a6.54,6.54,0,1,0,6.54,6.53,6.54,6.54,0,0,0-6.54-6.53" transform="translate(-626.02 -481.96)" fill="#112a5a"/>
      <path d="M851.66,950.83a8.46,8.46,0,1,0,8.45,8.46,8.47,8.47,0,0,0-8.45-8.46" transform="translate(-626.02 -481.96)" fill="#112a5a"/>
      <path d="M862.66,978.19a6.47,6.47,0,1,0,6.47,6.47,6.47,6.47,0,0,0-6.47-6.47" transform="translate(-626.02 -481.96)" fill="#112a5a"/>
      <path d="M875,1002.94a6.47,6.47,0,1,0,6.48,6.46,6.47,6.47,0,0,0-6.48-6.46" transform="translate(-626.02 -481.96)" fill="#112a5a"/>
      <path d="M888.6,1025.08a8.4,8.4,0,1,0,8.39,8.39,8.4,8.4,0,0,0-8.39-8.39" transform="translate(-626.02 -481.96)" fill="#112a5a"/>
      <path d="M903.47,1050.38a6.41,6.41,0,1,0,6.4,6.4,6.4,6.4,0,0,0-6.4-6.4" transform="translate(-626.02 -481.96)" fill="#112a5a"/>
      <path d="M919.53,1073a6.28,6.28,0,1,0,6.28,6.28,6.28,6.28,0,0,0-6.28-6.28" transform="translate(-626.02 -481.96)" fill="#112a5a"/>
      <path d="M936.78,1094.62a6.28,6.28,0,1,0,6.28,6.28,6.28,6.28,0,0,0-6.28-6.28" transform="translate(-626.02 -481.96)" fill="#112a5a"/>
      <path d="M955.13,1115.43a6.15,6.15,0,1,0,6.15,6.14,6.14,6.14,0,0,0-6.15-6.14" transform="translate(-626.02 -481.96)" fill="#112a5a"/>
      <path d="M861.65,482.81h-8.82a5.7,5.7,0,1,0,8.82,0" transform="translate(-626.02 -481.96)" fill="#112a5a"/>
      <path d="M844,505a5.71,5.71,0,1,0,5.7,5.71A5.71,5.71,0,0,0,844,505" transform="translate(-626.02 -481.96)" fill="#112a5a"/>
      <path d="M832,529.92a5.7,5.7,0,1,0,5.7,5.7,5.7,5.7,0,0,0-5.7-5.7" transform="translate(-626.02 -481.96)" fill="#112a5a"/>
      <path d="M821.28,555.78a5.32,5.32,0,1,0,5.31,5.32,5.32,5.32,0,0,0-5.31-5.32" transform="translate(-626.02 -481.96)" fill="#112a5a"/>
      <path d="M811.82,581.37a5.71,5.71,0,1,0,5.71,5.71,5.71,5.71,0,0,0-5.71-5.71" transform="translate(-626.02 -481.96)" fill="#112a5a"/>
      <path d="M803.68,607a6.47,6.47,0,1,0,6.46,6.47,6.47,6.47,0,0,0-6.46-6.47" transform="translate(-626.02 -481.96)" fill="#112a5a"/>
      <path d="M796.85,633.82a6.47,6.47,0,1,0,6.47,6.47,6.47,6.47,0,0,0-6.47-6.47" transform="translate(-626.02 -481.96)" fill="#112a5a"/>
      <path d="M791.37,659.32a8.07,8.07,0,1,0,8.07,8.08,8.08,8.08,0,0,0-8.07-8.08" transform="translate(-626.02 -481.96)" fill="#112a5a"/>
      <path d="M787.25,683.59a11.15,11.15,0,1,0,11.15,11.14,11.14,11.14,0,0,0-11.15-11.14" transform="translate(-626.02 -481.96)" fill="#112a5a"/>
      <path d="M784.5,711.09a11.15,11.15,0,1,0,11.15,11.16,11.16,11.16,0,0,0-11.15-11.16" transform="translate(-626.02 -481.96)" fill="#112a5a"/>
      <path d="M783.12,738.71a11.15,11.15,0,1,0,11.15,11.14,11.15,11.15,0,0,0-11.15-11.14" transform="translate(-626.02 -481.96)" fill="#112a5a"/>
      <path d="M783.12,766.36a11.15,11.15,0,1,0,11.15,11.14,11.15,11.15,0,0,0-11.15-11.14" transform="translate(-626.02 -481.96)" fill="#112a5a"/>
      <path d="M784.5,794a11.15,11.15,0,1,0,11.15,11.15A11.15,11.15,0,0,0,784.5,794" transform="translate(-626.02 -481.96)" fill="#112a5a"/>
      <path d="M787.25,821.48a11.15,11.15,0,1,0,11.15,11.15,11.15,11.15,0,0,0-11.15-11.15" transform="translate(-626.02 -481.96)" fill="#112a5a"/>
      <path d="M791.37,848.82A11.15,11.15,0,1,0,802.53,860a11.15,11.15,0,0,0-11.16-11.15" transform="translate(-626.02 -481.96)" fill="#112a5a"/>
      <path d="M796.85,875.93A11.15,11.15,0,1,0,808,887.07a11.15,11.15,0,0,0-11.15-11.14" transform="translate(-626.02 -481.96)" fill="#112a5a"/>
      <path d="M803.68,905.79a8.08,8.08,0,1,0,8.07,8.07,8.07,8.07,0,0,0-8.07-8.07" transform="translate(-626.02 -481.96)" fill="#112a5a"/>
      <path d="M811.82,932.21a8.08,8.08,0,1,0,8.08,8.07,8.07,8.07,0,0,0-8.08-8.07" transform="translate(-626.02 -481.96)" fill="#112a5a"/>
      <path d="M821.28,958.19a8.07,8.07,0,1,0,8.07,8.07,8.09,8.09,0,0,0-8.07-8.07" transform="translate(-626.02 -481.96)" fill="#112a5a"/>
      <path d="M832,984a7.76,7.76,0,1,0,7.76,7.75A7.75,7.75,0,0,0,832,984" transform="translate(-626.02 -481.96)" fill="#112a5a"/>
      <path d="M844,1009a7.69,7.69,0,1,0,7.69,7.69A7.69,7.69,0,0,0,844,1009" transform="translate(-626.02 -481.96)" fill="#112a5a"/>
      <path d="M857.24,1032.93a8,8,0,1,0,8,8,8,8,0,0,0-8-8" transform="translate(-626.02 -481.96)" fill="#112a5a"/>
      <path d="M871.66,1056.45a8.08,8.08,0,1,0,8.07,8.08,8.08,8.08,0,0,0-8.07-8.08" transform="translate(-626.02 -481.96)" fill="#112a5a"/>
      <path d="M887.23,1079.36a8,8,0,1,0,8,8,8,8,0,0,0-8-8" transform="translate(-626.02 -481.96)" fill="#112a5a"/>
      <path d="M903.93,1101.4a8,8,0,1,0,8,8,8,8,0,0,0-8-8" transform="translate(-626.02 -481.96)" fill="#112a5a"/>
      <path d="M921.69,1122.58a8,8,0,0,0-8,8,8.22,8.22,0,0,0,.16,1.58h15.7a8.22,8.22,0,0,0,.15-1.58,8,8,0,0,0-8-8" transform="translate(-626.02 -481.96)" fill="#112a5a"/>
      <path d="M819.44,485.5a5.7,5.7,0,1,0,5.7,5.69,5.69,5.69,0,0,0-5.7-5.69" transform="translate(-626.02 -481.96)" fill="#112a5a"/>
      <path d="M807.14,504.82A11.15,11.15,0,1,0,818.29,516a11.14,11.14,0,0,0-11.15-11.14" transform="translate(-626.02 -481.96)" fill="#112a5a"/>
      <path d="M796,533.22a8.07,8.07,0,1,0,8.07,8.06,8.06,8.06,0,0,0-8.07-8.06" transform="translate(-626.02 -481.96)" fill="#112a5a"/>
      <path d="M786.14,556.6a10.51,10.51,0,1,0,10.51,10.5,10.51,10.51,0,0,0-10.51-10.5" transform="translate(-626.02 -481.96)" fill="#112a5a"/>
      <path d="M777.47,582.85A10.51,10.51,0,1,0,788,593.36a10.51,10.51,0,0,0-10.51-10.51" transform="translate(-626.02 -481.96)" fill="#112a5a"/>
      <path d="M770.05,608.85A11.15,11.15,0,1,0,781.21,620a11.14,11.14,0,0,0-11.16-11.14" transform="translate(-626.02 -481.96)" fill="#112a5a"/>
      <path d="M763.9,635.8A11.15,11.15,0,1,0,775.05,647,11.15,11.15,0,0,0,763.9,635.8" transform="translate(-626.02 -481.96)" fill="#112a5a"/>
      <path d="M759,663a11.15,11.15,0,1,0,11.15,11.14A11.14,11.14,0,0,0,759,663" transform="translate(-626.02 -481.96)" fill="#112a5a"/>
      <path d="M755.45,690.43a11.15,11.15,0,1,0,11.14,11.15,11.15,11.15,0,0,0-11.14-11.15" transform="translate(-626.02 -481.96)" fill="#112a5a"/>
      <path d="M753.16,719.52a9.62,9.62,0,1,0,9.61,9.62,9.62,9.62,0,0,0-9.61-9.62" transform="translate(-626.02 -481.96)" fill="#112a5a"/>
      <path d="M752.19,747.16a9.61,9.61,0,1,0,9.61,9.61,9.61,9.61,0,0,0-9.61-9.61" transform="translate(-626.02 -481.96)" fill="#112a5a"/>
      <path d="M752.51,774.8a9.62,9.62,0,1,0,9.61,9.61,9.61,9.61,0,0,0-9.61-9.61" transform="translate(-626.02 -481.96)" fill="#112a5a"/>
      <path d="M754.14,800.86A11.15,11.15,0,1,0,765.29,812a11.15,11.15,0,0,0-11.15-11.16" transform="translate(-626.02 -481.96)" fill="#112a5a"/>
      <path d="M757.08,828.35a11.16,11.16,0,1,0,11.14,11.16,11.16,11.16,0,0,0-11.14-11.16" transform="translate(-626.02 -481.96)" fill="#112a5a"/>
      <path d="M761.31,855.68a11.15,11.15,0,1,0,11.14,11.15,11.16,11.16,0,0,0-11.14-11.15" transform="translate(-626.02 -481.96)" fill="#112a5a"/>
      <path d="M766.82,882.71A11.22,11.22,0,1,0,778,893.92a11.22,11.22,0,0,0-11.21-11.21" transform="translate(-626.02 -481.96)" fill="#112a5a"/>
      <path d="M773.6,909.58a11.15,11.15,0,1,0,11.16,11.15,11.15,11.15,0,0,0-11.16-11.15" transform="translate(-626.02 -481.96)" fill="#112a5a"/>
      <path d="M781.66,936a11.15,11.15,0,1,0,11.14,11.15A11.15,11.15,0,0,0,781.66,936" transform="translate(-626.02 -481.96)" fill="#112a5a"/>
      <path d="M790.94,965.15a8.07,8.07,0,1,0,8.07,8.07,8.07,8.07,0,0,0-8.07-8.07" transform="translate(-626.02 -481.96)" fill="#112a5a"/>
      <path d="M801.44,988.23A10.57,10.57,0,1,0,812,998.8a10.57,10.57,0,0,0-10.57-10.57" transform="translate(-626.02 -481.96)" fill="#112a5a"/>
      <path d="M813.14,1015.32a8.53,8.53,0,1,0,8.52,8.53,8.53,8.53,0,0,0-8.52-8.53" transform="translate(-626.02 -481.96)" fill="#112a5a"/>
      <path d="M826,1040.31a8,8,0,1,0,8,8,8,8,0,0,0-8-8" transform="translate(-626.02 -481.96)" fill="#112a5a"/>
      <path d="M840,1064.15a8,8,0,1,0,8,8,8,8,0,0,0-8-8" transform="translate(-626.02 -481.96)" fill="#112a5a"/>
      <path d="M855.15,1088.83a6.47,6.47,0,1,0,6.47,6.47,6.47,6.47,0,0,0-6.47-6.47" transform="translate(-626.02 -481.96)" fill="#112a5a"/>
      <path d="M871.35,1109.63a8.08,8.08,0,1,0,8.07,8.07,8.08,8.08,0,0,0-8.07-8.07" transform="translate(-626.02 -481.96)" fill="#112a5a"/>
      <path d="M888.59,1131.31a7.94,7.94,0,0,0-3.61.86h7.22a7.94,7.94,0,0,0-3.61-.86" transform="translate(-626.02 -481.96)" fill="#112a5a"/>
      <path d="M796.06,482.81h-2.32a11.27,11.27,0,0,0,1.16.06,11.12,11.12,0,0,0,1.16-.06" transform="translate(-626.02 -481.96)" fill="#112a5a"/>
      <path d="M782.36,485.21a11.15,11.15,0,1,0,11.14,11.15,11.15,11.15,0,0,0-11.14-11.15" transform="translate(-626.02 -481.96)" fill="#112a5a"/>
      <path d="M770.92,510.38a11.15,11.15,0,1,0,11.14,11.15,11.16,11.16,0,0,0-11.14-11.15" transform="translate(-626.02 -481.96)" fill="#112a5a"/>
      <path d="M760.63,536a11.15,11.15,0,1,0,11.15,11.15A11.16,11.16,0,0,0,760.63,536" transform="translate(-626.02 -481.96)" fill="#112a5a"/>
      <path d="M751.49,564.7a8.59,8.59,0,1,0,8.58,8.59,8.6,8.6,0,0,0-8.58-8.59" transform="translate(-626.02 -481.96)" fill="#112a5a"/>
      <path d="M743.54,589.26a10.51,10.51,0,1,0,10.51,10.51,10.52,10.52,0,0,0-10.51-10.51" transform="translate(-626.02 -481.96)" fill="#112a5a"/>
      <path d="M736.78,616.08a10.51,10.51,0,1,0,10.51,10.5,10.5,10.5,0,0,0-10.51-10.5" transform="translate(-626.02 -481.96)" fill="#112a5a"/>
      <path d="M731.23,642.52a11.15,11.15,0,1,0,11.16,11.15,11.15,11.15,0,0,0-11.16-11.15" transform="translate(-626.02 -481.96)" fill="#112a5a"/>
      <path d="M726.91,669.83A11.15,11.15,0,1,0,738.07,681a11.15,11.15,0,0,0-11.16-11.15" transform="translate(-626.02 -481.96)" fill="#112a5a"/>
      <path d="M723.82,698.84a9.61,9.61,0,1,0,9.61,9.61,9.61,9.61,0,0,0-9.61-9.61" transform="translate(-626.02 -481.96)" fill="#112a5a"/>
      <path d="M722,726.42a9.61,9.61,0,1,0,9.61,9.61,9.61,9.61,0,0,0-9.61-9.61" transform="translate(-626.02 -481.96)" fill="#112a5a"/>
      <path d="M721.34,754.06a9.62,9.62,0,1,0,9.61,9.63,9.62,9.62,0,0,0-9.61-9.63" transform="translate(-626.02 -481.96)" fill="#112a5a"/>
      <path d="M722,781.71a9.61,9.61,0,1,0,9.61,9.61,9.61,9.61,0,0,0-9.61-9.61" transform="translate(-626.02 -481.96)" fill="#112a5a"/>
      <path d="M723.82,807.76A11.15,11.15,0,1,0,735,818.91a11.15,11.15,0,0,0-11.15-11.15" transform="translate(-626.02 -481.96)" fill="#112a5a"/>
      <path d="M726.91,835.24a11.15,11.15,0,1,0,11.16,11.15,11.15,11.15,0,0,0-11.16-11.15" transform="translate(-626.02 -481.96)" fill="#112a5a"/>
      <path d="M731.23,862.54a11.15,11.15,0,1,0,11.16,11.15,11.15,11.15,0,0,0-11.16-11.15" transform="translate(-626.02 -481.96)" fill="#112a5a"/>
      <path d="M736.78,889.63a11.15,11.15,0,1,0,11.16,11.15,11.15,11.15,0,0,0-11.16-11.15" transform="translate(-626.02 -481.96)" fill="#112a5a"/>
      <path d="M743.54,916.38a11.21,11.21,0,1,0,11.22,11.21,11.21,11.21,0,0,0-11.22-11.21" transform="translate(-626.02 -481.96)" fill="#112a5a"/>
      <path d="M751.49,943.56A10.51,10.51,0,1,0,762,954.07a10.52,10.52,0,0,0-10.51-10.51" transform="translate(-626.02 -481.96)" fill="#112a5a"/>
      <path d="M760.63,969.67a10.5,10.5,0,1,0,10.51,10.49,10.5,10.5,0,0,0-10.51-10.49" transform="translate(-626.02 -481.96)" fill="#112a5a"/>
      <path d="M770.92,997.24a8.59,8.59,0,1,0,8.59,8.59,8.6,8.6,0,0,0-8.59-8.59" transform="translate(-626.02 -481.96)" fill="#112a5a"/>
      <path d="M782.36,1022.42a8.59,8.59,0,1,0,8.58,8.58,8.58,8.58,0,0,0-8.58-8.58" transform="translate(-626.02 -481.96)" fill="#112a5a"/>
      <path d="M794.9,1049.11a6.53,6.53,0,1,0,6.54,6.52,6.53,6.53,0,0,0-6.54-6.52" transform="translate(-626.02 -481.96)" fill="#112a5a"/>
      <path d="M808.55,1072a7.7,7.7,0,1,0,7.69,7.7,7.69,7.69,0,0,0-7.69-7.7" transform="translate(-626.02 -481.96)" fill="#112a5a"/>
      <path d="M823.26,1095.09a8,8,0,1,0,8,8,8,8,0,0,0-8-8" transform="translate(-626.02 -481.96)" fill="#112a5a"/>
      <path d="M839,1118.13a7.7,7.7,0,0,0-4.34,14h8.69a7.7,7.7,0,0,0-4.35-14" transform="translate(-626.02 -481.96)" fill="#112a5a"/>
      <path d="M767,482.81H748.26a11.13,11.13,0,0,0,18.74,0" transform="translate(-626.02 -481.96)" fill="#112a5a"/>
      <path d="M745.9,493.23a8.59,8.59,0,1,0,8.59,8.59,8.6,8.6,0,0,0-8.59-8.59" transform="translate(-626.02 -481.96)" fill="#112a5a"/>
      <path d="M735.26,516.18a11.15,11.15,0,1,0,11.14,11.15,11.16,11.16,0,0,0-11.14-11.15" transform="translate(-626.02 -481.96)" fill="#112a5a"/>
      <path d="M725.7,544.69a8.59,8.59,0,1,0,8.58,8.58,8.6,8.6,0,0,0-8.58-8.58" transform="translate(-626.02 -481.96)" fill="#112a5a"/>
      <path d="M717.27,571a8.59,8.59,0,1,0,8.59,8.59,8.59,8.59,0,0,0-8.59-8.59" transform="translate(-626.02 -481.96)" fill="#112a5a"/>
      <path d="M710,597.69a8.59,8.59,0,1,0,8.57,8.59,8.59,8.59,0,0,0-8.57-8.59" transform="translate(-626.02 -481.96)" fill="#112a5a"/>
      <path d="M703.82,622.09A11.15,11.15,0,1,0,715,633.24a11.15,11.15,0,0,0-11.15-11.15" transform="translate(-626.02 -481.96)" fill="#112a5a"/>
      <path d="M698.82,650.82a9.61,9.61,0,1,0,9.61,9.61,9.61,9.61,0,0,0-9.61-9.61" transform="translate(-626.02 -481.96)" fill="#112a5a"/>
      <path d="M695,679.23a8.59,8.59,0,1,0,8.59,8.59,8.59,8.59,0,0,0-8.59-8.59" transform="translate(-626.02 -481.96)" fill="#112a5a"/>
      <path d="M692.34,706.75a8.59,8.59,0,1,0,8.59,8.58,8.58,8.58,0,0,0-8.59-8.58" transform="translate(-626.02 -481.96)" fill="#112a5a"/>
      <path d="M690.86,734.36a8.59,8.59,0,1,0,8.59,8.58,8.59,8.59,0,0,0-8.59-8.58" transform="translate(-626.02 -481.96)" fill="#112a5a"/>
      <path d="M690.57,762a8.59,8.59,0,1,0,8.59,8.59,8.6,8.6,0,0,0-8.59-8.59" transform="translate(-626.02 -481.96)" fill="#112a5a"/>
      <path d="M691.46,789.64a8.59,8.59,0,1,0,8.58,8.59,8.59,8.59,0,0,0-8.58-8.59" transform="translate(-626.02 -481.96)" fill="#112a5a"/>
      <path d="M693.53,817.21a8.59,8.59,0,1,0,8.58,8.59,8.58,8.58,0,0,0-8.58-8.59" transform="translate(-626.02 -481.96)" fill="#112a5a"/>
      <path d="M696.76,842.11a11.15,11.15,0,1,0,11.15,11.15,11.15,11.15,0,0,0-11.15-11.15" transform="translate(-626.02 -481.96)" fill="#112a5a"/>
      <path d="M701.17,870.94a9.61,9.61,0,1,0,9.62,9.61,9.62,9.62,0,0,0-9.62-9.61" transform="translate(-626.02 -481.96)" fill="#112a5a"/>
      <path d="M706.75,895.91a11.73,11.73,0,1,0,11.73,11.73,11.72,11.72,0,0,0-11.73-11.73" transform="translate(-626.02 -481.96)" fill="#112a5a"/>
      <path d="M713.48,924.84a9.61,9.61,0,1,0,9.61,9.61,9.61,9.61,0,0,0-9.61-9.61" transform="translate(-626.02 -481.96)" fill="#112a5a"/>
      <path d="M721.34,952.37a8.59,8.59,0,1,0,8.59,8.58,8.59,8.59,0,0,0-8.59-8.58" transform="translate(-626.02 -481.96)" fill="#112a5a"/>
      <path d="M730.34,974.87a12.24,12.24,0,1,0,12.24,12.23,12.24,12.24,0,0,0-12.24-12.23" transform="translate(-626.02 -481.96)" fill="#112a5a"/>
      <path d="M740.44,1004.25a8.59,8.59,0,1,0,8.58,8.59,8.6,8.6,0,0,0-8.58-8.59" transform="translate(-626.02 -481.96)" fill="#112a5a"/>
      <path d="M751.64,1029.54a8.59,8.59,0,1,0,8.58,8.59,8.59,8.59,0,0,0-8.58-8.59" transform="translate(-626.02 -481.96)" fill="#112a5a"/>
      <path d="M763.9,1054.38a8.53,8.53,0,1,0,8.51,8.53,8.53,8.53,0,0,0-8.51-8.53" transform="translate(-626.02 -481.96)" fill="#112a5a"/>
      <path d="M777.21,1078.61a8.53,8.53,0,1,0,8.51,8.53,8.54,8.54,0,0,0-8.51-8.53" transform="translate(-626.02 -481.96)" fill="#112a5a"/>
      <path d="M791.54,1098.48a12.3,12.3,0,1,0,12.3,12.31,12.31,12.31,0,0,0-12.3-12.31" transform="translate(-626.02 -481.96)" fill="#112a5a"/>
      <path d="M806.86,1121.5a12.3,12.3,0,0,0-12.19,10.67h24.39a12.3,12.3,0,0,0-12.2-10.67" transform="translate(-626.02 -481.96)" fill="#112a5a"/>
      <path d="M729.53,482.81H712.42a8.58,8.58,0,0,0,17.11,0" transform="translate(-626.02 -481.96)" fill="#112a5a"/>
      <path d="M710,498.94a8.59,8.59,0,1,0,8.59,8.58,8.59,8.59,0,0,0-8.59-8.58" transform="translate(-626.02 -481.96)" fill="#112a5a"/>
      <path d="M700.07,524.74a8.59,8.59,0,1,0,8.59,8.58,8.58,8.58,0,0,0-8.59-8.58" transform="translate(-626.02 -481.96)" fill="#112a5a"/>
      <path d="M691.21,550.93a8.59,8.59,0,1,0,8.58,8.58,8.59,8.59,0,0,0-8.58-8.58" transform="translate(-626.02 -481.96)" fill="#112a5a"/>
      <path d="M683.42,577.46A8.59,8.59,0,1,0,692,586a8.58,8.58,0,0,0-8.58-8.58" transform="translate(-626.02 -481.96)" fill="#112a5a"/>
      <path d="M676.72,604.28a8.59,8.59,0,1,0,8.58,8.59,8.6,8.6,0,0,0-8.58-8.59" transform="translate(-626.02 -481.96)" fill="#112a5a"/>
      <path d="M671.12,631.36a8.59,8.59,0,1,0,8.58,8.58,8.59,8.59,0,0,0-8.58-8.58" transform="translate(-626.02 -481.96)" fill="#112a5a"/>
      <path d="M666.63,658.64a8.59,8.59,0,1,0,8.58,8.59,8.6,8.6,0,0,0-8.58-8.59" transform="translate(-626.02 -481.96)" fill="#112a5a"/>
      <path d="M663.25,686.08a8.59,8.59,0,1,0,8.59,8.59,8.59,8.59,0,0,0-8.59-8.59" transform="translate(-626.02 -481.96)" fill="#112a5a"/>
      <path d="M661,713.64a8.59,8.59,0,1,0,8.59,8.58,8.58,8.58,0,0,0-8.59-8.58" transform="translate(-626.02 -481.96)" fill="#112a5a"/>
      <path d="M659.87,741.27a8.59,8.59,0,1,0,8.59,8.58,8.59,8.59,0,0,0-8.59-8.58" transform="translate(-626.02 -481.96)" fill="#112a5a"/>
      <path d="M659.87,768.92a8.59,8.59,0,1,0,8.59,8.58,8.59,8.59,0,0,0-8.59-8.58" transform="translate(-626.02 -481.96)" fill="#112a5a"/>
      <path d="M661,796.55a8.59,8.59,0,1,0,8.59,8.58,8.58,8.58,0,0,0-8.59-8.58" transform="translate(-626.02 -481.96)" fill="#112a5a"/>
      <path d="M663.25,824.1a8.59,8.59,0,1,0,8.59,8.59,8.59,8.59,0,0,0-8.59-8.59" transform="translate(-626.02 -481.96)" fill="#112a5a"/>
      <path d="M666.63,851.55a8.59,8.59,0,1,0,8.58,8.58,8.59,8.59,0,0,0-8.58-8.58" transform="translate(-626.02 -481.96)" fill="#112a5a"/>
      <path d="M671.12,878.83a8.59,8.59,0,1,0,8.58,8.59,8.59,8.59,0,0,0-8.58-8.59" transform="translate(-626.02 -481.96)" fill="#112a5a"/>
      <path d="M676.72,905.9a8.59,8.59,0,1,0,8.58,8.59,8.6,8.6,0,0,0-8.58-8.59" transform="translate(-626.02 -481.96)" fill="#112a5a"/>
      <path d="M683.42,932.67a8.65,8.65,0,1,0,8.65,8.64,8.65,8.65,0,0,0-8.65-8.64" transform="translate(-626.02 -481.96)" fill="#112a5a"/>
      <path d="M691.21,959.26a8.58,8.58,0,1,0,8.58,8.59,8.58,8.58,0,0,0-8.58-8.59" transform="translate(-626.02 -481.96)" fill="#112a5a"/>
      <path d="M700.07,984.49a9.55,9.55,0,1,0,9.55,9.54,9.54,9.54,0,0,0-9.55-9.54" transform="translate(-626.02 -481.96)" fill="#112a5a"/>
      <path d="M710,1010.29a9.55,9.55,0,1,0,9.55,9.55,9.56,9.56,0,0,0-9.55-9.55" transform="translate(-626.02 -481.96)" fill="#112a5a"/>
      <path d="M721,1036.64a8.59,8.59,0,1,0,8.58,8.58,8.58,8.58,0,0,0-8.58-8.58" transform="translate(-626.02 -481.96)" fill="#112a5a"/>
      <path d="M733,1061.55a8.59,8.59,0,1,0,8.59,8.58,8.59,8.59,0,0,0-8.59-8.58" transform="translate(-626.02 -481.96)" fill="#112a5a"/>
      <path d="M746,1086a8.52,8.52,0,1,0,8.53,8.52A8.51,8.51,0,0,0,746,1086" transform="translate(-626.02 -481.96)" fill="#112a5a"/>
      <path d="M760,1109.92a8.47,8.47,0,1,0,8.45,8.46,8.46,8.46,0,0,0-8.45-8.46" transform="translate(-626.02 -481.96)" fill="#112a5a"/>
      <path d="M657.09,557.29a8.59,8.59,0,1,0,8.59,8.58,8.58,8.58,0,0,0-8.59-8.58" transform="translate(-626.02 -481.96)" fill="#112a5a"/>
      <path d="M649.89,584a8.59,8.59,0,1,0,8.59,8.58,8.58,8.58,0,0,0-8.59-8.58" transform="translate(-626.02 -481.96)" fill="#112a5a"/>
      <path d="M643.74,610.93a8.59,8.59,0,1,0,8.59,8.59,8.6,8.6,0,0,0-8.59-8.59" transform="translate(-626.02 -481.96)" fill="#112a5a"/>
      <path d="M638.64,638.11a8.59,8.59,0,1,0,8.59,8.59,8.59,8.59,0,0,0-8.59-8.59" transform="translate(-626.02 -481.96)" fill="#112a5a"/>
      <path d="M634.61,665.46a8.59,8.59,0,1,0,8.59,8.59,8.6,8.6,0,0,0-8.59-8.59" transform="translate(-626.02 -481.96)" fill="#112a5a"/>
      <path d="M636.49,858.42a8.59,8.59,0,1,0,8.59,8.58,8.59,8.59,0,0,0-8.59-8.58" transform="translate(-626.02 -481.96)" fill="#112a5a"/>
      <path d="M641.06,885.69a8.58,8.58,0,1,0,8.58,8.58,8.59,8.59,0,0,0-8.58-8.58" transform="translate(-626.02 -481.96)" fill="#112a5a"/>
      <path d="M646.69,912.69a8.65,8.65,0,1,0,8.64,8.65,8.65,8.65,0,0,0-8.64-8.65" transform="translate(-626.02 -481.96)" fill="#112a5a"/>
      <path d="M653.36,939.53a8.65,8.65,0,1,0,8.65,8.65,8.65,8.65,0,0,0-8.65-8.65" transform="translate(-626.02 -481.96)" fill="#112a5a"/>
      <path d="M661.08,966.13a8.59,8.59,0,1,0,8.59,8.59,8.6,8.6,0,0,0-8.59-8.59" transform="translate(-626.02 -481.96)" fill="#112a5a"/>
      <path d="M728.51,1117.38a8.51,8.51,0,0,0-5.77,14.79h11.53a8.51,8.51,0,0,0-5.76-14.79" transform="translate(-626.02 -481.96)" fill="#112a5a"/>
      <path id="blueball" d="M787.25,821.48a11.15,11.15,0,1,1-11.14,11.15A11.15,11.15,0,0,1,787.25,821.48Z" transform="translate(-626.02 -481.96)" fill="#164595"/>
      <line x1="435.74" y1="531.82" x2="303.98" y2="652.04" fill="none" stroke="#164595" stroke-miterlimit="10" stroke-width="1.5"/>
      <line x1="171.98" y1="349.04" x2="341.12" y2="331.01" fill="none" stroke="#164595" stroke-miterlimit="10" stroke-width="1.5"/>
      <line x1="474.98" y1="652.04" x2="497.98" y2="617.04" fill="none" stroke="#164595" stroke-miterlimit="10" stroke-width="1.5"/>
      <path d="M1320.36,625.16a61.15,61.15,0,0,0-15.56,2.07q7-.65,14.17-.65a154,154,0,0,1,18.71,1.14,61.75,61.75,0,0,0-17.32-2.56" transform="translate(-626.02 -481.96)" fill="#13336e"/>
      <path d="M1282.71,640.53c-2.43,0-4.86.1-7.27.25-8.93,5.47-17.46,11.46-25.89,16.33-8.84,5.11-18.59,9.75-28,14.93-1,1.59-2,3.22-3,4.87l-.78,1.34c10.8-6.41,22.71-11.86,33.52-18.11,10.37-6,20.66-13.47,31.41-19.61m75-.17q2.71,1.53,5.38,3.17v-3c-1.78-.08-3.57-.12-5.38-.13M1319,626.58q-7.15,0-14.17.65a96.11,96.11,0,0,0-22.18,9.33l-.85.48,2.57,0c1.59,0,3.19,0,4.78.06,9.87-5,20.15-8.42,31.24-8.42h0c11,0,21.15,3.37,30.92,8.26,1.74,0,3.49-.06,5.23-.06h2.12l-.54-.31a99.21,99.21,0,0,0-20.42-8.84,154,154,0,0,0-18.71-1.14" transform="translate(-626.02 -481.96)" fill="#0e346d"/>
      <path d="M1193.05,693.31a57,57,0,0,0-6.6,9.14,56.25,56.25,0,0,0-4.58,10.22,152.11,152.11,0,0,1,11.18-19.36" transform="translate(-626.02 -481.96)" fill="#13336e"/>
      <path d="M1181.27,742.58c-.44.79-.88,1.57-1.31,2.36q-1.11,2-2.14,4.08c.21,10.24.94,20.64.94,30.74,0,10.27-.76,20.85-1,31.25q1.08,2.12,2.25,4.23c.4.72.8,1.44,1.21,2.16,0-.61,0-1.21,0-1.81,0-11.67,1-23.86,1-35.83s-1-24.15-1-35.81v-1.37m33.94-66.87-.43.25c-8.08,4.89-15.65,10.42-21.73,17.35a152.11,152.11,0,0,0-11.18,19.36c-3,9.09-4,18.92-4.09,29,1.19-2.13,2.43-4.25,3.7-6.35.61-11.31,2.67-21.9,8-31.1s13.1-16.09,22.15-22.1c1.15-2.15,2.34-4.29,3.58-6.39" transform="translate(-626.02 -481.96)" fill="#0e346d"/>
      <path d="M1180.33,841.5a58.36,58.36,0,0,0,6.12,15.58,61,61,0,0,0,12.22,14.81,152.13,152.13,0,0,1-18.34-30.39" transform="translate(-626.02 -481.96)" fill="#13336e"/>
      <path d="M1363.08,916c-1.67,1-3.34,2-5,3,1.68,0,3.35-.06,5-.13V916M1219,882c.5.85,1,1.68,1.52,2.51.76,1.25,1.54,2.47,2.33,3.68,9,4.91,18.27,9.36,26.71,14.24s17.13,11,26.16,16.5q3.6.21,7.26.22c-10.84-6.16-21.22-13.7-31.67-19.75S1229.47,888.1,1219,882m-41.21-63.65a105,105,0,0,0,2.55,23.16,152.13,152.13,0,0,0,18.34,30.39,105.85,105.85,0,0,0,16.11,11.68l1.67,1c-1.26-2.09-2.48-4.23-3.68-6.38-9.53-6.18-17.81-13.37-23.29-22.85-5.26-9.09-7.34-19.52-8-30.67-1.28-2.1-2.52-4.2-3.72-6.32" transform="translate(-626.02 -481.96)" fill="#0e346d"/>
      <path d="M1347.62,928.19a153.92,153.92,0,0,1-52.57.82,66.51,66.51,0,0,0,25.31,5.36c9.7,0,18.73-2.47,27.26-6.18" transform="translate(-626.02 -481.96)" fill="#13336e"/>
      <path d="M1351.65,922.42c-9.88,5-20.18,8.45-31.29,8.45h0c-11,0-21.18-3.38-31-8.29-1.73,0-3.46.07-5.19.07l-2.16,0,.59.33a114.91,114.91,0,0,0,12.43,6,153.92,153.92,0,0,0,52.57-.82c3.58-1.55,7.06-3.33,10.48-5.23l.9-.5-2.63,0c-1.57,0-3.15,0-4.72-.06" transform="translate(-626.02 -481.96)" fill="#0e346d"/>
      <path id="inner-path-back" d="M1363.08,482.81H1235c-129.06,37.05-223.5,156-223.5,296.94,0,170.6,138.3,308.9,308.9,308.9a311.91,311.91,0,0,0,42.72-2.93v-102a208.8,208.8,0,0,1-42.72,4.39c-115,0-208.31-93.27-208.31-208.32s93.26-208.31,208.31-208.31a209.5,209.5,0,0,1,42.72,4.38v-93" transform="translate(-626.02 -481.96)" fill="#13336e" opacity="0.46"/>
      <path id="inner-path" d="M1363.08,482.81H1235c-129.06,37.05-223.5,156-223.5,296.94,0,170.6,138.3,308.9,308.9,308.9a311.91,311.91,0,0,0,42.72-2.93v-102a208.8,208.8,0,0,1-42.72,4.39c-115,0-208.31-93.27-208.31-208.32s93.26-208.31,208.31-208.31a209.5,209.5,0,0,1,42.72,4.38v-93" transform="translate(-626.02 -481.96)" fill="#13336e"/>
      <g id="_Clip_Group_DELETE_BEFORE_EXPORT_" data-name="&lt;Clip Group&gt;  DELETE BEFORE EXPORT !!!!!!!!!!!!!!!">
        <line x1="693.98" y1="506.04" x2="693.98" y2="607.04" fill="none" stroke="#052245" stroke-miterlimit="10" stroke-width="5.74"/>
        <path d="M1575.07,990.46" transform="translate(-626.02 -481.96)" fill="none" stroke="#052245" stroke-miterlimit="10" stroke-width="5.74"/>
        <path d="M1320,779.75" transform="translate(-626.02 -481.96)" fill="none" stroke="#052245" stroke-miterlimit="10" stroke-width="5.74" opacity="0.5"/>
        <path d="M1625.77,906.1" transform="translate(-626.02 -481.96)" fill="none" stroke="#052245" stroke-miterlimit="10" stroke-width="5.74"/>
        <path d="M1320,779.75" transform="translate(-626.02 -481.96)" fill="none" stroke="#052245" stroke-miterlimit="10" stroke-width="5.74" opacity="0.5"/>
        <path d="M1566.5,559.07" transform="translate(-626.02 -481.96)" fill="none" stroke="#052245" stroke-miterlimit="10" stroke-width="5.74"/>
        <path d="M1320,779.75" transform="translate(-626.02 -481.96)" fill="none" stroke="#052245" stroke-miterlimit="10" stroke-width="5.74" opacity="0.5"/>
        <line x1="693.98" y1="89.04" x2="693.98" y2="2.04" fill="none" stroke="#052245" stroke-miterlimit="10" stroke-width="5.74"/>
        <line x1="522.98" y1="179.04" x2="440.98" y2="123.04" fill="none" stroke="#052245" stroke-miterlimit="10" stroke-width="5.74"/>
        <line x1="497.98" y1="220.04" x2="438.68" y2="195.68" fill="none" stroke="#052245" stroke-miterlimit="10" stroke-width="5.74"/>
        <line x1="491.98" y1="351.04" x2="396.98" y2="378.04" fill="none" stroke="#052245" stroke-miterlimit="10" stroke-width="5.74"/>
        <line x1="516.98" y1="408.04" x2="432.98" y2="457.04" fill="none" stroke="#052245" stroke-miterlimit="10" stroke-width="5.74"/>
        <path d="M1320.36,1020.89a241,241,0,0,1-205-114.1" transform="translate(-626.02 -481.96)" fill="none" stroke="#052245" stroke-miterlimit="10" stroke-width="5.74"/>
        <path d="M1320.36,504.41a278.12,278.12,0,0,1,43.18,3.36" transform="translate(-626.02 -481.96)" fill="none" stroke="#052245" stroke-miterlimit="10" stroke-width="5.74"/>
        <path d="M1054.09,850.13a276.15,276.15,0,0,1,38-224.33" transform="translate(-626.02 -481.96)" fill="none" stroke="#052245" stroke-miterlimit="10" stroke-width="5.74"/>
        <path d="M1657,665.38" transform="translate(-626.02 -481.96)" fill="none" stroke="#052245" stroke-miterlimit="10" stroke-width="5.74"/>
        <path d="M1320,779.75" transform="translate(-626.02 -481.96)" fill="none" stroke="#052245" stroke-miterlimit="10" stroke-width="5.74" opacity="0.5"/>
      </g>
      <path id="endring-purple-back" d="M1103.65,1080.94A370.33,370.33,0,0,1,969.1,669.63l1.07-3.36,38.72,12.66-1,3.29A327.23,327.23,0,0,0,1129,1045.85l2.84,2.05L1106.49,1083Z" transform="translate(-626.02 -481.96)" fill="#904098" fill-opacity="0.5"/>
      <path id="endring-purple" d="M1103.65,1080.94A370.33,370.33,0,0,1,969.1,669.63l1.07-3.36,38.72,12.66-1,3.29A327.23,327.23,0,0,0,1129,1045.85l2.84,2.05L1106.49,1083Z" transform="translate(-626.02 -481.96)" fill="#904098"/>
      <path d="M972.43,670.69l32.09,10.49a330.68,330.68,0,0,0-15.1,99.05c0,110.53,54.23,208.39,137.51,268.46l-21.22,29.42c-91.24-66.63-150.52-174.42-150.52-296.06a366.2,366.2,0,0,1,17.24-111.36m-4.52-8.85-2.15,6.72a373.29,373.29,0,0,0,135.82,415.2l5.69,4.15,4.12-5.71,21.22-29.42,4.1-5.68L1131,1043a326.73,326.73,0,0,1-97.88-112.87,324.72,324.72,0,0,1-22-246.87l2.07-6.6-6.57-2.15L974.61,664Z" transform="translate(-626.02 -481.96)" fill="#052245"/>
      <path id="endring-red-back" d="M1205,1132l158,1v-29c-68,12.59-176.08-17.81-232-58.15l-2.84-2-25.3,35.08,2.81,2.06c30.67,22.4,57.35,35.06,99.35,51.06" transform="translate(-626.02 -481.96)" fill="#e85342" opacity="0.5"/>
      <path id="endring-red" d="M1205,1132l158,1v-29c-68,12.59-176.08-17.81-232-58.15l-2.84-2-25.3,35.08,2.81,2.06c30.67,22.4,57.35,35.06,99.35,51.06" transform="translate(-626.02 -481.96)" fill="#e85342"/>
      <path d="M1207,1132c-34-11-73-33.24-101.29-53.89l21.22-29.42C1181.3,1087.9,1278,1119,1363,1112l-1,20H1207m156-28c-67.42,11.69-176.63-21.08-232-61l-5.68-4.1-4.09,5.68L1100,1074l-4.07,5.65,5.62,4.1c24.49,17.88,52.89,37.67,81.42,49.24l179,.55" transform="translate(-626.02 -481.96)" fill="#052245"/>
      <rect x="732.98" y="630.24" width="4" height="20.8" fill="#e85342"/>
      <polyline points="736.98 649.87 736.98 652.54 582.48 651.21 579.98 648.54" fill="#e85342"/>
      <path id="endring-green-back" d="M1185,482.07a328.26,328.26,0,0,0-177.09,200.15l-1.06,3.39L968,672.94l1.06-3.31a370.41,370.41,0,0,1,131.09-183.89c1.32-1,2.66-2,4-3" transform="translate(-626.02 -481.96)" fill="#4da621" opacity="0.5"/>
      <path id="endring-green" d="M1185,482.07a328.26,328.26,0,0,0-177.09,200.15l-1.06,3.39L968,672.94l1.06-3.31a370.41,370.41,0,0,1,131.09-183.89c1.32-1,2.66-2,4-3" transform="translate(-626.02 -481.96)" fill="#4da621"/>
      <path d="M1227.58,900.39a61.19,61.19,0,0,0,16.13,13.66,64,64,0,0,0,22.44,7.41,151.93,151.93,0,0,1-38.57-21.07m-60.33-133.13a58.26,58.26,0,0,0-1.52,13v.23h0a57.41,57.41,0,0,0,1.92,14.22,153.7,153.7,0,0,1-.83-16c0-3.86.15-7.69.43-11.47m87.12-126.32a58.52,58.52,0,0,0-22,12.65,151.51,151.51,0,0,1,22-12.65" transform="translate(-626.02 -481.96)" fill="#13336e"/>
      <path id="white-stuff" d="M1356.52,636.86c-1.74,0-3.49,0-5.23.06-10.7.26-21.44,1.16-31.64,1.2H1319c-9.51,0-19.63-.82-29.84-1-1.59,0-3.19-.06-4.78-.06l-2.57,0c-9.29.14-18.56,1.06-27.4,3.9a151.51,151.51,0,0,0-22,12.65c-6.81,6.16-12.18,13.64-16.86,21.53l-.34.59c-1.24,2.1-2.43,4.24-3.58,6.39-5,9.32-9.41,18.9-14.27,27.44s-10.59,17-15.88,25.76c-1.27,2.1-2.51,4.22-3.7,6.35-.3.54-.6,1.07-.89,1.61a94.63,94.63,0,0,0-9.64,24c-.28,3.78-.43,7.61-.43,11.47a153.7,153.7,0,0,0,.83,16,96.59,96.59,0,0,0,9.35,22.2l.78,1.41c1.2,2.12,2.44,4.22,3.72,6.32,5.42,8.88,11.4,17.64,16.57,26.5s9.71,18.07,14.7,27c1.2,2.15,2.42,4.29,3.68,6.38.35.6.71,1.19,1.08,1.78a111.41,111.41,0,0,0,10,14,151.93,151.93,0,0,0,38.57,21.07,114.38,114.38,0,0,0,15.88,1.17l2.16,0c1.73,0,3.46,0,5.19-.07,10.71-.25,21.47-1.16,31.68-1.2h.69c9.53,0,19.68.82,29.9,1,1.57,0,3.15.06,4.72.06l2.63,0q2,0,4.08-.12v-3.5c-1.67.07-3.34.11-5,.13h-1.72c-11.6,0-23.4-1.1-34.62-1.1h-.67c-12.09,0-24.68,1.27-36.86,1.27H1283q-3.66,0-7.26-.22c-10.84-.63-21.14-2.71-30.27-7.91s-16.36-13.37-22.6-22.83c-.79-1.21-1.57-2.43-2.33-3.68-.51-.83-1-1.66-1.52-2.51-6.16-10.38-11.63-21.86-17.9-32.6s-13.76-21.39-19.82-32c-.41-.72-.81-1.44-1.21-2.16q-1.17-2.12-2.25-4.23c-5.08-10-8.54-20-8.58-30.51h0v-.2c0-10.87,3.51-21.19,8.59-31.27q1-2.06,2.14-4.08c.43-.79.87-1.57,1.31-2.36,6-10.55,13.18-20.87,19.13-31.31s11.13-22.23,17.38-33l.78-1.34c1-1.65,2-3.28,3-4.87,6-9.17,13.08-17.23,22.58-22.77s20.23-7.82,31.28-8.49c2.41-.15,4.84-.23,7.27-.25h1.66c11.6,0,23.4,1.1,34.62,1.11h.67c12.09,0,24.68-1.27,36.86-1.27h1.18c1.81,0,3.6,0,5.38.13V637c-1.48-.06-3-.09-4.44-.11h-2.12" transform="translate(-626.02 -481.96)" fill="#0e346d"/>
      <path d="M1176.74,482.11a331.66,331.66,0,0,0-172.22,199.07l-32.09-10.49a367.2,367.2,0,0,1,138-188.05m-12.3.29A374.09,374.09,0,0,0,965.76,668.56l-2.11,6.62,6.61,2.16,32.09,10.49,6.73,2.2,2.12-6.76a324.46,324.46,0,0,1,114.93-162.22C1144.54,507.25,1185,482,1185,482" transform="translate(-626.02 -481.96)" fill="#052245"/>
      <path d="M1265.52,813.89l36.13-31.55L1312.9,805l-47.38,8.9m52.64-14.37-11-22,11-9.58,10.95,9.58-11,22m14.26-28.65-8.82-7.71L1346,743.64l-13.54,27.23m-28.5,0-13.55-27.27,22.37,19.57-8.82,7.7m-43.81,38.27,20.05-70,18.2,36.63-38.25,33.41m96.6-83a4.38,4.38,0,0,0-2.89,1.14l-35.64,31.11-35.66-31.17a4.29,4.29,0,0,0-2.88-1.07,3.85,3.85,0,0,0-1.47.27,4.31,4.31,0,0,0-2.6,2.73l-25.31,88.39a4.32,4.32,0,0,0,4.12,5.62,4.71,4.71,0,0,0,.74-.06l63.06-11.86,44.9,8.44v-7.27L1323.43,805l11.26-22.63,28.39,24.82v-9.49L1338,775.73,1356.22,739l6.86,23.93V737l-2.18-7.61a4.33,4.33,0,0,0-3.07-3.1,4.09,4.09,0,0,0-1.12-.16" transform="translate(-626.02 -481.96)" fill="#0e346d" opacity="0.5"/>
      <path id="star" d="M1265.52,813.89l36.13-31.55L1312.9,805l-47.38,8.9m52.64-14.37-11-22,11-9.58,10.95,9.58-11,22m14.26-28.65-8.82-7.71L1346,743.64l-13.54,27.23m-28.5,0-13.55-27.27,22.37,19.57-8.82,7.7m-43.81,38.27,20.05-70,18.2,36.63-38.25,33.41m96.6-83a4.38,4.38,0,0,0-2.89,1.14l-35.64,31.11-35.66-31.17a4.29,4.29,0,0,0-2.88-1.07,3.85,3.85,0,0,0-1.47.27,4.31,4.31,0,0,0-2.6,2.73l-25.31,88.39a4.32,4.32,0,0,0,4.12,5.62,4.71,4.71,0,0,0,.74-.06l63.06-11.86,44.9,8.44v-7.27L1323.43,805l11.26-22.63,28.39,24.82v-9.49L1338,775.73,1356.22,739l6.86,23.93V737l-2.18-7.61a4.33,4.33,0,0,0-3.07-3.1,4.09,4.09,0,0,0-1.12-.16" transform="translate(-626.02 -481.96)" fill="#0e346d"/>
    </g>
  </g>
</svg>
