<svg id="full_images" data-name="full images" xmlns="http://www.w3.org/2000/svg" viewBox="0 0 474.96 420.23">
  <title>endrings</title>
  <g id="endring">
    <g>
      <path d="M985.85,598.78h-5.94a5.56,5.56,0,0,0,5.94,0" transform="translate(-757.51 -598.23)" fill="#112a5a"/>
      <path d="M972.21,602.83a5.53,5.53,0,1,0,5.53,5.53,5.52,5.52,0,0,0-5.53-5.53" transform="translate(-757.51 -598.23)" fill="#112a5a"/>
      <path d="M962.41,617.68a5.53,5.53,0,1,0,5.53,5.53,5.54,5.54,0,0,0-5.53-5.53" transform="translate(-757.51 -598.23)" fill="#112a5a"/>
      <path d="M953.51,633.09a5.53,5.53,0,1,0,5.53,5.53,5.54,5.54,0,0,0-5.53-5.53" transform="translate(-757.51 -598.23)" fill="#112a5a"/>
      <path d="M945.55,649a5.53,5.53,0,1,0,5.52,5.52,5.53,5.53,0,0,0-5.52-5.52" transform="translate(-757.51 -598.23)" fill="#112a5a"/>
      <path d="M938.55,665.37a5.53,5.53,0,1,0,5.53,5.53,5.52,5.52,0,0,0-5.53-5.53" transform="translate(-757.51 -598.23)" fill="#112a5a"/>
      <path d="M932.55,682.12a5.53,5.53,0,1,0,5.53,5.53,5.54,5.54,0,0,0-5.53-5.53" transform="translate(-757.51 -598.23)" fill="#112a5a"/>
      <path d="M927.56,699.2a5.53,5.53,0,1,0,5.53,5.53,5.53,5.53,0,0,0-5.53-5.53" transform="translate(-757.51 -598.23)" fill="#112a5a"/>
      <path d="M923.6,716.55a5.53,5.53,0,1,0,5.53,5.52,5.52,5.52,0,0,0-5.53-5.52" transform="translate(-757.51 -598.23)" fill="#112a5a"/>
      <path d="M920.69,734.11a5.53,5.53,0,1,0,5.52,5.52,5.53,5.53,0,0,0-5.52-5.52" transform="translate(-757.51 -598.23)" fill="#112a5a"/>
      <path d="M918.83,751.8a5.53,5.53,0,1,0,5.53,5.53,5.54,5.54,0,0,0-5.53-5.53" transform="translate(-757.51 -598.23)" fill="#112a5a"/>
      <path d="M918,769.58a5.53,5.53,0,1,0,5.53,5.53,5.54,5.54,0,0,0-5.53-5.53" transform="translate(-757.51 -598.23)" fill="#112a5a"/>
      <path d="M918.3,787.37a5.53,5.53,0,1,0,5.52,5.53,5.54,5.54,0,0,0-5.52-5.53" transform="translate(-757.51 -598.23)" fill="#112a5a"/>
      <path d="M919.63,805.12a5.53,5.53,0,1,0,5.52,5.52,5.53,5.53,0,0,0-5.52-5.52" transform="translate(-757.51 -598.23)" fill="#112a5a"/>
      <path d="M922,822.75a5.53,5.53,0,1,0,5.52,5.53,5.52,5.52,0,0,0-5.52-5.53" transform="translate(-757.51 -598.23)" fill="#112a5a"/>
      <path d="M925.45,840.21a5.53,5.53,0,1,0,5.53,5.53,5.53,5.53,0,0,0-5.53-5.53" transform="translate(-757.51 -598.23)" fill="#112a5a"/>
      <path d="M929.93,857.48a5.49,5.49,0,1,0,5.49,5.48,5.48,5.48,0,0,0-5.49-5.48" transform="translate(-757.51 -598.23)" fill="#112a5a"/>
      <path d="M935.43,874.4a5.49,5.49,0,1,0,5.49,5.49,5.49,5.49,0,0,0-5.49-5.49" transform="translate(-757.51 -598.23)" fill="#112a5a"/>
      <path d="M941.93,891a5.45,5.45,0,1,0,5.45,5.45,5.46,5.46,0,0,0-5.45-5.45" transform="translate(-757.51 -598.23)" fill="#112a5a"/>
      <path d="M949.41,907.15a5.45,5.45,0,1,0,5.44,5.44,5.45,5.45,0,0,0-5.44-5.44" transform="translate(-757.51 -598.23)" fill="#112a5a"/>
      <path d="M957.84,922.86a5.41,5.41,0,1,0,5.4,5.4,5.4,5.4,0,0,0-5.4-5.4" transform="translate(-757.51 -598.23)" fill="#112a5a"/>
      <path d="M967.2,938a5.41,5.41,0,1,0,5.4,5.4,5.4,5.4,0,0,0-5.4-5.4" transform="translate(-757.51 -598.23)" fill="#112a5a"/>
      <path d="M977.44,952.55a5.4,5.4,0,1,0,5.4,5.4,5.4,5.4,0,0,0-5.4-5.4" transform="translate(-757.51 -598.23)" fill="#112a5a"/>
      <path d="M988.54,966.55a5.32,5.32,0,1,0,5.32,5.32,5.32,5.32,0,0,0-5.32-5.32" transform="translate(-757.51 -598.23)" fill="#112a5a"/>
      <path d="M1000.44,979.81a5.28,5.28,0,1,0,5.28,5.28,5.27,5.27,0,0,0-5.28-5.28" transform="translate(-757.51 -598.23)" fill="#112a5a"/>
      <path d="M1013.12,992.34a5.24,5.24,0,1,0,5.24,5.24,5.25,5.25,0,0,0-5.24-5.24" transform="translate(-757.51 -598.23)" fill="#112a5a"/>
      <path d="M1026.52,1004.13a5.16,5.16,0,1,0,5.15,5.16,5.15,5.15,0,0,0-5.15-5.16" transform="translate(-757.51 -598.23)" fill="#112a5a"/>
      <path d="M1040.6,1013.16a7,7,0,0,0-6.11,3.57h12.22a7,7,0,0,0-6.11-3.57" transform="translate(-757.51 -598.23)" fill="#112a5a"/>
      <path d="M961.06,598.78h-8.75a5.2,5.2,0,0,0,8.75,0" transform="translate(-757.51 -598.23)" fill="#112a5a"/>
      <path d="M946.8,603.6a7.17,7.17,0,1,0,7.17,7.17,7.17,7.17,0,0,0-7.17-7.17" transform="translate(-757.51 -598.23)" fill="#112a5a"/>
      <path d="M937.76,620.9a5.2,5.2,0,1,0,5.19,5.2,5.2,5.2,0,0,0-5.19-5.2" transform="translate(-757.51 -598.23)" fill="#112a5a"/>
      <path d="M929.59,636.71a5.2,5.2,0,1,0,5.19,5.2,5.2,5.2,0,0,0-5.19-5.2" transform="translate(-757.51 -598.23)" fill="#112a5a"/>
      <path d="M922.32,651a7.18,7.18,0,1,0,7.17,7.17,7.17,7.17,0,0,0-7.17-7.17" transform="translate(-757.51 -598.23)" fill="#112a5a"/>
      <path d="M916,669.58a5.2,5.2,0,1,0,5.2,5.2,5.2,5.2,0,0,0-5.2-5.2" transform="translate(-757.51 -598.23)" fill="#112a5a"/>
      <path d="M910.57,684.55a7.18,7.18,0,1,0,7.17,7.18,7.18,7.18,0,0,0-7.17-7.18" transform="translate(-757.51 -598.23)" fill="#112a5a"/>
      <path d="M906.12,703.44a5.53,5.53,0,1,0,5.53,5.52,5.52,5.52,0,0,0-5.53-5.52" transform="translate(-757.51 -598.23)" fill="#112a5a"/>
      <path d="M902.65,720.89a5.53,5.53,0,1,0,5.53,5.53,5.53,5.53,0,0,0-5.53-5.53" transform="translate(-757.51 -598.23)" fill="#112a5a"/>
      <path d="M900.17,738.84a5.2,5.2,0,1,0,5.19,5.19,5.19,5.19,0,0,0-5.19-5.19" transform="translate(-757.51 -598.23)" fill="#112a5a"/>
      <path d="M898.67,756.57a5.2,5.2,0,1,0,5.19,5.2,5.2,5.2,0,0,0-5.19-5.2" transform="translate(-757.51 -598.23)" fill="#112a5a"/>
      <path d="M898.17,774.36a5.2,5.2,0,1,0,5.2,5.2,5.2,5.2,0,0,0-5.2-5.2" transform="translate(-757.51 -598.23)" fill="#112a5a"/>
      <path d="M898.67,790.17a7.18,7.18,0,1,0,7.18,7.17,7.18,7.18,0,0,0-7.18-7.17" transform="translate(-757.51 -598.23)" fill="#112a5a"/>
      <path d="M900.17,807.86a7.22,7.22,0,1,0,7.21,7.22,7.22,7.22,0,0,0-7.21-7.22" transform="translate(-757.51 -598.23)" fill="#112a5a"/>
      <path d="M902.65,827.17a5.53,5.53,0,1,0,5.53,5.52,5.52,5.52,0,0,0-5.53-5.52" transform="translate(-757.51 -598.23)" fill="#112a5a"/>
      <path d="M906.12,844.62a5.53,5.53,0,1,0,5.53,5.53,5.53,5.53,0,0,0-5.53-5.53" transform="translate(-757.51 -598.23)" fill="#112a5a"/>
      <path d="M910.57,860.16a7.22,7.22,0,1,0,7.22,7.22,7.23,7.23,0,0,0-7.22-7.22" transform="translate(-757.51 -598.23)" fill="#112a5a"/>
      <path d="M916,877.12a7.22,7.22,0,1,0,7.22,7.21,7.21,7.21,0,0,0-7.22-7.21" transform="translate(-757.51 -598.23)" fill="#112a5a"/>
      <path d="M922.32,893.79a7.18,7.18,0,1,0,7.17,7.17,7.17,7.17,0,0,0-7.17-7.17" transform="translate(-757.51 -598.23)" fill="#112a5a"/>
      <path d="M929.59,910a7.18,7.18,0,1,0,7.17,7.19,7.19,7.19,0,0,0-7.17-7.19" transform="translate(-757.51 -598.23)" fill="#112a5a"/>
      <path d="M937.76,925.84a7.18,7.18,0,1,0,7.17,7.17,7.17,7.17,0,0,0-7.17-7.17" transform="translate(-757.51 -598.23)" fill="#112a5a"/>
      <path d="M946.8,941.17a7.17,7.17,0,1,0,7.17,7.17,7.17,7.17,0,0,0-7.17-7.17" transform="translate(-757.51 -598.23)" fill="#112a5a"/>
      <path d="M956.68,955.92a7.22,7.22,0,1,0,7.21,7.22,7.21,7.21,0,0,0-7.21-7.22" transform="translate(-757.51 -598.23)" fill="#112a5a"/>
      <path d="M967.39,972a5.37,5.37,0,1,0,5.35,5.36,5.36,5.36,0,0,0-5.35-5.36" transform="translate(-757.51 -598.23)" fill="#112a5a"/>
      <path d="M978.86,983.77A7.18,7.18,0,1,0,986,991a7.18,7.18,0,0,0-7.18-7.18" transform="translate(-757.51 -598.23)" fill="#112a5a"/>
      <path d="M991.09,996.71a7.18,7.18,0,1,0,7.18,7.17,7.17,7.17,0,0,0-7.18-7.17" transform="translate(-757.51 -598.23)" fill="#112a5a"/>
      <path d="M1004,1010.87a5.25,5.25,0,0,0-5.24,5.24c0,.21,0,.42,0,.62h10.4c0-.2,0-.41,0-.62a5.25,5.25,0,0,0-5.24-5.24" transform="translate(-757.51 -598.23)" fill="#112a5a"/>
      <path d="M934.8,598.78h-7.2a3.63,3.63,0,0,0,7.2,0" transform="translate(-757.51 -598.23)" fill="#112a5a"/>
      <path d="M922,609.34a4.25,4.25,0,1,0,4.25,4.25,4.25,4.25,0,0,0-4.25-4.25" transform="translate(-757.51 -598.23)" fill="#112a5a"/>
      <path d="M913.68,625.68a3.63,3.63,0,1,0,3.63,3.63,3.63,3.63,0,0,0-3.63-3.63" transform="translate(-757.51 -598.23)" fill="#112a5a"/>
      <path d="M906.17,641.19a4.25,4.25,0,1,0,4.25,4.25,4.25,4.25,0,0,0-4.25-4.25" transform="translate(-757.51 -598.23)" fill="#112a5a"/>
      <path d="M899.52,658.53A3.42,3.42,0,1,0,903,662a3.42,3.42,0,0,0-3.43-3.42" transform="translate(-757.51 -598.23)" fill="#112a5a"/>
      <path d="M893.76,675.49a3.3,3.3,0,1,0,3.3,3.29,3.29,3.29,0,0,0-3.3-3.29" transform="translate(-757.51 -598.23)" fill="#112a5a"/>
      <path d="M888.88,691.65a4.25,4.25,0,1,0,4.25,4.25,4.24,4.24,0,0,0-4.25-4.25" transform="translate(-757.51 -598.23)" fill="#112a5a"/>
      <path d="M884.93,709a4.25,4.25,0,1,0,4.24,4.25,4.25,4.25,0,0,0-4.24-4.25" transform="translate(-757.51 -598.23)" fill="#112a5a"/>
      <path d="M881.89,726.54a4.25,4.25,0,1,0,4.24,4.24,4.24,4.24,0,0,0-4.24-4.24" transform="translate(-757.51 -598.23)" fill="#112a5a"/>
      <path d="M879.78,744.21a4.25,4.25,0,1,0,4.25,4.25,4.25,4.25,0,0,0-4.25-4.25" transform="translate(-757.51 -598.23)" fill="#112a5a"/>
      <path d="M878.6,762a4.25,4.25,0,1,0,4.25,4.25A4.26,4.26,0,0,0,878.6,762" transform="translate(-757.51 -598.23)" fill="#112a5a"/>
      <path d="M878.37,778.48A5.53,5.53,0,1,0,883.9,784a5.53,5.53,0,0,0-5.53-5.52" transform="translate(-757.51 -598.23)" fill="#112a5a"/>
      <path d="M879.07,796.26a5.53,5.53,0,1,0,5.53,5.53,5.52,5.52,0,0,0-5.53-5.53" transform="translate(-757.51 -598.23)" fill="#112a5a"/>
      <path d="M880.71,814a5.53,5.53,0,1,0,5.53,5.52,5.53,5.53,0,0,0-5.53-5.52" transform="translate(-757.51 -598.23)" fill="#112a5a"/>
      <path d="M883.29,831.63a5.49,5.49,0,1,0,5.49,5.48,5.48,5.48,0,0,0-5.49-5.48" transform="translate(-757.51 -598.23)" fill="#112a5a"/>
      <path d="M886.79,849.08a5.48,5.48,0,1,0,5.49,5.49,5.48,5.48,0,0,0-5.49-5.49" transform="translate(-757.51 -598.23)" fill="#112a5a"/>
      <path d="M891.21,867.59a4.21,4.21,0,1,0,4.2,4.21,4.21,4.21,0,0,0-4.2-4.21" transform="translate(-757.51 -598.23)" fill="#112a5a"/>
      <path d="M896.53,884.58a4.21,4.21,0,1,0,4.21,4.2,4.21,4.21,0,0,0-4.21-4.2" transform="translate(-757.51 -598.23)" fill="#112a5a"/>
      <path d="M902.74,900a5.44,5.44,0,1,0,5.44,5.44,5.45,5.45,0,0,0-5.44-5.44" transform="translate(-757.51 -598.23)" fill="#112a5a"/>
      <path d="M909.82,917.62a4.17,4.17,0,1,0,4.16,4.16,4.17,4.17,0,0,0-4.16-4.16" transform="translate(-757.51 -598.23)" fill="#112a5a"/>
      <path d="M917.75,933.55a4.17,4.17,0,1,0,4.17,4.16,4.17,4.17,0,0,0-4.17-4.16" transform="translate(-757.51 -598.23)" fill="#112a5a"/>
      <path d="M926.51,947.8a5.41,5.41,0,1,0,5.4,5.4,5.4,5.4,0,0,0-5.4-5.4" transform="translate(-757.51 -598.23)" fill="#112a5a"/>
      <path d="M936.08,964.09a4.12,4.12,0,1,0,4.12,4.12,4.12,4.12,0,0,0-4.12-4.12" transform="translate(-757.51 -598.23)" fill="#112a5a"/>
      <path d="M946.42,978.64a4,4,0,1,0,4,4.05,4.05,4.05,0,0,0-4-4.05" transform="translate(-757.51 -598.23)" fill="#112a5a"/>
      <path d="M957.52,992.56a4,4,0,1,0,4,4,4,4,0,0,0-4-4" transform="translate(-757.51 -598.23)" fill="#112a5a"/>
      <path d="M969.34,1006a4,4,0,1,0,3.95,4,4,4,0,0,0-3.95-4" transform="translate(-757.51 -598.23)" fill="#112a5a"/>
      <path d="M909.17,598.78h-5.68a3.67,3.67,0,0,0,2.84,6A3.67,3.67,0,0,0,910,601.1a3.63,3.63,0,0,0-.83-2.32" transform="translate(-757.51 -598.23)" fill="#112a5a"/>
      <path d="M897.82,613.06a3.67,3.67,0,1,0,3.67,3.67,3.67,3.67,0,0,0-3.67-3.67" transform="translate(-757.51 -598.23)" fill="#112a5a"/>
      <path d="M890.09,629.1a3.67,3.67,0,1,0,3.67,3.67,3.66,3.66,0,0,0-3.67-3.67" transform="translate(-757.51 -598.23)" fill="#112a5a"/>
      <path d="M883.18,645.74a3.43,3.43,0,1,0,3.42,3.43,3.43,3.43,0,0,0-3.42-3.43" transform="translate(-757.51 -598.23)" fill="#112a5a"/>
      <path d="M877.1,662.22a3.67,3.67,0,1,0,3.67,3.67,3.67,3.67,0,0,0-3.67-3.67" transform="translate(-757.51 -598.23)" fill="#112a5a"/>
      <path d="M871.85,678.73a4.17,4.17,0,1,0,4.17,4.16,4.17,4.17,0,0,0-4.17-4.16" transform="translate(-757.51 -598.23)" fill="#112a5a"/>
      <path d="M867.46,696a4.17,4.17,0,1,0,4.16,4.17,4.17,4.17,0,0,0-4.16-4.17" transform="translate(-757.51 -598.23)" fill="#112a5a"/>
      <path d="M863.93,712.39a5.19,5.19,0,1,0,5.2,5.19,5.19,5.19,0,0,0-5.2-5.19" transform="translate(-757.51 -598.23)" fill="#112a5a"/>
      <path d="M861.28,728a7.18,7.18,0,1,0,7.18,7.18,7.18,7.18,0,0,0-7.18-7.18" transform="translate(-757.51 -598.23)" fill="#112a5a"/>
      <path d="M859.51,745.71a7.18,7.18,0,1,0,7.18,7.18,7.17,7.17,0,0,0-7.18-7.18" transform="translate(-757.51 -598.23)" fill="#112a5a"/>
      <path d="M858.62,763.48a7.18,7.18,0,1,0,7.18,7.18,7.18,7.18,0,0,0-7.18-7.18" transform="translate(-757.51 -598.23)" fill="#112a5a"/>
      <path d="M858.62,781.28a7.18,7.18,0,1,0,7.18,7.17,7.17,7.17,0,0,0-7.18-7.17" transform="translate(-757.51 -598.23)" fill="#112a5a"/>
      <path d="M859.51,799.05a7.18,7.18,0,1,0,7.18,7.18,7.17,7.17,0,0,0-7.18-7.18" transform="translate(-757.51 -598.23)" fill="#112a5a"/>
      <path d="M861.28,816.76a7.18,7.18,0,1,0,7.18,7.17,7.17,7.17,0,0,0-7.18-7.17" transform="translate(-757.51 -598.23)" fill="#112a5a"/>
      <path d="M863.93,834.35a7.18,7.18,0,1,0,7.18,7.18,7.18,7.18,0,0,0-7.18-7.18" transform="translate(-757.51 -598.23)" fill="#112a5a"/>
      <path d="M867.46,851.8a7.18,7.18,0,1,0,7.18,7.18,7.19,7.19,0,0,0-7.18-7.18" transform="translate(-757.51 -598.23)" fill="#112a5a"/>
      <path d="M871.85,871a5.2,5.2,0,1,0,5.2,5.2,5.19,5.19,0,0,0-5.2-5.2" transform="translate(-757.51 -598.23)" fill="#112a5a"/>
      <path d="M877.1,888a5.2,5.2,0,1,0,5.19,5.19A5.19,5.19,0,0,0,877.1,888" transform="translate(-757.51 -598.23)" fill="#112a5a"/>
      <path d="M883.18,904.75a5.2,5.2,0,1,0,5.2,5.2,5.2,5.2,0,0,0-5.2-5.2" transform="translate(-757.51 -598.23)" fill="#112a5a"/>
      <path d="M890.09,921.35a5,5,0,1,0,5,5,5,5,0,0,0-5-5" transform="translate(-757.51 -598.23)" fill="#112a5a"/>
      <path d="M897.82,937.43a5,5,0,1,0,4.95,5,4.95,4.95,0,0,0-4.95-5" transform="translate(-757.51 -598.23)" fill="#112a5a"/>
      <path d="M906.33,952.85a5.16,5.16,0,1,0,5.16,5.16,5.16,5.16,0,0,0-5.16-5.16" transform="translate(-757.51 -598.23)" fill="#112a5a"/>
      <path d="M915.61,968a5.2,5.2,0,1,0,5.2,5.2,5.2,5.2,0,0,0-5.2-5.2" transform="translate(-757.51 -598.23)" fill="#112a5a"/>
      <path d="M925.63,982.74a5.16,5.16,0,1,0,5.16,5.15,5.16,5.16,0,0,0-5.16-5.15" transform="translate(-757.51 -598.23)" fill="#112a5a"/>
      <path d="M936.38,996.93a5.16,5.16,0,1,0,5.15,5.15,5.16,5.16,0,0,0-5.15-5.15" transform="translate(-757.51 -598.23)" fill="#112a5a"/>
      <path d="M947.81,1010.56a5.16,5.16,0,0,0-5.15,5.16,5.67,5.67,0,0,0,.1,1h10.11a4.87,4.87,0,0,0,.1-1,5.15,5.15,0,0,0-5.16-5.16" transform="translate(-757.51 -598.23)" fill="#112a5a"/>
      <path d="M882,600.51a3.67,3.67,0,1,0,3.67,3.66,3.66,3.66,0,0,0-3.67-3.66" transform="translate(-757.51 -598.23)" fill="#112a5a"/>
      <path d="M874.09,612.94a7.18,7.18,0,1,0,7.17,7.18,7.17,7.17,0,0,0-7.17-7.18" transform="translate(-757.51 -598.23)" fill="#112a5a"/>
      <path d="M866.94,631.22a5.2,5.2,0,1,0,5.2,5.19,5.2,5.2,0,0,0-5.2-5.19" transform="translate(-757.51 -598.23)" fill="#112a5a"/>
      <path d="M860.56,646.27a6.77,6.77,0,1,0,6.77,6.76,6.76,6.76,0,0,0-6.77-6.76" transform="translate(-757.51 -598.23)" fill="#112a5a"/>
      <path d="M855,663.16a6.77,6.77,0,1,0,6.77,6.77,6.76,6.76,0,0,0-6.77-6.77" transform="translate(-757.51 -598.23)" fill="#112a5a"/>
      <path d="M850.21,679.9a7.18,7.18,0,1,0,7.18,7.17,7.17,7.17,0,0,0-7.18-7.17" transform="translate(-757.51 -598.23)" fill="#112a5a"/>
      <path d="M846.25,697.25a7.18,7.18,0,1,0,7.18,7.18,7.17,7.17,0,0,0-7.18-7.18" transform="translate(-757.51 -598.23)" fill="#112a5a"/>
      <path d="M843.12,714.77a7.17,7.17,0,1,0,7.17,7.17,7.17,7.17,0,0,0-7.17-7.17" transform="translate(-757.51 -598.23)" fill="#112a5a"/>
      <path d="M840.81,732.41a7.18,7.18,0,1,0,7.18,7.18,7.17,7.17,0,0,0-7.18-7.18" transform="translate(-757.51 -598.23)" fill="#112a5a"/>
      <path d="M839.34,751.13a6.19,6.19,0,1,0,6.19,6.19,6.19,6.19,0,0,0-6.19-6.19" transform="translate(-757.51 -598.23)" fill="#112a5a"/>
      <path d="M838.71,768.92a6.19,6.19,0,1,0,6.19,6.19,6.19,6.19,0,0,0-6.19-6.19" transform="translate(-757.51 -598.23)" fill="#112a5a"/>
      <path d="M838.92,786.71a6.19,6.19,0,1,0,6.19,6.19,6.19,6.19,0,0,0-6.19-6.19" transform="translate(-757.51 -598.23)" fill="#112a5a"/>
      <path d="M840,803.49a7.18,7.18,0,1,0,7.17,7.18,7.17,7.17,0,0,0-7.17-7.18" transform="translate(-757.51 -598.23)" fill="#112a5a"/>
      <path d="M841.86,821.18a7.18,7.18,0,1,0,7.17,7.18,7.18,7.18,0,0,0-7.17-7.18" transform="translate(-757.51 -598.23)" fill="#112a5a"/>
      <path d="M844.58,838.77a7.18,7.18,0,1,0,7.18,7.18,7.19,7.19,0,0,0-7.18-7.18" transform="translate(-757.51 -598.23)" fill="#112a5a"/>
      <path d="M848.13,856.17a7.22,7.22,0,1,0,7.22,7.22,7.22,7.22,0,0,0-7.22-7.22" transform="translate(-757.51 -598.23)" fill="#112a5a"/>
      <path d="M852.5,873.46a7.18,7.18,0,1,0,7.18,7.18,7.19,7.19,0,0,0-7.18-7.18" transform="translate(-757.51 -598.23)" fill="#112a5a"/>
      <path d="M857.68,890.49a7.18,7.18,0,1,0,7.17,7.17,7.17,7.17,0,0,0-7.17-7.17" transform="translate(-757.51 -598.23)" fill="#112a5a"/>
      <path d="M863.66,909.23a5.2,5.2,0,1,0,5.19,5.19,5.2,5.2,0,0,0-5.19-5.19" transform="translate(-757.51 -598.23)" fill="#112a5a"/>
      <path d="M870.41,924.08a6.81,6.81,0,1,0,6.81,6.81,6.81,6.81,0,0,0-6.81-6.81" transform="translate(-757.51 -598.23)" fill="#112a5a"/>
      <path d="M877.94,941.52a5.49,5.49,0,1,0,5.49,5.49,5.48,5.48,0,0,0-5.49-5.49" transform="translate(-757.51 -598.23)" fill="#112a5a"/>
      <path d="M886.23,957.61a5.15,5.15,0,1,0,5.15,5.15,5.14,5.14,0,0,0-5.15-5.15" transform="translate(-757.51 -598.23)" fill="#112a5a"/>
      <path d="M895.25,973a5.16,5.16,0,1,0,5.16,5.15,5.16,5.16,0,0,0-5.16-5.15" transform="translate(-757.51 -598.23)" fill="#112a5a"/>
      <path d="M905,988.84a4.17,4.17,0,1,0,4.16,4.16,4.17,4.17,0,0,0-4.16-4.16" transform="translate(-757.51 -598.23)" fill="#112a5a"/>
      <path d="M915.41,1002.22a5.2,5.2,0,1,0,5.2,5.2,5.2,5.2,0,0,0-5.2-5.2" transform="translate(-757.51 -598.23)" fill="#112a5a"/>
      <path d="M926.51,1016.18a5.19,5.19,0,0,0-2.33.55h4.65a5.18,5.18,0,0,0-2.32-.55" transform="translate(-757.51 -598.23)" fill="#112a5a"/>
      <path d="M867,598.78h-1.49c.25,0,.49,0,.75,0s.5,0,.74,0" transform="translate(-757.51 -598.23)" fill="#112a5a"/>
      <path d="M858.13,600.32a7.18,7.18,0,1,0,7.17,7.18,7.18,7.18,0,0,0-7.17-7.18" transform="translate(-757.51 -598.23)" fill="#112a5a"/>
      <path d="M850.77,616.52a7.18,7.18,0,1,0,7.17,7.18,7.18,7.18,0,0,0-7.17-7.18" transform="translate(-757.51 -598.23)" fill="#112a5a"/>
      <path d="M844.15,633a7.18,7.18,0,1,0,7.17,7.18,7.17,7.17,0,0,0-7.17-7.18" transform="translate(-757.51 -598.23)" fill="#112a5a"/>
      <path d="M838.26,651.49a5.53,5.53,0,1,0,5.53,5.52,5.52,5.52,0,0,0-5.53-5.52" transform="translate(-757.51 -598.23)" fill="#112a5a"/>
      <path d="M833.15,667.29a6.77,6.77,0,1,0,6.76,6.77,6.78,6.78,0,0,0-6.76-6.77" transform="translate(-757.51 -598.23)" fill="#112a5a"/>
      <path d="M828.8,684.55a6.77,6.77,0,1,0,6.76,6.76,6.77,6.77,0,0,0-6.76-6.76" transform="translate(-757.51 -598.23)" fill="#112a5a"/>
      <path d="M825.23,701.57a7.18,7.18,0,1,0,7.18,7.18,7.19,7.19,0,0,0-7.18-7.18" transform="translate(-757.51 -598.23)" fill="#112a5a"/>
      <path d="M822.44,719.15a7.18,7.18,0,1,0,7.18,7.17,7.17,7.17,0,0,0-7.18-7.17" transform="translate(-757.51 -598.23)" fill="#112a5a"/>
      <path d="M820.45,737.82a6.19,6.19,0,1,0,6.19,6.19,6.19,6.19,0,0,0-6.19-6.19" transform="translate(-757.51 -598.23)" fill="#112a5a"/>
      <path d="M819.26,755.58a6.19,6.19,0,1,0,6.18,6.18,6.19,6.19,0,0,0-6.18-6.18" transform="translate(-757.51 -598.23)" fill="#112a5a"/>
      <path d="M818.86,773.37a6.19,6.19,0,1,0,6.19,6.19,6.19,6.19,0,0,0-6.19-6.19" transform="translate(-757.51 -598.23)" fill="#112a5a"/>
      <path d="M819.26,791.16a6.19,6.19,0,1,0,6.18,6.19,6.19,6.19,0,0,0-6.18-6.19" transform="translate(-757.51 -598.23)" fill="#112a5a"/>
      <path d="M820.45,807.93a7.18,7.18,0,1,0,7.18,7.18,7.17,7.17,0,0,0-7.18-7.18" transform="translate(-757.51 -598.23)" fill="#112a5a"/>
      <path d="M822.44,825.61a7.18,7.18,0,1,0,7.18,7.18,7.18,7.18,0,0,0-7.18-7.18" transform="translate(-757.51 -598.23)" fill="#112a5a"/>
      <path d="M825.23,843.19a7.18,7.18,0,1,0,7.18,7.17,7.18,7.18,0,0,0-7.18-7.17" transform="translate(-757.51 -598.23)" fill="#112a5a"/>
      <path d="M828.8,860.62A7.18,7.18,0,1,0,836,867.8a7.19,7.19,0,0,0-7.18-7.18" transform="translate(-757.51 -598.23)" fill="#112a5a"/>
      <path d="M833.15,877.84a7.22,7.22,0,1,0,7.22,7.21,7.21,7.21,0,0,0-7.22-7.21" transform="translate(-757.51 -598.23)" fill="#112a5a"/>
      <path d="M838.26,895.33A6.77,6.77,0,1,0,845,902.1a6.77,6.77,0,0,0-6.77-6.77" transform="translate(-757.51 -598.23)" fill="#112a5a"/>
      <path d="M844.15,912.14a6.76,6.76,0,1,0,6.76,6.75,6.76,6.76,0,0,0-6.76-6.75" transform="translate(-757.51 -598.23)" fill="#112a5a"/>
      <path d="M850.77,929.89a5.53,5.53,0,1,0,5.53,5.52,5.53,5.53,0,0,0-5.53-5.52" transform="translate(-757.51 -598.23)" fill="#112a5a"/>
      <path d="M858.13,946.09a5.53,5.53,0,1,0,5.53,5.53,5.53,5.53,0,0,0-5.53-5.53" transform="translate(-757.51 -598.23)" fill="#112a5a"/>
      <path d="M866.21,963.27a4.21,4.21,0,1,0,4.2,4.2,4.21,4.21,0,0,0-4.2-4.2" transform="translate(-757.51 -598.23)" fill="#112a5a"/>
      <path d="M875,978a5,5,0,1,0,5,5,4.95,4.95,0,0,0-5-5" transform="translate(-757.51 -598.23)" fill="#112a5a"/>
      <path d="M884.46,992.86a5.16,5.16,0,1,0,5.16,5.16,5.17,5.17,0,0,0-5.16-5.16" transform="translate(-757.51 -598.23)" fill="#112a5a"/>
      <path d="M894.59,1007.69a5,5,0,0,0-2.79,9h5.59a5,5,0,0,0-2.8-9" transform="translate(-757.51 -598.23)" fill="#112a5a"/>
      <path d="M848.25,598.78H836.18a7.18,7.18,0,0,0,12.07,0" transform="translate(-757.51 -598.23)" fill="#112a5a"/>
      <path d="M834.67,605.49a5.53,5.53,0,1,0,5.52,5.52,5.52,5.52,0,0,0-5.52-5.52" transform="translate(-757.51 -598.23)" fill="#112a5a"/>
      <path d="M827.82,620.26a7.18,7.18,0,1,0,7.17,7.17,7.18,7.18,0,0,0-7.17-7.17" transform="translate(-757.51 -598.23)" fill="#112a5a"/>
      <path d="M821.66,638.61a5.53,5.53,0,1,0,5.53,5.52,5.53,5.53,0,0,0-5.53-5.52" transform="translate(-757.51 -598.23)" fill="#112a5a"/>
      <path d="M816.24,655.55a5.53,5.53,0,1,0,5.53,5.53,5.54,5.54,0,0,0-5.53-5.53" transform="translate(-757.51 -598.23)" fill="#112a5a"/>
      <path d="M811.55,672.72a5.53,5.53,0,1,0,5.51,5.53,5.52,5.52,0,0,0-5.51-5.53" transform="translate(-757.51 -598.23)" fill="#112a5a"/>
      <path d="M807.58,688.42a7.18,7.18,0,1,0,7.18,7.18,7.19,7.19,0,0,0-7.18-7.18" transform="translate(-757.51 -598.23)" fill="#112a5a"/>
      <path d="M804.36,706.91a6.19,6.19,0,1,0,6.19,6.19,6.19,6.19,0,0,0-6.19-6.19" transform="translate(-757.51 -598.23)" fill="#112a5a"/>
      <path d="M801.9,725.2a5.53,5.53,0,1,0,5.53,5.53,5.53,5.53,0,0,0-5.53-5.53" transform="translate(-757.51 -598.23)" fill="#112a5a"/>
      <path d="M800.2,742.91a5.53,5.53,0,1,0,5.52,5.53,5.52,5.52,0,0,0-5.52-5.53" transform="translate(-757.51 -598.23)" fill="#112a5a"/>
      <path d="M799.24,760.69a5.52,5.52,0,1,0,5.53,5.52,5.52,5.52,0,0,0-5.53-5.52" transform="translate(-757.51 -598.23)" fill="#112a5a"/>
      <path d="M799.05,778.48a5.53,5.53,0,1,0,5.53,5.52,5.52,5.52,0,0,0-5.53-5.52" transform="translate(-757.51 -598.23)" fill="#112a5a"/>
      <path d="M799.62,796.27a5.53,5.53,0,1,0,5.53,5.52,5.52,5.52,0,0,0-5.53-5.52" transform="translate(-757.51 -598.23)" fill="#112a5a"/>
      <path d="M801,814a5.53,5.53,0,1,0,5.52,5.53A5.52,5.52,0,0,0,801,814" transform="translate(-757.51 -598.23)" fill="#112a5a"/>
      <path d="M803,830a7.18,7.18,0,1,0,7.17,7.17A7.17,7.17,0,0,0,803,830" transform="translate(-757.51 -598.23)" fill="#112a5a"/>
      <path d="M805.88,848.59a6.19,6.19,0,1,0,6.19,6.19,6.19,6.19,0,0,0-6.19-6.19" transform="translate(-757.51 -598.23)" fill="#112a5a"/>
      <path d="M809.47,864.66a7.55,7.55,0,1,0,7.55,7.55,7.55,7.55,0,0,0-7.55-7.55" transform="translate(-757.51 -598.23)" fill="#112a5a"/>
      <path d="M813.8,883.29a6.19,6.19,0,1,0,6.18,6.18,6.19,6.19,0,0,0-6.18-6.18" transform="translate(-757.51 -598.23)" fill="#112a5a"/>
      <path d="M818.86,901a5.53,5.53,0,1,0,5.53,5.53,5.54,5.54,0,0,0-5.53-5.53" transform="translate(-757.51 -598.23)" fill="#112a5a"/>
      <path d="M824.65,915.49a7.88,7.88,0,1,0,7.88,7.87,7.87,7.87,0,0,0-7.88-7.87" transform="translate(-757.51 -598.23)" fill="#112a5a"/>
      <path d="M831.15,934.4a5.53,5.53,0,1,0,5.53,5.52,5.53,5.53,0,0,0-5.53-5.52" transform="translate(-757.51 -598.23)" fill="#112a5a"/>
      <path d="M838.36,950.67a5.53,5.53,0,1,0,5.52,5.53,5.54,5.54,0,0,0-5.52-5.53" transform="translate(-757.51 -598.23)" fill="#112a5a"/>
      <path d="M846.25,966.66a5.49,5.49,0,1,0,5.48,5.49,5.49,5.49,0,0,0-5.48-5.49" transform="translate(-757.51 -598.23)" fill="#112a5a"/>
      <path d="M854.82,982.26a5.49,5.49,0,1,0,5.48,5.49,5.49,5.49,0,0,0-5.48-5.49" transform="translate(-757.51 -598.23)" fill="#112a5a"/>
      <path d="M864,995.05A7.92,7.92,0,1,0,872,1003a7.92,7.92,0,0,0-7.92-7.92" transform="translate(-757.51 -598.23)" fill="#112a5a"/>
      <path d="M873.9,1009.86a7.91,7.91,0,0,0-7.84,6.87h15.69a7.91,7.91,0,0,0-7.85-6.87" transform="translate(-757.51 -598.23)" fill="#112a5a"/>
      <path d="M824.13,598.78h-11a5.53,5.53,0,0,0,11,0" transform="translate(-757.51 -598.23)" fill="#112a5a"/>
      <path d="M811.56,609.16a5.53,5.53,0,1,0,5.53,5.52,5.53,5.53,0,0,0-5.53-5.52" transform="translate(-757.51 -598.23)" fill="#112a5a"/>
      <path d="M805.17,625.76a5.53,5.53,0,1,0,5.53,5.53,5.54,5.54,0,0,0-5.53-5.53" transform="translate(-757.51 -598.23)" fill="#112a5a"/>
      <path d="M799.46,642.62a5.53,5.53,0,1,0,5.53,5.53,5.53,5.53,0,0,0-5.53-5.53" transform="translate(-757.51 -598.23)" fill="#112a5a"/>
      <path d="M794.45,659.69a5.53,5.53,0,1,0,5.52,5.53,5.53,5.53,0,0,0-5.52-5.53" transform="translate(-757.51 -598.23)" fill="#112a5a"/>
      <path d="M790.14,677a5.53,5.53,0,1,0,5.52,5.53,5.54,5.54,0,0,0-5.52-5.53" transform="translate(-757.51 -598.23)" fill="#112a5a"/>
      <path d="M786.53,694.39a5.53,5.53,0,1,0,5.53,5.52,5.52,5.52,0,0,0-5.53-5.52" transform="translate(-757.51 -598.23)" fill="#112a5a"/>
      <path d="M783.64,712a5.53,5.53,0,1,0,5.53,5.52,5.52,5.52,0,0,0-5.53-5.52" transform="translate(-757.51 -598.23)" fill="#112a5a"/>
      <path d="M781.47,729.61a5.53,5.53,0,1,0,5.53,5.53,5.53,5.53,0,0,0-5.53-5.53" transform="translate(-757.51 -598.23)" fill="#112a5a"/>
      <path d="M780,747.35a5.53,5.53,0,1,0,5.53,5.52,5.53,5.53,0,0,0-5.53-5.52" transform="translate(-757.51 -598.23)" fill="#112a5a"/>
      <path d="M779.29,765.13a5.53,5.53,0,1,0,5.53,5.53,5.53,5.53,0,0,0-5.53-5.53" transform="translate(-757.51 -598.23)" fill="#112a5a"/>
      <path d="M779.29,782.93a5.53,5.53,0,1,0,5.53,5.52,5.52,5.52,0,0,0-5.53-5.52" transform="translate(-757.51 -598.23)" fill="#112a5a"/>
      <path d="M780,800.71a5.53,5.53,0,1,0,5.53,5.53,5.53,5.53,0,0,0-5.53-5.53" transform="translate(-757.51 -598.23)" fill="#112a5a"/>
      <path d="M781.47,818.45A5.53,5.53,0,1,0,787,824a5.52,5.52,0,0,0-5.53-5.52" transform="translate(-757.51 -598.23)" fill="#112a5a"/>
      <path d="M783.64,836.11a5.53,5.53,0,1,0,5.53,5.52,5.52,5.52,0,0,0-5.53-5.52" transform="translate(-757.51 -598.23)" fill="#112a5a"/>
      <path d="M786.53,853.67a5.53,5.53,0,1,0,5.53,5.53,5.52,5.52,0,0,0-5.53-5.53" transform="translate(-757.51 -598.23)" fill="#112a5a"/>
      <path d="M790.14,871.1a5.53,5.53,0,1,0,5.52,5.52,5.53,5.53,0,0,0-5.52-5.52" transform="translate(-757.51 -598.23)" fill="#112a5a"/>
      <path d="M794.45,888.32a5.57,5.57,0,1,0,5.57,5.57,5.57,5.57,0,0,0-5.57-5.57" transform="translate(-757.51 -598.23)" fill="#112a5a"/>
      <path d="M799.46,905.44A5.53,5.53,0,1,0,805,911a5.52,5.52,0,0,0-5.53-5.53" transform="translate(-757.51 -598.23)" fill="#112a5a"/>
      <path d="M805.17,921.68a6.15,6.15,0,1,0,6.15,6.14,6.14,6.14,0,0,0-6.15-6.14" transform="translate(-757.51 -598.23)" fill="#112a5a"/>
      <path d="M811.56,938.28a6.15,6.15,0,1,0,6.14,6.15,6.16,6.16,0,0,0-6.14-6.15" transform="translate(-757.51 -598.23)" fill="#112a5a"/>
      <path d="M818.62,955.24a5.53,5.53,0,1,0,5.52,5.53,5.52,5.52,0,0,0-5.52-5.53" transform="translate(-757.51 -598.23)" fill="#112a5a"/>
      <path d="M826.34,971.28a5.53,5.53,0,1,0,5.53,5.52,5.52,5.52,0,0,0-5.53-5.52" transform="translate(-757.51 -598.23)" fill="#112a5a"/>
      <path d="M834.71,987a5.49,5.49,0,1,0,5.49,5.49,5.48,5.48,0,0,0-5.49-5.49" transform="translate(-757.51 -598.23)" fill="#112a5a"/>
      <path d="M843.72,1002.41a5.45,5.45,0,1,0,5.43,5.45,5.45,5.45,0,0,0-5.43-5.45" transform="translate(-757.51 -598.23)" fill="#112a5a"/>
      <path d="M777.5,646.71a5.53,5.53,0,1,0,5.53,5.53,5.53,5.53,0,0,0-5.53-5.53" transform="translate(-757.51 -598.23)" fill="#112a5a"/>
      <path d="M772.87,663.9a5.53,5.53,0,1,0,5.53,5.52,5.52,5.52,0,0,0-5.53-5.52" transform="translate(-757.51 -598.23)" fill="#112a5a"/>
      <path d="M768.91,681.24a5.53,5.53,0,1,0,5.53,5.53,5.54,5.54,0,0,0-5.53-5.53" transform="translate(-757.51 -598.23)" fill="#112a5a"/>
      <path d="M765.63,698.74a5.53,5.53,0,1,0,5.53,5.52,5.53,5.53,0,0,0-5.53-5.52" transform="translate(-757.51 -598.23)" fill="#112a5a"/>
      <path d="M763,716.34a5.53,5.53,0,1,0,5.52,5.53,5.53,5.53,0,0,0-5.52-5.53" transform="translate(-757.51 -598.23)" fill="#112a5a"/>
      <path d="M764.25,840.53a5.53,5.53,0,1,0,5.52,5.53,5.53,5.53,0,0,0-5.52-5.53" transform="translate(-757.51 -598.23)" fill="#112a5a"/>
      <path d="M767.19,858.09a5.52,5.52,0,1,0,5.52,5.52,5.53,5.53,0,0,0-5.52-5.52" transform="translate(-757.51 -598.23)" fill="#112a5a"/>
      <path d="M770.81,875.47a5.57,5.57,0,1,0,5.56,5.56,5.57,5.57,0,0,0-5.56-5.56" transform="translate(-757.51 -598.23)" fill="#112a5a"/>
      <path d="M775.1,892.74a5.57,5.57,0,1,0,5.57,5.57,5.56,5.56,0,0,0-5.57-5.57" transform="translate(-757.51 -598.23)" fill="#112a5a"/>
      <path d="M780.07,909.86a5.53,5.53,0,1,0,5.53,5.53,5.53,5.53,0,0,0-5.53-5.53" transform="translate(-757.51 -598.23)" fill="#112a5a"/>
      <path d="M823.47,1007.21a5.48,5.48,0,0,0-3.71,9.52h7.42a5.48,5.48,0,0,0-3.71-9.52" transform="translate(-757.51 -598.23)" fill="#112a5a"/>
      <path d="M861.28,816.76a7.18,7.18,0,1,1-7.17,7.17A7.18,7.18,0,0,1,861.28,816.76Z" transform="translate(-757.51 -598.23)" fill="#164595"/>
      <line x1="280.46" y1="342.3" x2="195.65" y2="419.68" fill="none" stroke="#164595" stroke-miterlimit="10" stroke-width="1.5"/>
      <line x1="103.06" y1="225.52" x2="219.56" y2="213.05" fill="none" stroke="#164595" stroke-miterlimit="10" stroke-width="1.5"/>
      <line x1="305.71" y1="419.68" x2="331.99" y2="379.77" fill="none" stroke="#164595" stroke-miterlimit="10" stroke-width="1.5"/>
      <path d="M1232.09,695.55a97.94,97.94,0,1,0-28.57,191.62c13.46,0,17.28-1.43,29-6.34" transform="translate(-757.51 -598.23)" fill="#052245"/>
      <path d="M1204.41,690.4a39.49,39.49,0,0,0-10,1.33c3-.27,6-.42,9.12-.42a97.67,97.67,0,0,1,12,.74,39.62,39.62,0,0,0-11.15-1.65" transform="translate(-757.51 -598.23)" fill="#13336e"/>
      <path d="M1180.18,700.29c-1.57,0-3.13.06-4.68.16-5.75,3.53-11.24,7.38-16.66,10.51-5.69,3.29-12,6.28-18,9.62-.66,1-1.31,2.06-1.94,3.13-.17.28-.34.57-.5.86,6.95-4.13,14.61-7.63,21.57-11.66,6.67-3.86,13.3-8.67,20.22-12.62m48.27-.11q1.74,1,3.45,2v-2c-1.14,0-2.29-.07-3.45-.08m-24.93-8.87c-3.08,0-6.12.15-9.12.42a62.35,62.35,0,0,0-14.28,6l-.55.31,1.66,0c1,0,2,0,3.07,0,6.36-3.2,13-5.42,20.11-5.42h0c7.06,0,13.61,2.17,19.9,5.32,1.12,0,2.24,0,3.36,0h1.37l-.35-.19a63.68,63.68,0,0,0-13.14-5.69,97.67,97.67,0,0,0-12-.74" transform="translate(-757.51 -598.23)" fill="#0e346d"/>
      <path d="M1122.47,734.26a36.7,36.7,0,0,0-4.25,5.88,35.77,35.77,0,0,0-2.94,6.58,97.34,97.34,0,0,1,7.19-12.46" transform="translate(-757.51 -598.23)" fill="#13336e"/>
      <path d="M1114.89,766c-.29.5-.57,1-.84,1.51-.48.87-.94,1.75-1.38,2.63.13,6.59.6,13.29.6,19.79s-.48,13.41-.61,20.11c.46.91.95,1.82,1.45,2.72.25.46.51.93.78,1.39,0-.39,0-.78,0-1.16,0-7.52.64-15.36.64-23.06s-.64-15.55-.63-23.06c0-.29,0-.58,0-.87m21.84-43.05-.27.17a58.67,58.67,0,0,0-14,11.16,97.34,97.34,0,0,0-7.19,12.46c-2,5.86-2.56,12.18-2.64,18.66.77-1.38,1.57-2.74,2.38-4.09.4-7.28,1.72-14.1,5.15-20s8.44-10.35,14.26-14.22q1.11-2.09,2.3-4.12" transform="translate(-757.51 -598.23)" fill="#0e346d"/>
      <path d="M1114.28,829.64a37.74,37.74,0,0,0,3.94,10,39.25,39.25,0,0,0,7.87,9.54,98.25,98.25,0,0,1-11.81-19.57" transform="translate(-757.51 -598.23)" fill="#13336e"/>
      <path d="M1231.9,877.59c-1.07.66-2.14,1.3-3.22,1.92,1.08,0,2.15,0,3.22-.09v-1.83m-92.73-21.88c.32.54.64,1.08,1,1.61.5.8,1,1.59,1.51,2.37,5.78,3.16,11.75,6,17.19,9.17s11,7.06,16.84,10.61c1.54.09,3.09.14,4.66.15-7-4-13.65-8.82-20.38-12.71s-14-7.27-20.79-11.2m-26.53-41a67.5,67.5,0,0,0,1.64,14.9,98.25,98.25,0,0,0,11.81,19.57,67.92,67.92,0,0,0,10.37,7.51l1.07.64q-1.21-2-2.37-4.11c-6.13-4-11.46-8.6-15-14.7-3.39-5.85-4.72-12.57-5.13-19.75q-1.24-2-2.4-4.06" transform="translate(-757.51 -598.23)" fill="#0e346d"/>
      <path d="M1222,885.44a99.27,99.27,0,0,1-33.84.53,42.81,42.81,0,0,0,16.29,3.45,43.7,43.7,0,0,0,17.55-4" transform="translate(-757.51 -598.23)" fill="#13336e"/>
      <path d="M1224.55,881.73c-6.36,3.21-13,5.44-20.14,5.44h0c-7.08,0-13.64-2.18-19.94-5.34-1.11,0-2.23,0-3.34,0h-1.39l.38.21a75.64,75.64,0,0,0,8,3.89,99.27,99.27,0,0,0,33.84-.53c2.3-1,4.54-2.14,6.74-3.36l.58-.33-1.69,0c-1,0-2,0-3,0" transform="translate(-757.51 -598.23)" fill="#0e346d"/>
      <path d="M1231.9,598.78h-82.45c-83.07,23.84-143.86,100.38-143.86,191.12,0,109.81,89,198.82,198.82,198.82a199.35,199.35,0,0,0,27.49-1.89V921.16a134.08,134.08,0,1,1,0-262.52V598.78" transform="translate(-757.51 -598.23)" fill="#13336e"/>
      <path id="endring-purple-back" d="M1064.93,983.75a237.7,237.7,0,0,1-97.81-192.37A237.76,237.76,0,0,1,978.33,719l.69-2.16,24.92,8.14-.67,2.13a210.63,210.63,0,0,0,78,234l1.83,1.32-16.3,22.6Z" transform="translate(-757.51 -598.23)" fill="#904098" fill-opacity="0.5"/>
      <path id="endring-purple" d="M1064.93,983.75a237.7,237.7,0,0,1-97.81-192.37A237.76,237.76,0,0,1,978.33,719l.69-2.16,24.92,8.14-.67,2.13a210.63,210.63,0,0,0,78,234l1.83,1.32-16.3,22.6Z" transform="translate(-757.51 -598.23)" fill="#904098"/>
      <path d="M980.47,719.7l20.65,6.75A213.22,213.22,0,0,0,1079.91,963l-13.66,18.93A236.16,236.16,0,0,1,980.47,719.7M977.56,714l-1.38,4.32a240.24,240.24,0,0,0,87.42,267.24l3.66,2.68,2.65-3.68,13.66-18.94,2.63-3.65-3.65-2.64a210.25,210.25,0,0,1-63-72.65,207.39,207.39,0,0,1-17.48-46,209.74,209.74,0,0,1,3.35-112.9l1.34-4.25-4.24-1.38-20.65-6.75Z" transform="translate(-757.51 -598.23)" fill="#052245"/>
      <path id="endring-red-back" d="M1130.16,1016.62l101.7.64V998.6c-43.78,8.11-113.33-11.46-149.34-37.43l-1.83-1.32-16.29,22.58,1.81,1.32c19.75,14.42,36.92,22.57,64,32.87" transform="translate(-757.51 -598.23)" fill="#e85342" opacity="0.5"/>
      <path id="endring-red" d="M1130.16,1016.62l101.7.64V998.6c-43.78,8.11-113.33-11.46-149.34-37.43l-1.83-1.32-16.29,22.58,1.81,1.32c19.75,14.42,36.92,22.57,64,32.87" transform="translate(-757.51 -598.23)" fill="#e85342"/>
      <path d="M1131.45,1016.62c-21.9-7.08-47-21.39-65.2-34.69L1079.91,963c35,25.24,97.24,45.25,151.95,40.75l-.65,12.87h-99.76m100.41-18c-43.4,7.53-113.69-13.57-149.31-39.26l-3.65-2.63-2.64,3.65L1062.6,979.3l-2.62,3.63,3.62,2.64c15.76,11.51,34,24.25,52.4,31.69l115.21.36" transform="translate(-757.51 -598.23)" fill="#052245"/>
      <rect x="471.77" y="405.65" width="2.57" height="13.39" fill="#e85342"/>
      <polyline points="474.35 418.28 474.35 420 374.9 419.14 373.3 417.43" fill="#e85342"/>
      <path id="endring-green-back" d="M1117.26,598.3a211.39,211.39,0,0,0-114,128.83l-.68,2.17-24.94-8.15.68-2.13a236.58,236.58,0,0,1,33.17-66.08,239.08,239.08,0,0,1,51.2-52.28c.85-.64,1.71-1.27,2.57-1.9" transform="translate(-757.51 -598.23)" fill="#4da621" opacity="0.5"/>
      <path id="endring-green" d="M1117.26,598.3a211.39,211.39,0,0,0-114,128.83l-.68,2.17-24.94-8.15.68-2.13a236.58,236.58,0,0,1,33.17-66.08,239.08,239.08,0,0,1,51.2-52.28c.85-.64,1.71-1.27,2.57-1.9" transform="translate(-757.51 -598.23)" fill="#4da621"/>
      <path d="M1144.69,867.55a39.64,39.64,0,0,0,10.38,8.79,41.37,41.37,0,0,0,14.45,4.77,97.72,97.72,0,0,1-24.83-13.56m-38.83-85.69a37.75,37.75,0,0,0-1,8.39v.14h0a37.37,37.37,0,0,0,1.24,9.15,100,100,0,0,1-.53-10.3q0-3.72.27-7.38m56.08-81.31a39,39,0,0,0-7.71,3.42,38.63,38.63,0,0,0-6.43,4.73,97.94,97.94,0,0,1,14.14-8.15" transform="translate(-757.51 -598.23)" fill="#13336e"/>
      <path d="M1227.68,697.93c-1.12,0-2.24,0-3.36,0-6.89.16-13.8.75-20.37.77h-.44c-6.12,0-12.64-.53-19.21-.67-1,0-2,0-3.07,0l-1.66,0a60.31,60.31,0,0,0-17.63,2.5,97.94,97.94,0,0,0-14.14,8.15A58.71,58.71,0,0,0,1137,722.56c-.07.12-.14.25-.22.37q-1.18,2-2.3,4.12c-3.23,6-6.06,12.16-9.19,17.66s-6.81,10.94-10.22,16.58c-.81,1.35-1.61,2.71-2.38,4.09l-.57,1a61.21,61.21,0,0,0-6.21,15.45q-.27,3.66-.27,7.38a100,100,0,0,0,.53,10.3,62,62,0,0,0,6,14.29l.5.91q1.15,2,2.4,4.06c3.48,5.72,7.33,11.36,10.66,17.06s6.25,11.63,9.46,17.39q1.15,2.09,2.37,4.11l.69,1.14a72.82,72.82,0,0,0,6.47,9,97.72,97.72,0,0,0,24.83,13.56,75.19,75.19,0,0,0,10.22.76h1.39c1.11,0,2.23,0,3.34,0,6.9-.16,13.82-.75,20.39-.77h.45c6.13,0,12.66.53,19.24.67,1,0,2,0,3,0l1.69,0c.88,0,1.75,0,2.62-.07v-2.26c-1.07.05-2.14.08-3.22.09h-1.11c-7.47,0-15.06-.71-22.28-.71h-.44c-7.77,0-15.88.82-23.72.82h-.79c-1.57,0-3.12-.06-4.66-.15-7-.4-13.62-1.74-19.49-5.09s-10.53-8.6-14.54-14.69c-.51-.78-1-1.57-1.51-2.37-.33-.53-.65-1.07-1-1.61-4-6.69-7.49-14.08-11.52-21s-8.86-13.77-12.76-20.6c-.27-.46-.53-.93-.78-1.39-.5-.9-1-1.81-1.45-2.72-3.27-6.41-5.5-12.88-5.52-19.64h0v-.12c0-7,2.26-13.64,5.53-20.13.44-.88.9-1.76,1.38-2.63.27-.5.55-1,.84-1.51,3.84-6.79,8.48-13.43,12.31-20.16s7.16-14.31,11.19-21.25c.16-.29.33-.58.5-.86.63-1.07,1.28-2.11,1.94-3.13,3.85-5.91,8.42-11.1,14.53-14.67s13-5,20.14-5.46c1.55-.1,3.11-.14,4.68-.16h1.07c7.46,0,15.06.71,22.28.71h.43c7.78,0,15.88-.82,23.72-.82h.77c1.16,0,2.31,0,3.45.08V698c-.94,0-1.89-.06-2.85-.08h-1.37" transform="translate(-757.51 -598.23)" fill="#0e346d"/>
      <path d="M1112,598.33a213.52,213.52,0,0,0-110.85,128.12l-20.65-6.75a236.34,236.34,0,0,1,88.8-121m-7.92.19a240.75,240.75,0,0,0-85.17,119.47l-1.36,4.27,4.25,1.39,20.65,6.75,4.34,1.41,1.36-4.35a208.77,208.77,0,0,1,74-104.41c11.84-8.88,37.88-25.16,37.88-25.16" transform="translate(-757.51 -598.23)" fill="#052245"/>
      <path d="M1169.11,811.87l23.26-20.3,7.24,14.57-30.5,5.73m33.89-9.24-7-14.19,7-6.16,7,6.16-7,14.19m9.17-18.45-5.67-5,14.39-12.56-8.72,17.52m-18.34,0-8.72-17.55,14.4,12.59-5.68,5m-28.2,24.63,12.91-45.08,11.71,23.58-24.62,21.5m62.18-53.4a2.79,2.79,0,0,0-1.86.73l-22.94,20-23-20.07a2.75,2.75,0,0,0-1.85-.69,2.54,2.54,0,0,0-.94.17,2.74,2.74,0,0,0-1.67,1.76l-16.3,56.89a2.78,2.78,0,0,0,2.65,3.62,2.59,2.59,0,0,0,.48,0l40.59-7.63,28.89,5.43v-4.68l-25.51-4.79,7.24-14.57,18.27,16v-6.11l-16.15-14.13,11.74-23.61,4.41,15.4V762.4l-1.4-4.89a2.79,2.79,0,0,0-2-2,2.66,2.66,0,0,0-.72-.1" transform="translate(-757.51 -598.23)" fill="#0e346d"/>
    </g>
  </g>
</svg>
