<svg id="full_images" data-name="full images" xmlns="http://www.w3.org/2000/svg" viewBox="0 0 592.56 523.41">
  <title>endrings</title>
  <g id="endring">
    <g>
      <path d="M1113.47,610.68h-7.42a6.91,6.91,0,0,0,7.42,0" transform="translate(-828.31 -610)" fill="#112a5a"/>
      <path d="M1096.44,615.74a6.91,6.91,0,1,0,6.9,6.9,6.9,6.9,0,0,0-6.9-6.9" transform="translate(-828.31 -610)" fill="#112a5a"/>
      <path d="M1084.2,634.29a6.9,6.9,0,1,0,6.9,6.9,6.89,6.89,0,0,0-6.9-6.9" transform="translate(-828.31 -610)" fill="#112a5a"/>
      <path d="M1073.08,653.54a6.9,6.9,0,1,0,6.9,6.9,6.9,6.9,0,0,0-6.9-6.9" transform="translate(-828.31 -610)" fill="#112a5a"/>
      <path d="M1063.14,673.41a6.9,6.9,0,1,0,6.9,6.9,6.9,6.9,0,0,0-6.9-6.9" transform="translate(-828.31 -610)" fill="#112a5a"/>
      <path d="M1054.4,693.84a6.91,6.91,0,1,0,6.91,6.91,6.9,6.9,0,0,0-6.91-6.91" transform="translate(-828.31 -610)" fill="#112a5a"/>
      <path d="M1046.91,714.77a6.9,6.9,0,1,0,6.9,6.9,6.9,6.9,0,0,0-6.9-6.9" transform="translate(-828.31 -610)" fill="#112a5a"/>
      <path d="M1040.68,736.09a6.91,6.91,0,1,0,6.9,6.9,6.9,6.9,0,0,0-6.9-6.9" transform="translate(-828.31 -610)" fill="#112a5a"/>
      <path d="M1035.73,757.76a6.9,6.9,0,1,0,6.9,6.9,6.9,6.9,0,0,0-6.9-6.9" transform="translate(-828.31 -610)" fill="#112a5a"/>
      <path d="M1032.1,779.69a6.9,6.9,0,1,0,6.89,6.89,6.91,6.91,0,0,0-6.89-6.89" transform="translate(-828.31 -610)" fill="#112a5a"/>
      <path d="M1029.77,801.78a6.91,6.91,0,1,0,6.9,6.91,6.9,6.9,0,0,0-6.9-6.91" transform="translate(-828.31 -610)" fill="#112a5a"/>
      <path d="M1028.77,824a6.9,6.9,0,1,0,6.9,6.9,6.89,6.89,0,0,0-6.9-6.9" transform="translate(-828.31 -610)" fill="#112a5a"/>
      <path d="M1029.11,846.2a6.9,6.9,0,1,0,6.9,6.9,6.9,6.9,0,0,0-6.9-6.9" transform="translate(-828.31 -610)" fill="#112a5a"/>
      <path d="M1030.77,868.37a6.9,6.9,0,1,0,6.89,6.89,6.9,6.9,0,0,0-6.89-6.89" transform="translate(-828.31 -610)" fill="#112a5a"/>
      <path d="M1033.75,890.38a6.9,6.9,0,1,0,6.9,6.9,6.9,6.9,0,0,0-6.9-6.9" transform="translate(-828.31 -610)" fill="#112a5a"/>
      <path d="M1038,912.19a6.9,6.9,0,1,0,6.9,6.9,6.91,6.91,0,0,0-6.9-6.9" transform="translate(-828.31 -610)" fill="#112a5a"/>
      <path d="M1043.63,933.75a6.85,6.85,0,1,0,6.85,6.85,6.85,6.85,0,0,0-6.85-6.85" transform="translate(-828.31 -610)" fill="#112a5a"/>
      <path d="M1050.5,954.88a6.85,6.85,0,1,0,6.85,6.85,6.85,6.85,0,0,0-6.85-6.85" transform="translate(-828.31 -610)" fill="#112a5a"/>
      <path d="M1058.62,975.62a6.8,6.8,0,1,0,6.8,6.8,6.81,6.81,0,0,0-6.8-6.8" transform="translate(-828.31 -610)" fill="#112a5a"/>
      <path d="M1068,995.79a6.8,6.8,0,1,0,6.8,6.79,6.79,6.79,0,0,0-6.8-6.79" transform="translate(-828.31 -610)" fill="#112a5a"/>
      <path d="M1078.49,1015.4a6.75,6.75,0,1,0,6.75,6.75,6.75,6.75,0,0,0-6.75-6.75" transform="translate(-828.31 -610)" fill="#112a5a"/>
      <path d="M1090.17,1034.31a6.75,6.75,0,1,0,6.75,6.74,6.74,6.74,0,0,0-6.75-6.74" transform="translate(-828.31 -610)" fill="#112a5a"/>
      <path d="M1103,1052.48a6.75,6.75,0,1,0,6.74,6.75,6.75,6.75,0,0,0-6.74-6.75" transform="translate(-828.31 -610)" fill="#112a5a"/>
      <path d="M1116.82,1070a6.64,6.64,0,1,0,6.64,6.64,6.64,6.64,0,0,0-6.64-6.64" transform="translate(-828.31 -610)" fill="#112a5a"/>
      <path d="M1131.69,1086.53a6.59,6.59,0,1,0,6.59,6.59,6.58,6.58,0,0,0-6.59-6.59" transform="translate(-828.31 -610)" fill="#112a5a"/>
      <path d="M1147.52,1102.17a6.54,6.54,0,1,0,6.54,6.54,6.54,6.54,0,0,0-6.54-6.54" transform="translate(-828.31 -610)" fill="#112a5a"/>
      <path d="M1164.26,1116.89a6.44,6.44,0,1,0,6.43,6.44,6.44,6.44,0,0,0-6.43-6.44" transform="translate(-828.31 -610)" fill="#112a5a"/>
      <path d="M1181.83,1128.17a8.75,8.75,0,0,0-7.62,4.46h15.26a8.78,8.78,0,0,0-7.64-4.46" transform="translate(-828.31 -610)" fill="#112a5a"/>
      <path d="M1082.51,610.68h-10.93a6.49,6.49,0,0,0,10.93,0" transform="translate(-828.31 -610)" fill="#112a5a"/>
      <path d="M1064.7,616.7a9,9,0,1,0,9,9,9,9,0,0,0-9-9" transform="translate(-828.31 -610)" fill="#112a5a"/>
      <path d="M1053.41,638.31a6.49,6.49,0,1,0,6.49,6.49,6.49,6.49,0,0,0-6.49-6.49" transform="translate(-828.31 -610)" fill="#112a5a"/>
      <path d="M1043.21,658.05a6.49,6.49,0,1,0,6.48,6.49,6.49,6.49,0,0,0-6.48-6.49" transform="translate(-828.31 -610)" fill="#112a5a"/>
      <path d="M1034.13,675.87a9,9,0,1,0,9,9,9,9,0,0,0-9-9" transform="translate(-828.31 -610)" fill="#112a5a"/>
      <path d="M1026.2,699.1a6.49,6.49,0,1,0,6.49,6.49,6.5,6.5,0,0,0-6.49-6.49" transform="translate(-828.31 -610)" fill="#112a5a"/>
      <path d="M1019.45,717.8a9,9,0,1,0,9,9,9,9,0,0,0-9-9" transform="translate(-828.31 -610)" fill="#112a5a"/>
      <path d="M1013.9,741.38a6.91,6.91,0,1,0,6.9,6.9,6.9,6.9,0,0,0-6.9-6.9" transform="translate(-828.31 -610)" fill="#112a5a"/>
      <path d="M1009.57,763.18a6.9,6.9,0,1,0,6.9,6.9,6.9,6.9,0,0,0-6.9-6.9" transform="translate(-828.31 -610)" fill="#112a5a"/>
      <path d="M1006.46,785.6a6.49,6.49,0,1,0,6.49,6.48,6.49,6.49,0,0,0-6.49-6.48" transform="translate(-828.31 -610)" fill="#112a5a"/>
      <path d="M1004.59,807.74a6.49,6.49,0,1,0,6.49,6.49,6.49,6.49,0,0,0-6.49-6.49" transform="translate(-828.31 -610)" fill="#112a5a"/>
      <path d="M1004,830a6.49,6.49,0,1,0,6.49,6.5A6.5,6.5,0,0,0,1004,830" transform="translate(-828.31 -610)" fill="#112a5a"/>
      <path d="M1004.59,849.69a9,9,0,1,0,9,9,9,9,0,0,0-9-9" transform="translate(-828.31 -610)" fill="#112a5a"/>
      <path d="M1006.46,871.78a9,9,0,1,0,9,9,9,9,0,0,0-9-9" transform="translate(-828.31 -610)" fill="#112a5a"/>
      <path d="M1009.57,895.91a6.9,6.9,0,1,0,6.9,6.89,6.9,6.9,0,0,0-6.9-6.89" transform="translate(-828.31 -610)" fill="#112a5a"/>
      <path d="M1013.9,917.69a6.91,6.91,0,1,0,6.9,6.91,6.91,6.91,0,0,0-6.9-6.91" transform="translate(-828.31 -610)" fill="#112a5a"/>
      <path d="M1019.45,937.11a9,9,0,1,0,9,9,9,9,0,0,0-9-9" transform="translate(-828.31 -610)" fill="#112a5a"/>
      <path d="M1026.2,958.28a9,9,0,1,0,9,9,9,9,0,0,0-9-9" transform="translate(-828.31 -610)" fill="#112a5a"/>
      <path d="M1034.13,979.1a9,9,0,1,0,9,9,9,9,0,0,0-9-9" transform="translate(-828.31 -610)" fill="#112a5a"/>
      <path d="M1043.21,999.37a9,9,0,1,0,9,9,9,9,0,0,0-9-9" transform="translate(-828.31 -610)" fill="#112a5a"/>
      <path d="M1053.41,1019.12a9,9,0,1,0,9,9,9,9,0,0,0-9-9" transform="translate(-828.31 -610)" fill="#112a5a"/>
      <path d="M1064.7,1038.26a9,9,0,1,0,9,9,9,9,0,0,0-9-9" transform="translate(-828.31 -610)" fill="#112a5a"/>
      <path d="M1077,1056.69a9,9,0,1,0,9,9,9,9,0,0,0-9-9" transform="translate(-828.31 -610)" fill="#112a5a"/>
      <path d="M1090.41,1076.76a6.7,6.7,0,1,0,6.69,6.69,6.7,6.7,0,0,0-6.69-6.69" transform="translate(-828.31 -610)" fill="#112a5a"/>
      <path d="M1104.74,1091.47a9,9,0,1,0,9,9,9,9,0,0,0-9-9" transform="translate(-828.31 -610)" fill="#112a5a"/>
      <path d="M1120,1107.62a9,9,0,1,0,9,9,9,9,0,0,0-9-9" transform="translate(-828.31 -610)" fill="#112a5a"/>
      <path d="M1136.16,1125.3a6.55,6.55,0,0,0-6.54,6.55,5.11,5.11,0,0,0,.05.78h13a6.81,6.81,0,0,0,0-.78,6.55,6.55,0,0,0-6.54-6.55" transform="translate(-828.31 -610)" fill="#112a5a"/>
      <path d="M1049.71,610.68h-9a4.53,4.53,0,0,0,9,0" transform="translate(-828.31 -610)" fill="#112a5a"/>
      <path d="M1033.77,623.88a5.31,5.31,0,1,0,5.3,5.3,5.31,5.31,0,0,0-5.3-5.3" transform="translate(-828.31 -610)" fill="#112a5a"/>
      <path d="M1023.34,644.28a4.53,4.53,0,1,0,4.53,4.53,4.53,4.53,0,0,0-4.53-4.53" transform="translate(-828.31 -610)" fill="#112a5a"/>
      <path d="M1014,663.65a5.31,5.31,0,1,0,5.31,5.31,5.3,5.3,0,0,0-5.31-5.31" transform="translate(-828.31 -610)" fill="#112a5a"/>
      <path d="M1005.66,685.3a4.27,4.27,0,1,0,4.28,4.27,4.28,4.28,0,0,0-4.28-4.27" transform="translate(-828.31 -610)" fill="#112a5a"/>
      <path d="M998.46,706.48a4.12,4.12,0,1,0,4.13,4.12,4.12,4.12,0,0,0-4.13-4.12" transform="translate(-828.31 -610)" fill="#112a5a"/>
      <path d="M992.37,726.67a5.31,5.31,0,1,0,5.31,5.3,5.29,5.29,0,0,0-5.31-5.3" transform="translate(-828.31 -610)" fill="#112a5a"/>
      <path d="M987.44,748.33a5.31,5.31,0,1,0,5.3,5.3,5.31,5.31,0,0,0-5.3-5.3" transform="translate(-828.31 -610)" fill="#112a5a"/>
      <path d="M983.64,770.23a5.31,5.31,0,1,0,5.3,5.3,5.3,5.3,0,0,0-5.3-5.3" transform="translate(-828.31 -610)" fill="#112a5a"/>
      <path d="M981,792.3a5.3,5.3,0,1,0,5.3,5.3,5.3,5.3,0,0,0-5.3-5.3" transform="translate(-828.31 -610)" fill="#112a5a"/>
      <path d="M979.54,814.47a5.31,5.31,0,1,0,5.3,5.31,5.31,5.31,0,0,0-5.3-5.31" transform="translate(-828.31 -610)" fill="#112a5a"/>
      <path d="M979.24,835.09a6.91,6.91,0,1,0,6.91,6.91,6.9,6.9,0,0,0-6.91-6.91" transform="translate(-828.31 -610)" fill="#112a5a"/>
      <path d="M980.13,857.3a6.9,6.9,0,1,0,6.9,6.9,6.9,6.9,0,0,0-6.9-6.9" transform="translate(-828.31 -610)" fill="#112a5a"/>
      <path d="M982.17,879.43a6.9,6.9,0,1,0,6.91,6.9,6.91,6.91,0,0,0-6.91-6.9" transform="translate(-828.31 -610)" fill="#112a5a"/>
      <path d="M985.39,901.47a6.85,6.85,0,1,0,6.85,6.85,6.85,6.85,0,0,0-6.85-6.85" transform="translate(-828.31 -610)" fill="#112a5a"/>
      <path d="M989.76,923.26a6.85,6.85,0,1,0,6.86,6.85,6.85,6.85,0,0,0-6.86-6.85" transform="translate(-828.31 -610)" fill="#112a5a"/>
      <path d="M995.28,946.38a5.26,5.26,0,1,0,5.25,5.26,5.25,5.25,0,0,0-5.25-5.26" transform="translate(-828.31 -610)" fill="#112a5a"/>
      <path d="M1001.92,967.59a5.26,5.26,0,1,0,5.26,5.25,5.26,5.26,0,0,0-5.26-5.25" transform="translate(-828.31 -610)" fill="#112a5a"/>
      <path d="M1009.68,986.87a6.8,6.8,0,1,0,6.79,6.8,6.81,6.81,0,0,0-6.79-6.8" transform="translate(-828.31 -610)" fill="#112a5a"/>
      <path d="M1018.52,1008.86a5.2,5.2,0,1,0,5.2,5.2,5.2,5.2,0,0,0-5.2-5.2" transform="translate(-828.31 -610)" fill="#112a5a"/>
      <path d="M1028.42,1028.75a5.2,5.2,0,1,0,5.21,5.2,5.2,5.2,0,0,0-5.21-5.2" transform="translate(-828.31 -610)" fill="#112a5a"/>
      <path d="M1039.37,1046.55a6.75,6.75,0,1,0,6.74,6.74,6.75,6.75,0,0,0-6.74-6.74" transform="translate(-828.31 -610)" fill="#112a5a"/>
      <path d="M1051.32,1066.89a5.15,5.15,0,1,0,5.14,5.14,5.15,5.15,0,0,0-5.14-5.14" transform="translate(-828.31 -610)" fill="#112a5a"/>
      <path d="M1064.23,1085.06a5.05,5.05,0,1,0,5,5.06,5.06,5.06,0,0,0-5-5.06" transform="translate(-828.31 -610)" fill="#112a5a"/>
      <path d="M1078.09,1102.44a5,5,0,1,0,5.05,5,5,5,0,0,0-5.05-5" transform="translate(-828.31 -610)" fill="#112a5a"/>
      <path d="M1092.84,1119.17a4.94,4.94,0,1,0,5,4.94,4.94,4.94,0,0,0-5-4.94" transform="translate(-828.31 -610)" fill="#112a5a"/>
      <path d="M1017.7,610.68h-7.08a4.58,4.58,0,1,0,8.13,2.91,4.51,4.51,0,0,0-1-2.91" transform="translate(-828.31 -610)" fill="#112a5a"/>
      <path d="M1003.53,628.52a4.59,4.59,0,1,0,4.59,4.59,4.59,4.59,0,0,0-4.59-4.59" transform="translate(-828.31 -610)" fill="#112a5a"/>
      <path d="M993.89,648.55a4.59,4.59,0,1,0,4.58,4.58,4.58,4.58,0,0,0-4.58-4.58" transform="translate(-828.31 -610)" fill="#112a5a"/>
      <path d="M985.26,669.34a4.27,4.27,0,1,0,4.27,4.27,4.28,4.28,0,0,0-4.27-4.27" transform="translate(-828.31 -610)" fill="#112a5a"/>
      <path d="M977.66,689.91a4.59,4.59,0,1,0,4.58,4.58,4.58,4.58,0,0,0-4.58-4.58" transform="translate(-828.31 -610)" fill="#112a5a"/>
      <path d="M971.11,710.53a5.2,5.2,0,1,0,5.2,5.2,5.2,5.2,0,0,0-5.2-5.2" transform="translate(-828.31 -610)" fill="#112a5a"/>
      <path d="M965.62,732.06a5.21,5.21,0,1,0,5.2,5.2,5.2,5.2,0,0,0-5.2-5.2" transform="translate(-828.31 -610)" fill="#112a5a"/>
      <path d="M961.22,752.56a6.49,6.49,0,1,0,6.49,6.49,6.49,6.49,0,0,0-6.49-6.49" transform="translate(-828.31 -610)" fill="#112a5a"/>
      <path d="M957.91,772.06a9,9,0,1,0,9,9,9,9,0,0,0-9-9" transform="translate(-828.31 -610)" fill="#112a5a"/>
      <path d="M955.69,794.17a9,9,0,1,0,9,9,9,9,0,0,0-9-9" transform="translate(-828.31 -610)" fill="#112a5a"/>
      <path d="M954.58,816.37a9,9,0,1,0,9,9,9,9,0,0,0-9-9" transform="translate(-828.31 -610)" fill="#112a5a"/>
      <path d="M954.58,838.59a9,9,0,1,0,9,9,9,9,0,0,0-9-9" transform="translate(-828.31 -610)" fill="#112a5a"/>
      <path d="M955.69,860.79a9,9,0,1,0,9,9,9,9,0,0,0-9-9" transform="translate(-828.31 -610)" fill="#112a5a"/>
      <path d="M957.91,882.9a9,9,0,1,0,9,9,9,9,0,0,0-9-9" transform="translate(-828.31 -610)" fill="#112a5a"/>
      <path d="M961.22,904.87a9,9,0,1,0,9,9,9,9,0,0,0-9-9" transform="translate(-828.31 -610)" fill="#112a5a"/>
      <path d="M965.62,926.66a9,9,0,1,0,9,9,9,9,0,0,0-9-9" transform="translate(-828.31 -610)" fill="#112a5a"/>
      <path d="M971.11,950.67a6.49,6.49,0,1,0,6.49,6.49,6.48,6.48,0,0,0-6.49-6.49" transform="translate(-828.31 -610)" fill="#112a5a"/>
      <path d="M977.66,971.9a6.49,6.49,0,1,0,6.49,6.49,6.49,6.49,0,0,0-6.49-6.49" transform="translate(-828.31 -610)" fill="#112a5a"/>
      <path d="M985.26,992.78a6.49,6.49,0,1,0,6.48,6.49,6.5,6.5,0,0,0-6.48-6.49" transform="translate(-828.31 -610)" fill="#112a5a"/>
      <path d="M993.89,1013.52a6.24,6.24,0,1,0,6.24,6.23,6.24,6.24,0,0,0-6.24-6.23" transform="translate(-828.31 -610)" fill="#112a5a"/>
      <path d="M1003.53,1033.59a6.19,6.19,0,1,0,6.18,6.18,6.19,6.19,0,0,0-6.18-6.18" transform="translate(-828.31 -610)" fill="#112a5a"/>
      <path d="M1014.16,1052.86a6.44,6.44,0,1,0,6.44,6.44,6.44,6.44,0,0,0-6.44-6.44" transform="translate(-828.31 -610)" fill="#112a5a"/>
      <path d="M1025.75,1071.76a6.5,6.5,0,1,0,6.49,6.5,6.49,6.49,0,0,0-6.49-6.5" transform="translate(-828.31 -610)" fill="#112a5a"/>
      <path d="M1038.27,1090.18a6.44,6.44,0,1,0,6.44,6.44,6.44,6.44,0,0,0-6.44-6.44" transform="translate(-828.31 -610)" fill="#112a5a"/>
      <path d="M1051.69,1107.89a6.44,6.44,0,1,0,6.44,6.44,6.44,6.44,0,0,0-6.44-6.44" transform="translate(-828.31 -610)" fill="#112a5a"/>
      <path d="M1066,1124.92a6.43,6.43,0,0,0-6.43,6.44,6.67,6.67,0,0,0,.12,1.27h12.62a6.67,6.67,0,0,0,.13-1.27,6.44,6.44,0,0,0-6.44-6.44" transform="translate(-828.31 -610)" fill="#112a5a"/>
      <path d="M983.78,612.85a4.58,4.58,0,1,0,4.58,4.57,4.57,4.57,0,0,0-4.58-4.57" transform="translate(-828.31 -610)" fill="#112a5a"/>
      <path d="M973.9,628.37a9,9,0,1,0,9,9,9,9,0,0,0-9-9" transform="translate(-828.31 -610)" fill="#112a5a"/>
      <path d="M965,651.2a6.49,6.49,0,1,0,6.49,6.48A6.49,6.49,0,0,0,965,651.2" transform="translate(-828.31 -610)" fill="#112a5a"/>
      <path d="M957,670a8.45,8.45,0,1,0,8.45,8.45A8.45,8.45,0,0,0,957,670" transform="translate(-828.31 -610)" fill="#112a5a"/>
      <path d="M950,691.09a8.45,8.45,0,1,0,8.45,8.45,8.45,8.45,0,0,0-8.45-8.45" transform="translate(-828.31 -610)" fill="#112a5a"/>
      <path d="M944.08,712a9,9,0,1,0,9,9,9,9,0,0,0-9-9" transform="translate(-828.31 -610)" fill="#112a5a"/>
      <path d="M939.14,733.65a9,9,0,1,0,9,9,9,9,0,0,0-9-9" transform="translate(-828.31 -610)" fill="#112a5a"/>
      <path d="M935.22,755.53a9,9,0,1,0,9,9,9,9,0,0,0-9-9" transform="translate(-828.31 -610)" fill="#112a5a"/>
      <path d="M932.34,777.56a9,9,0,1,0,9,9,9,9,0,0,0-9-9" transform="translate(-828.31 -610)" fill="#112a5a"/>
      <path d="M930.5,801a7.73,7.73,0,1,0,7.73,7.73A7.73,7.73,0,0,0,930.5,801" transform="translate(-828.31 -610)" fill="#112a5a"/>
      <path d="M929.72,823.16a7.73,7.73,0,1,0,7.73,7.73,7.73,7.73,0,0,0-7.73-7.73" transform="translate(-828.31 -610)" fill="#112a5a"/>
      <path d="M930,845.38a7.73,7.73,0,1,0,7.73,7.72,7.72,7.72,0,0,0-7.73-7.72" transform="translate(-828.31 -610)" fill="#112a5a"/>
      <path d="M931.29,866.33a9,9,0,1,0,9,9,9,9,0,0,0-9-9" transform="translate(-828.31 -610)" fill="#112a5a"/>
      <path d="M933.65,888.43a9,9,0,1,0,9,9,9,9,0,0,0-9-9" transform="translate(-828.31 -610)" fill="#112a5a"/>
      <path d="M937.05,910.39a9,9,0,1,0,9,9,9,9,0,0,0-9-9" transform="translate(-828.31 -610)" fill="#112a5a"/>
      <path d="M941.49,932.12a9,9,0,1,0,9,9,9,9,0,0,0-9-9" transform="translate(-828.31 -610)" fill="#112a5a"/>
      <path d="M946.94,953.71a9,9,0,1,0,9,9,9,9,0,0,0-9-9" transform="translate(-828.31 -610)" fill="#112a5a"/>
      <path d="M953.41,975a9,9,0,1,0,9,9,9,9,0,0,0-9-9" transform="translate(-828.31 -610)" fill="#112a5a"/>
      <path d="M960.87,998.38a6.49,6.49,0,1,0,6.48,6.48,6.49,6.49,0,0,0-6.48-6.48" transform="translate(-828.31 -610)" fill="#112a5a"/>
      <path d="M969.31,1016.93a8.5,8.5,0,1,0,8.5,8.5,8.5,8.5,0,0,0-8.5-8.5" transform="translate(-828.31 -610)" fill="#112a5a"/>
      <path d="M978.71,1038.71a6.85,6.85,0,1,0,6.85,6.85,6.85,6.85,0,0,0-6.85-6.85" transform="translate(-828.31 -610)" fill="#112a5a"/>
      <path d="M989.07,1058.79a6.44,6.44,0,1,0,6.43,6.44,6.44,6.44,0,0,0-6.43-6.44" transform="translate(-828.31 -610)" fill="#112a5a"/>
      <path d="M1000.33,1078a6.44,6.44,0,1,0,6.44,6.43,6.43,6.43,0,0,0-6.44-6.43" transform="translate(-828.31 -610)" fill="#112a5a"/>
      <path d="M1012.48,1097.79a5.2,5.2,0,1,0,5.2,5.2,5.2,5.2,0,0,0-5.2-5.2" transform="translate(-828.31 -610)" fill="#112a5a"/>
      <path d="M1025.51,1114.51A6.49,6.49,0,1,0,1032,1121a6.49,6.49,0,0,0-6.48-6.49" transform="translate(-828.31 -610)" fill="#112a5a"/>
      <path d="M1039.36,1131.94a6.39,6.39,0,0,0-2.9.69h5.8a6.42,6.42,0,0,0-2.9-.69" transform="translate(-828.31 -610)" fill="#112a5a"/>
      <path d="M965,610.68h-1.87c.31,0,.62.05.94.05s.62,0,.93-.05" transform="translate(-828.31 -610)" fill="#112a5a"/>
      <path d="M954,612.61a9,9,0,1,0,9,9,9,9,0,0,0-9-9" transform="translate(-828.31 -610)" fill="#112a5a"/>
      <path d="M944.78,632.84a9,9,0,1,0,9,9,9,9,0,0,0-9-9" transform="translate(-828.31 -610)" fill="#112a5a"/>
      <path d="M936.51,653.47a9,9,0,1,0,9,9,9,9,0,0,0-9-9" transform="translate(-828.31 -610)" fill="#112a5a"/>
      <path d="M929.16,676.51a6.9,6.9,0,1,0,6.9,6.9,6.91,6.91,0,0,0-6.9-6.9" transform="translate(-828.31 -610)" fill="#112a5a"/>
      <path d="M922.77,696.24a8.45,8.45,0,1,0,8.45,8.45,8.46,8.46,0,0,0-8.45-8.45" transform="translate(-828.31 -610)" fill="#112a5a"/>
      <path d="M917.34,717.8a8.45,8.45,0,1,0,8.45,8.44,8.45,8.45,0,0,0-8.45-8.44" transform="translate(-828.31 -610)" fill="#112a5a"/>
      <path d="M912.88,739.06a9,9,0,1,0,9,9,9,9,0,0,0-9-9" transform="translate(-828.31 -610)" fill="#112a5a"/>
      <path d="M909.4,761a9,9,0,1,0,9,9,9,9,0,0,0-9-9" transform="translate(-828.31 -610)" fill="#112a5a"/>
      <path d="M906.92,784.32a7.73,7.73,0,1,0,7.72,7.73,7.73,7.73,0,0,0-7.72-7.73" transform="translate(-828.31 -610)" fill="#112a5a"/>
      <path d="M905.42,806.49a7.73,7.73,0,1,0,7.73,7.73,7.73,7.73,0,0,0-7.73-7.73" transform="translate(-828.31 -610)" fill="#112a5a"/>
      <path d="M904.93,828.71a7.73,7.73,0,1,0,7.72,7.74,7.73,7.73,0,0,0-7.72-7.74" transform="translate(-828.31 -610)" fill="#112a5a"/>
      <path d="M905.42,850.94a7.73,7.73,0,1,0,7.73,7.72,7.72,7.72,0,0,0-7.73-7.72" transform="translate(-828.31 -610)" fill="#112a5a"/>
      <path d="M906.92,871.87a9,9,0,1,0,9,9,9,9,0,0,0-9-9" transform="translate(-828.31 -610)" fill="#112a5a"/>
      <path d="M909.4,894a9,9,0,1,0,9,9,9,9,0,0,0-9-9" transform="translate(-828.31 -610)" fill="#112a5a"/>
      <path d="M912.88,915.91a9,9,0,1,0,9,9,9,9,0,0,0-9-9" transform="translate(-828.31 -610)" fill="#112a5a"/>
      <path d="M917.34,937.68a9,9,0,1,0,9,9,9,9,0,0,0-9-9" transform="translate(-828.31 -610)" fill="#112a5a"/>
      <path d="M922.77,959.18a9,9,0,1,0,9,9,9,9,0,0,0-9-9" transform="translate(-828.31 -610)" fill="#112a5a"/>
      <path d="M929.16,981a8.45,8.45,0,1,0,8.45,8.44,8.45,8.45,0,0,0-8.45-8.44" transform="translate(-828.31 -610)" fill="#112a5a"/>
      <path d="M936.51,1002a8.44,8.44,0,1,0,8.44,8.44,8.44,8.44,0,0,0-8.44-8.44" transform="translate(-828.31 -610)" fill="#112a5a"/>
      <path d="M944.78,1024.17a6.91,6.91,0,1,0,6.9,6.91,6.9,6.9,0,0,0-6.9-6.91" transform="translate(-828.31 -610)" fill="#112a5a"/>
      <path d="M954,1044.41a6.9,6.9,0,1,0,6.9,6.9,6.9,6.9,0,0,0-6.9-6.9" transform="translate(-828.31 -610)" fill="#112a5a"/>
      <path d="M964.06,1065.86a5.25,5.25,0,1,0,5.25,5.25,5.25,5.25,0,0,0-5.25-5.25" transform="translate(-828.31 -610)" fill="#112a5a"/>
      <path d="M975,1084.26a6.18,6.18,0,1,0,6.18,6.19,6.18,6.18,0,0,0-6.18-6.19" transform="translate(-828.31 -610)" fill="#112a5a"/>
      <path d="M986.85,1102.82a6.44,6.44,0,1,0,6.44,6.44,6.44,6.44,0,0,0-6.44-6.44" transform="translate(-828.31 -610)" fill="#112a5a"/>
      <path d="M999.5,1121.34a6.19,6.19,0,0,0-3.49,11.29h7a6.19,6.19,0,0,0-3.5-11.29" transform="translate(-828.31 -610)" fill="#112a5a"/>
      <path d="M941.63,610.68H926.56a9,9,0,0,0,15.07,0" transform="translate(-828.31 -610)" fill="#112a5a"/>
      <path d="M924.67,619.06a6.9,6.9,0,1,0,6.9,6.9,6.9,6.9,0,0,0-6.9-6.9" transform="translate(-828.31 -610)" fill="#112a5a"/>
      <path d="M916.11,637.51a9,9,0,1,0,9,9,9,9,0,0,0-9-9" transform="translate(-828.31 -610)" fill="#112a5a"/>
      <path d="M908.43,660.42a6.9,6.9,0,1,0,6.9,6.9,6.91,6.91,0,0,0-6.9-6.9" transform="translate(-828.31 -610)" fill="#112a5a"/>
      <path d="M901.65,681.59a6.9,6.9,0,1,0,6.91,6.9,6.89,6.89,0,0,0-6.91-6.9" transform="translate(-828.31 -610)" fill="#112a5a"/>
      <path d="M895.79,703a6.91,6.91,0,1,0,6.9,6.9,6.9,6.9,0,0,0-6.9-6.9" transform="translate(-828.31 -610)" fill="#112a5a"/>
      <path d="M890.85,722.64a9,9,0,1,0,9,9,9,9,0,0,0-9-9" transform="translate(-828.31 -610)" fill="#112a5a"/>
      <path d="M886.83,745.72a7.73,7.73,0,1,0,7.72,7.73,7.73,7.73,0,0,0-7.72-7.73" transform="translate(-828.31 -610)" fill="#112a5a"/>
      <path d="M883.75,768.56a6.91,6.91,0,1,0,6.91,6.9,6.9,6.9,0,0,0-6.91-6.9" transform="translate(-828.31 -610)" fill="#112a5a"/>
      <path d="M881.62,790.68a6.9,6.9,0,1,0,6.9,6.9,6.9,6.9,0,0,0-6.9-6.9" transform="translate(-828.31 -610)" fill="#112a5a"/>
      <path d="M880.43,812.88a6.9,6.9,0,1,0,6.9,6.89,6.9,6.9,0,0,0-6.9-6.89" transform="translate(-828.31 -610)" fill="#112a5a"/>
      <path d="M880.19,835.09A6.91,6.91,0,1,0,887.1,842a6.9,6.9,0,0,0-6.91-6.91" transform="translate(-828.31 -610)" fill="#112a5a"/>
      <path d="M880.91,857.31a6.9,6.9,0,1,0,6.9,6.9,6.9,6.9,0,0,0-6.9-6.9" transform="translate(-828.31 -610)" fill="#112a5a"/>
      <path d="M882.57,879.47a6.9,6.9,0,1,0,6.9,6.9,6.9,6.9,0,0,0-6.9-6.9" transform="translate(-828.31 -610)" fill="#112a5a"/>
      <path d="M885.17,899.48a9,9,0,1,0,9,9,9,9,0,0,0-9-9" transform="translate(-828.31 -610)" fill="#112a5a"/>
      <path d="M888.72,922.66a7.73,7.73,0,1,0,7.73,7.72,7.73,7.73,0,0,0-7.73-7.72" transform="translate(-828.31 -610)" fill="#112a5a"/>
      <path d="M893.2,942.72a9.43,9.43,0,1,0,9.43,9.43,9.43,9.43,0,0,0-9.43-9.43" transform="translate(-828.31 -610)" fill="#112a5a"/>
      <path d="M898.61,966a7.73,7.73,0,1,0,7.72,7.73,7.73,7.73,0,0,0-7.72-7.73" transform="translate(-828.31 -610)" fill="#112a5a"/>
      <path d="M904.93,988.1a6.91,6.91,0,1,0,6.9,6.91,6.91,6.91,0,0,0-6.9-6.91" transform="translate(-828.31 -610)" fill="#112a5a"/>
      <path d="M912.16,1006.19A9.84,9.84,0,1,0,922,1016a9.84,9.84,0,0,0-9.84-9.83" transform="translate(-828.31 -610)" fill="#112a5a"/>
      <path d="M920.28,1029.81a6.9,6.9,0,1,0,6.9,6.9,6.92,6.92,0,0,0-6.9-6.9" transform="translate(-828.31 -610)" fill="#112a5a"/>
      <path d="M929.28,1050.14a6.9,6.9,0,1,0,6.9,6.9,6.9,6.9,0,0,0-6.9-6.9" transform="translate(-828.31 -610)" fill="#112a5a"/>
      <path d="M939.14,1070.1A6.85,6.85,0,1,0,946,1077a6.86,6.86,0,0,0-6.84-6.85" transform="translate(-828.31 -610)" fill="#112a5a"/>
      <path d="M949.83,1089.58a6.85,6.85,0,1,0,6.84,6.85,6.85,6.85,0,0,0-6.84-6.85" transform="translate(-828.31 -610)" fill="#112a5a"/>
      <path d="M961.35,1105.55a9.89,9.89,0,1,0,9.89,9.89,9.89,9.89,0,0,0-9.89-9.89" transform="translate(-828.31 -610)" fill="#112a5a"/>
      <path d="M973.67,1124.05a9.88,9.88,0,0,0-9.8,8.58h19.6a9.88,9.88,0,0,0-9.8-8.58" transform="translate(-828.31 -610)" fill="#112a5a"/>
      <path d="M911.51,610.68H897.75a6.9,6.9,0,0,0,13.76,0" transform="translate(-828.31 -610)" fill="#112a5a"/>
      <path d="M895.81,623.64a6.91,6.91,0,1,0,6.9,6.91,6.9,6.9,0,0,0-6.9-6.91" transform="translate(-828.31 -610)" fill="#112a5a"/>
      <path d="M887.83,644.38a6.91,6.91,0,1,0,6.91,6.9,6.9,6.9,0,0,0-6.91-6.9" transform="translate(-828.31 -610)" fill="#112a5a"/>
      <path d="M880.71,665.44a6.9,6.9,0,1,0,6.9,6.89,6.89,6.89,0,0,0-6.9-6.89" transform="translate(-828.31 -610)" fill="#112a5a"/>
      <path d="M874.45,686.76a6.9,6.9,0,1,0,6.89,6.9,6.9,6.9,0,0,0-6.89-6.9" transform="translate(-828.31 -610)" fill="#112a5a"/>
      <path d="M869.06,708.32a6.9,6.9,0,1,0,6.9,6.9,6.9,6.9,0,0,0-6.9-6.9" transform="translate(-828.31 -610)" fill="#112a5a"/>
      <path d="M864.56,730.08a6.91,6.91,0,1,0,6.9,6.9,6.9,6.9,0,0,0-6.9-6.9" transform="translate(-828.31 -610)" fill="#112a5a"/>
      <path d="M861,752a6.91,6.91,0,1,0,6.9,6.9A6.9,6.9,0,0,0,861,752" transform="translate(-828.31 -610)" fill="#112a5a"/>
      <path d="M858.24,774.07a6.9,6.9,0,1,0,6.9,6.9,6.9,6.9,0,0,0-6.9-6.9" transform="translate(-828.31 -610)" fill="#112a5a"/>
      <path d="M856.42,796.22a6.9,6.9,0,1,0,6.91,6.9,6.9,6.9,0,0,0-6.91-6.9" transform="translate(-828.31 -610)" fill="#112a5a"/>
      <path d="M855.52,818.43a6.9,6.9,0,1,0,6.9,6.9,6.9,6.9,0,0,0-6.9-6.9" transform="translate(-828.31 -610)" fill="#112a5a"/>
      <path d="M855.52,840.65a6.9,6.9,0,1,0,6.9,6.9,6.9,6.9,0,0,0-6.9-6.9" transform="translate(-828.31 -610)" fill="#112a5a"/>
      <path d="M856.42,862.86a6.9,6.9,0,1,0,6.91,6.9,6.9,6.9,0,0,0-6.91-6.9" transform="translate(-828.31 -610)" fill="#112a5a"/>
      <path d="M858.24,885a6.9,6.9,0,1,0,6.9,6.9,6.9,6.9,0,0,0-6.9-6.9" transform="translate(-828.31 -610)" fill="#112a5a"/>
      <path d="M861,907.07a6.9,6.9,0,1,0,6.9,6.9,6.89,6.89,0,0,0-6.9-6.9" transform="translate(-828.31 -610)" fill="#112a5a"/>
      <path d="M864.56,929a6.9,6.9,0,1,0,6.9,6.9,6.9,6.9,0,0,0-6.9-6.9" transform="translate(-828.31 -610)" fill="#112a5a"/>
      <path d="M869.06,950.76a6.9,6.9,0,1,0,6.9,6.9,6.9,6.9,0,0,0-6.9-6.9" transform="translate(-828.31 -610)" fill="#112a5a"/>
      <path d="M874.45,972.27a7,7,0,1,0,6.95,7,7,7,0,0,0-6.95-7" transform="translate(-828.31 -610)" fill="#112a5a"/>
      <path d="M880.71,993.65a6.9,6.9,0,1,0,6.9,6.9,6.89,6.89,0,0,0-6.9-6.9" transform="translate(-828.31 -610)" fill="#112a5a"/>
      <path d="M887.83,1013.92a7.68,7.68,0,1,0,7.68,7.68,7.67,7.67,0,0,0-7.68-7.68" transform="translate(-828.31 -610)" fill="#112a5a"/>
      <path d="M895.81,1034.66a7.68,7.68,0,1,0,7.68,7.68,7.68,7.68,0,0,0-7.68-7.68" transform="translate(-828.31 -610)" fill="#112a5a"/>
      <path d="M904.63,1055.84a6.9,6.9,0,1,0,6.9,6.9,6.89,6.89,0,0,0-6.9-6.9" transform="translate(-828.31 -610)" fill="#112a5a"/>
      <path d="M914.27,1075.86a6.9,6.9,0,1,0,6.91,6.9,6.9,6.9,0,0,0-6.91-6.9" transform="translate(-828.31 -610)" fill="#112a5a"/>
      <path d="M924.73,1095.53a6.85,6.85,0,1,0,6.85,6.85,6.84,6.84,0,0,0-6.85-6.85" transform="translate(-828.31 -610)" fill="#112a5a"/>
      <path d="M936,1114.74a6.81,6.81,0,1,0,6.79,6.81,6.81,6.81,0,0,0-6.79-6.81" transform="translate(-828.31 -610)" fill="#112a5a"/>
      <path d="M853.28,670.54a6.91,6.91,0,1,0,6.91,6.91,6.91,6.91,0,0,0-6.91-6.91" transform="translate(-828.31 -610)" fill="#112a5a"/>
      <path d="M847.5,692a6.9,6.9,0,1,0,6.9,6.9,6.9,6.9,0,0,0-6.9-6.9" transform="translate(-828.31 -610)" fill="#112a5a"/>
      <path d="M842.55,713.67a6.9,6.9,0,1,0,6.91,6.9,6.9,6.9,0,0,0-6.91-6.9" transform="translate(-828.31 -610)" fill="#112a5a"/>
      <path d="M838.46,735.51a6.91,6.91,0,1,0,6.9,6.91,6.91,6.91,0,0,0-6.9-6.91" transform="translate(-828.31 -610)" fill="#112a5a"/>
      <path d="M835.22,757.5a6.9,6.9,0,1,0,6.9,6.9,6.9,6.9,0,0,0-6.9-6.9" transform="translate(-828.31 -610)" fill="#112a5a"/>
      <path d="M836.73,912.59a6.9,6.9,0,1,0,6.9,6.9,6.9,6.9,0,0,0-6.9-6.9" transform="translate(-828.31 -610)" fill="#112a5a"/>
      <path d="M840.4,934.51a6.9,6.9,0,1,0,6.9,6.9,6.9,6.9,0,0,0-6.9-6.9" transform="translate(-828.31 -610)" fill="#112a5a"/>
      <path d="M844.92,956.22a7,7,0,1,0,7,6.95,6.95,6.95,0,0,0-7-6.95" transform="translate(-828.31 -610)" fill="#112a5a"/>
      <path d="M850.29,977.79a7,7,0,1,0,7,7,6.94,6.94,0,0,0-7-7" transform="translate(-828.31 -610)" fill="#112a5a"/>
      <path d="M856.49,999.17a6.9,6.9,0,1,0,6.9,6.9,6.91,6.91,0,0,0-6.9-6.9" transform="translate(-828.31 -610)" fill="#112a5a"/>
      <path d="M910.69,1120.74a6.85,6.85,0,0,0-4.64,11.89h9.27a6.84,6.84,0,0,0-4.63-11.89" transform="translate(-828.31 -610)" fill="#112a5a"/>
      <path id="blueball" d="M957.91,882.9a9,9,0,1,1-9,9A9,9,0,0,1,957.91,882.9Z" transform="translate(-828.31 -610)" fill="#164595"/>
      <line x1="335.69" y1="441" x2="246.69" y2="522" fill="none" stroke="#164595" stroke-miterlimit="10" stroke-width="1.5"/>
      <line x1="138.23" y1="280.55" x2="274.19" y2="266.06" fill="none" stroke="#164595" stroke-miterlimit="10" stroke-width="1.5"/>
      <line x1="382.69" y1="523" x2="400.26" y2="495.97" fill="none" stroke="#164595" stroke-miterlimit="10" stroke-width="1.5"/>
      <path d="M1386.41,725.1a48.7,48.7,0,0,0-12.5,1.67c3.74-.35,7.55-.53,11.38-.53a122.33,122.33,0,0,1,15,.92,49.75,49.75,0,0,0-13.92-2.06" transform="translate(-828.31 -610)" fill="#13336e"/>
      <path d="M1356.15,737.46q-2.94,0-5.84.19c-7.18,4.41-14,9.22-20.81,13.13-7.11,4.11-15,7.84-22.49,12-.83,1.27-1.64,2.58-2.42,3.91l-.63,1.07c8.68-5.15,18.25-9.53,26.94-14.56,8.33-4.82,16.61-10.82,25.25-15.75m60.28-.14q2.16,1.23,4.31,2.55v-2.45c-1.43-.06-2.87-.09-4.31-.1m-31.14-11.08c-3.83,0-7.64.18-11.38.53a77.33,77.33,0,0,0-17.84,7.5l-.68.38h2.07c1.28,0,2.56,0,3.84,0,7.93-4,16.2-6.77,25.11-6.77h0c8.81,0,17,2.72,24.85,6.64,1.4,0,2.8,0,4.2,0h1.71l-.44-.24a79.47,79.47,0,0,0-16.41-7.11,122.33,122.33,0,0,0-15-.92" transform="translate(-828.31 -610)" fill="#0e346d"/>
      <path d="M1284.08,779.88a46,46,0,0,0-5.31,7.34,45,45,0,0,0-3.67,8.22,121.11,121.11,0,0,1,9-15.56" transform="translate(-828.31 -610)" fill="#13336e"/>
      <path d="M1274.61,819.48c-.35.63-.71,1.26-1,1.89-.59,1.1-1.17,2.19-1.72,3.28.17,8.24.75,16.6.75,24.72s-.6,16.75-.76,25.12c.58,1.13,1.18,2.26,1.81,3.39.32.58.64,1.16,1,1.74v-1.46c0-9.38.79-19.17.79-28.79s-.79-19.41-.79-28.79v-1.1m27.28-53.75-.34.21c-6.5,3.92-12.58,8.37-17.47,13.94a121.11,121.11,0,0,0-9,15.56c-2.45,7.31-3.2,15.21-3.3,23.3,1-1.72,2-3.42,3-5.11.49-9.09,2.15-17.6,6.43-25s10.53-12.93,17.8-17.76c.93-1.73,1.89-3.45,2.88-5.14" transform="translate(-828.31 -610)" fill="#0e346d"/>
      <path d="M1273.86,899a47.2,47.2,0,0,0,4.91,12.53,49,49,0,0,0,9.83,11.9A121.93,121.93,0,0,1,1273.86,899" transform="translate(-828.31 -610)" fill="#13336e"/>
      <path d="M1420.74,958.87c-1.33.82-2.68,1.62-4,2.39,1.35,0,2.69,0,4-.1v-2.29m-115.81-27.33c.4.68.81,1.35,1.22,2,.61,1,1.24,2,1.88,3,7.22,3.94,14.68,7.52,21.47,11.45s13.76,8.82,21,13.26q2.89.16,5.83.18c-8.71-4.95-17-11-25.45-15.88s-17.55-9.07-26-14m-33.12-51.16a83.71,83.71,0,0,0,2,18.61,121.93,121.93,0,0,0,14.74,24.43,84.58,84.58,0,0,0,13,9.38l1.33.8c-1-1.68-2-3.4-3-5.13-7.66-5-14.32-10.74-18.72-18.36-4.23-7.31-5.9-15.69-6.41-24.66q-1.54-2.52-3-5.07" transform="translate(-828.31 -610)" fill="#0e346d"/>
      <path d="M1408.32,968.67a123.19,123.19,0,0,1-42.25.66,53.42,53.42,0,0,0,20.34,4.31,54.61,54.61,0,0,0,21.91-5" transform="translate(-828.31 -610)" fill="#13336e"/>
      <path d="M1411.56,964c-7.94,4-16.22,6.79-25.15,6.79h0c-8.83,0-17-2.73-24.89-6.67-1.39,0-2.79.06-4.17.06h-1.74l.47.26a90.37,90.37,0,0,0,10,4.86,123.19,123.19,0,0,0,42.25-.66c2.87-1.25,5.68-2.67,8.42-4.2l.73-.4h-2.12c-1.26,0-2.52,0-3.79,0" transform="translate(-828.31 -610)" fill="#0e346d"/>
      <path id="inner-path-back" d="M1420.74,610.68h-103C1214,640.46,1138.12,736.05,1138.12,849.36c0,137.13,111.16,248.29,248.29,248.29a250.76,250.76,0,0,0,34.33-2.36v-82a167.44,167.44,0,1,1,0-327.84V610.68" transform="translate(-828.31 -610)" fill="#13336e" opacity="0.46"/>
      <path id="inner-path" d="M1420.74,610.68h-103C1214,640.46,1138.12,736.05,1138.12,849.36c0,137.13,111.16,248.29,248.29,248.29a250.76,250.76,0,0,0,34.33-2.36v-82a167.44,167.44,0,1,1,0-327.84V610.68" transform="translate(-828.31 -610)" fill="#13336e"/>
      <line x1="557.81" y1="406.75" x2="557.81" y2="487.93" fill="none" stroke="#052245" stroke-miterlimit="10" stroke-width="5.74"/>
      <path d="M1386.12,849.36" transform="translate(-828.31 -610)" fill="none" stroke="#052245" stroke-miterlimit="10" stroke-width="5.74" opacity="0.5"/>
      <path d="M1386.12,849.36" transform="translate(-828.31 -610)" fill="none" stroke="#052245" stroke-miterlimit="10" stroke-width="5.74" opacity="0.5"/>
      <path d="M1386.12,849.36" transform="translate(-828.31 -610)" fill="none" stroke="#052245" stroke-miterlimit="10" stroke-width="5.74" opacity="0.5"/>
      <line x1="557.81" y1="71.57" x2="557.81" y2="1.64" fill="none" stroke="#052245" stroke-miterlimit="10" stroke-width="5.74"/>
      <line x1="420.36" y1="143.91" x2="354.45" y2="98.9" fill="none" stroke="#052245" stroke-miterlimit="10" stroke-width="5.74"/>
      <line x1="400.26" y1="176.86" x2="352.6" y2="157.28" fill="none" stroke="#052245" stroke-miterlimit="10" stroke-width="5.74"/>
      <line x1="395.44" y1="282.16" x2="319.08" y2="303.86" fill="none" stroke="#052245" stroke-miterlimit="10" stroke-width="5.74"/>
      <line x1="415.54" y1="327.98" x2="348.02" y2="367.36" fill="none" stroke="#052245" stroke-miterlimit="10" stroke-width="5.74"/>
      <path d="M1386.41,1043.18a193.7,193.7,0,0,1-164.77-91.71" transform="translate(-828.31 -610)" fill="none" stroke="#052245" stroke-miterlimit="10" stroke-width="5.74"/>
      <path d="M1386.41,628a210.23,210.23,0,0,1,33.7,2.71" transform="translate(-828.31 -610)" fill="none" stroke="#052245" stroke-miterlimit="10" stroke-width="5.74"/>
      <path d="M1172.39,905.93a221.85,221.85,0,0,1,30.5-180.31" transform="translate(-828.31 -610)" fill="none" stroke="#052245" stroke-miterlimit="10" stroke-width="5.74"/>
      <path d="M1386.12,849.36" transform="translate(-828.31 -610)" fill="none" stroke="#052245" stroke-miterlimit="10" stroke-width="5.74" opacity="0.5"/>
      <path id="endring-purple-back" d="M1212.22,1091.45a297.7,297.7,0,0,1-108.15-330.61l.86-2.7,31.13,10.18-.83,2.65a263,263,0,0,0,97.35,292.27l2.28,1.65-20.36,28.23Z" transform="translate(-828.31 -610)" fill="#904098" fill-opacity="0.5"/>
      <path id="endring-purple" d="M1212.22,1091.45a297.7,297.7,0,0,1-108.15-330.61l.86-2.7,31.13,10.18-.83,2.65a263,263,0,0,0,97.35,292.27l2.28,1.65-20.36,28.23Z" transform="translate(-828.31 -610)" fill="#904098"/>
      <path d="M1106.75,761.7l25.79,8.43a266.22,266.22,0,0,0,98.4,295.39l-17.06,23.65A294.84,294.84,0,0,1,1106.75,761.7m-3.64-7.11-1.72,5.4a300.05,300.05,0,0,0,109.17,333.73l4.57,3.34,3.31-4.59,17.06-23.65,3.29-4.57-4.56-3.29a262.68,262.68,0,0,1-78.68-90.72,261.15,261.15,0,0,1-17.64-198.43l1.66-5.3-5.28-1.73-25.79-8.43Z" transform="translate(-828.31 -610)" fill="#052245"/>
      <path id="endring-red-back" d="M1293.68,1132.49l127,.8V1110c-54.66,10.13-141.53-14.31-186.49-46.74l-2.28-1.64-20.34,28.2,2.26,1.65c24.65,18,46.1,28.18,79.85,41" transform="translate(-828.31 -610)" fill="#e85342" opacity="0.5"/>
      <path id="endring-red" d="M1293.68,1132.49l127,.8V1110c-54.66,10.13-141.53-14.31-186.49-46.74l-2.28-1.64-20.34,28.2,2.26,1.65c24.65,18,46.1,28.18,79.85,41" transform="translate(-828.31 -610)" fill="#e85342"/>
      <path d="M1295.29,1132.49c-27.35-8.85-58.68-26.71-81.41-43.32l17.06-23.65c43.7,31.52,121.42,56.52,189.74,50.89l.2,16.08H1295.29M1420.68,1110c-54.19,9.4-142-16.94-186.45-49l-4.57-3.29-3.29,4.56-17.06,23.65-3.27,4.54,4.52,3.3c19.68,14.37,42.51,30.28,66.44,38.57l143.88.45" transform="translate(-828.31 -610)" fill="#052245"/>
      <path id="endring-green-back" d="M1277.57,610.08A263.91,263.91,0,0,0,1135.23,771l-.85,2.72-31.16-10.19.85-2.66A297.84,297.84,0,0,1,1209.44,613c1.06-.79,2.13-1.59,3.21-2.37" transform="translate(-828.31 -610)" fill="#4da621" opacity="0.5"/>
      <path id="endring-green" d="M1277.57,610.08A263.91,263.91,0,0,0,1135.23,771l-.85,2.72-31.16-10.19.85-2.66A297.84,297.84,0,0,1,1209.44,613c1.06-.79,2.13-1.59,3.21-2.37" transform="translate(-828.31 -610)" fill="#4da621"/>
      <path d="M1311.83,946.32a49.19,49.19,0,0,0,13,11,51.31,51.31,0,0,0,18,6,121.8,121.8,0,0,1-31-16.94m-48.49-107a46.86,46.86,0,0,0-1.22,10.48V850h0a45.58,45.58,0,0,0,1.55,11.43,121.54,121.54,0,0,1-.67-12.86c0-3.11.11-6.18.34-9.23m70-101.53a48.07,48.07,0,0,0-9.63,4.27,47.54,47.54,0,0,0-8,5.9,121.79,121.79,0,0,1,17.65-10.17" transform="translate(-828.31 -610)" fill="#13336e"/>
      <path id="white-stuff" d="M1415.47,734.5c-1.4,0-2.8,0-4.2,0-8.6.21-17.24.94-25.43,1h-.56c-7.64,0-15.78-.66-24-.84-1.28,0-2.56,0-3.84,0h-2.07a75.4,75.4,0,0,0-22,3.13A121.79,121.79,0,0,0,1315.72,748a73.26,73.26,0,0,0-13.55,17.31l-.28.47c-1,1.69-2,3.41-2.88,5.14-4,7.49-7.56,15.19-11.47,22s-8.51,13.66-12.76,20.71c-1,1.69-2,3.39-3,5.11l-.71,1.29a76.58,76.58,0,0,0-7.75,19.28c-.23,3.05-.34,6.12-.34,9.23a121.54,121.54,0,0,0,.67,12.86,77.4,77.4,0,0,0,7.51,17.84c.2.38.42.76.63,1.14q1.44,2.55,3,5.07c4.35,7.15,9.16,14.18,13.32,21.31s7.8,14.52,11.81,21.71c1,1.73,2,3.45,3,5.13l.87,1.43a89.54,89.54,0,0,0,8.08,11.29,121.8,121.8,0,0,0,31,16.94,94.51,94.51,0,0,0,12.76,1h1.74c1.38,0,2.78,0,4.17-.06,8.61-.2,17.26-.93,25.46-1h.56c7.66,0,15.81.66,24,.84,1.27,0,2.53,0,3.79,0h2.12c1.09,0,2.18-.05,3.27-.1v-2.81c-1.34.05-2.68.09-4,.1h-1.38c-9.33,0-18.81-.89-27.83-.89H1387c-9.71,0-19.83,1-29.62,1h-1q-2.94,0-5.83-.18c-8.71-.51-17-2.18-24.33-6.36S1313,944.12,1308,936.51c-.64-1-1.27-2-1.88-3-.41-.67-.82-1.34-1.22-2-5-8.35-9.35-17.57-14.38-26.2s-11.07-17.2-15.94-25.72c-.33-.58-.65-1.16-1-1.74-.63-1.13-1.23-2.26-1.81-3.39-4.08-8-6.87-16.09-6.9-24.53h0v-.16c0-8.74,2.83-17,6.91-25.14.55-1.09,1.13-2.18,1.72-3.28.34-.63.7-1.26,1-1.89,4.8-8.48,10.59-16.77,15.38-25.17s8.94-17.86,14-26.54l.63-1.07c.78-1.33,1.59-2.64,2.42-3.91,4.81-7.38,10.52-13.86,18.15-18.31s16.26-6.28,25.15-6.83q2.89-.18,5.84-.19h1.33c9.33,0,18.81.88,27.83.89h.54c9.71,0,19.83-1,29.62-1h1c1.44,0,2.88,0,4.31.1v-2.81c-1.18-.05-2.37-.08-3.56-.1h-1.71" transform="translate(-828.31 -610)" fill="#0e346d"/>
      <path d="M1271,610.12a266.62,266.62,0,0,0-138.43,160l-25.79-8.43a295.11,295.11,0,0,1,110.89-151.15m-9.89.23A300.69,300.69,0,0,0,1101.39,760l-1.69,5.32L1105,767l25.79,8.43,5.42,1.77,1.7-5.43a260.76,260.76,0,0,1,92.38-130.39c14.8-11.1,47.3-31.42,47.3-31.42" transform="translate(-828.31 -610)" fill="#052245"/>
      <path d="M1342.33,876.8l29-25.36,9,18.2-38.08,7.16m42.31-11.55-8.8-17.72,8.81-7.69,8.8,7.7-8.81,17.71m11.46-23L1389,836l18-15.7-10.88,21.89m-22.9,0-10.89-21.91,18,15.72-7.09,6.19M1338,873l16.11-56.29,14.63,29.44L1338,873m77.64-66.68a3.55,3.55,0,0,0-2.32.91l-28.65,25L1356,807.15a3.44,3.44,0,0,0-2.31-.86,3.35,3.35,0,0,0-1.18.21,3.47,3.47,0,0,0-2.09,2.2l-20.34,71a3.45,3.45,0,0,0,3.31,4.51,3,3,0,0,0,.59,0l50.69-9.52,36.08,6.78v-5.85l-31.86-6,9-18.2,22.82,20v-7.63l-20.17-17.64,14.67-29.49,5.5,19.23V815l-1.75-6.11a3.45,3.45,0,0,0-2.47-2.5,3.19,3.19,0,0,0-.9-.12" transform="translate(-828.31 -610)" fill="#0e346d" opacity="0.5"/>
      <path id="star" d="M1342.33,876.8l29-25.36,9,18.2-38.08,7.16m42.31-11.55-8.8-17.72,8.81-7.69,8.8,7.7-8.81,17.71m11.46-23L1389,836l18-15.7-10.88,21.89m-22.9,0-10.89-21.91,18,15.72-7.09,6.19M1338,873l16.11-56.29,14.63,29.44L1338,873m77.64-66.68a3.55,3.55,0,0,0-2.32.91l-28.65,25L1356,807.15a3.44,3.44,0,0,0-2.31-.86,3.35,3.35,0,0,0-1.18.21,3.47,3.47,0,0,0-2.09,2.2l-20.34,71a3.45,3.45,0,0,0,3.31,4.51,3,3,0,0,0,.59,0l50.69-9.52,36.08,6.78v-5.85l-31.86-6,9-18.2,22.82,20v-7.63l-20.17-17.64,14.67-29.49,5.5,19.23V815l-1.75-6.11a3.45,3.45,0,0,0-2.47-2.5,3.19,3.19,0,0,0-.9-.12" transform="translate(-828.31 -610)" fill="#0e346d"/>
    </g>
  </g>
</svg>
