<svg id="eOkhnKiMgmo1" xmlns="http://www.w3.org/2000/svg" xmlns:xlink="http://www.w3.org/1999/xlink" viewBox="0 0 1920 1080" shape-rendering="geometricPrecision" text-rendering="geometricPrecision"><style><![CDATA[#eOkhnKiMgmo5 {animation: eOkhnKiMgmo5_c_o 3000ms linear 1 normal forwards}@keyframes eOkhnKiMgmo5_c_o { 0% {opacity: 1} 33.333333% {opacity: 1} 36.666667% {opacity: 0} 100% {opacity: 0}} #eOkhnKiMgmo14_to {animation: eOkhnKiMgmo14_to__to 3000ms linear 1 normal forwards}@keyframes eOkhnKiMgmo14_to__to { 0% {transform: translate(960px,671.099993px)} 20% {transform: translate(960px,671.099993px)} 23.333333% {transform: translate(960px,634.099993px)} 26.666667% {transform: translate(960px,613.099993px)} 30% {transform: translate(960px,599.099993px)} 100% {transform: translate(960px,599.099993px)}} #eOkhnKiMgmo15_to {animation: eOkhnKiMgmo15_to__to 3000ms linear 1 normal forwards}@keyframes eOkhnKiMgmo15_to__to { 0% {offset-distance: 0%} 20% {offset-distance: 0%} 23.333333% {offset-distance: 48.221458%} 26.666667% {offset-distance: 73.069186%} 30% {offset-distance: 100%} 100% {offset-distance: 100%}} #eOkhnKiMgmo16_to {animation: eOkhnKiMgmo16_to__to 3000ms linear 1 normal forwards}@keyframes eOkhnKiMgmo16_to__to { 0% {transform: translate(960px,84px);animation-timing-function: cubic-bezier(0.39,0.575,0.565,1)} 33.333333% {transform: translate(960px,538px)} 100% {transform: translate(960px,538px)}} #eOkhnKiMgmo16 {animation: eOkhnKiMgmo16_c_o 3000ms linear 1 normal forwards}@keyframes eOkhnKiMgmo16_c_o { 0% {opacity: 1} 33.333333% {opacity: 1} 36.666667% {opacity: 0} 100% {opacity: 0}} #eOkhnKiMgmo17_to {animation: eOkhnKiMgmo17_to__to 3000ms linear 1 normal forwards}@keyframes eOkhnKiMgmo17_to__to { 0% {transform: translate(970.00032px,996px);animation-timing-function: cubic-bezier(0.39,0.575,0.565,1)} 33.333333% {transform: translate(970.00032px,538px)} 70% {transform: translate(970.00032px,538px);animation-timing-function: cubic-bezier(0.39,0.575,0.565,1)} 90% {transform: translate(970.00032px,600px)} 100% {transform: translate(970.00032px,600px)}} #eOkhnKiMgmo17_ts {animation: eOkhnKiMgmo17_ts__ts 3000ms linear 1 normal forwards}@keyframes eOkhnKiMgmo17_ts__ts { 0% {transform: scale(1.011364,1)} 33.333333% {transform: scale(1.011364,1);animation-timing-function: cubic-bezier(0,0,0.58,1)} 66.666667% {transform: scale(0.244122,1)} 100% {transform: scale(0.244122,1)}} #eOkhnKiMgmo18_to {animation: eOkhnKiMgmo18_to__to 3000ms linear 1 normal forwards}@keyframes eOkhnKiMgmo18_to__to { 0% {transform: translate(1924px,538px)} 26.666667% {transform: translate(1924px,538px);animation-timing-function: cubic-bezier(0,0,0.58,1)} 66.666667% {transform: translate(1030px,538px)} 100% {transform: translate(1030px,538px)}} #eOkhnKiMgmo21_to {animation: eOkhnKiMgmo21_to__to 3000ms linear 1 normal forwards}@keyframes eOkhnKiMgmo21_to__to { 0% {transform: translate(-22px,540px)} 26.666667% {transform: translate(-22px,540px);animation-timing-function: cubic-bezier(0,0,0.58,1)} 66.666667% {transform: translate(904.399946px,540px)} 100% {transform: translate(904.399946px,540px)}} #eOkhnKiMgmo25 {animation: eOkhnKiMgmo25_c_o 3000ms linear 1 normal forwards}@keyframes eOkhnKiMgmo25_c_o { 0% {opacity: 0} 76.666667% {opacity: 0;animation-timing-function: cubic-bezier(0.39,0.575,0.565,1)} 86.666667% {opacity: 1} 100% {opacity: 1}} #eOkhnKiMgmo26_to {animation: eOkhnKiMgmo26_to__to 3000ms linear 1 normal forwards}@keyframes eOkhnKiMgmo26_to__to { 0% {transform: translate(964.986453px,540px)} 66.666667% {transform: translate(964.986453px,540px);animation-timing-function: cubic-bezier(0.39,0.575,0.565,1)} 90% {transform: translate(963.999946px,475px)} 100% {transform: translate(963.999946px,475px)}} #eOkhnKiMgmo26 {animation: eOkhnKiMgmo26_c_o 3000ms linear 1 normal forwards}@keyframes eOkhnKiMgmo26_c_o { 0% {opacity: 0} 66.666667% {opacity: 0} 70% {opacity: 1} 100% {opacity: 1}} #eOkhnKiMgmo27 {animation: eOkhnKiMgmo27_c_o 3000ms linear 1 normal forwards}@keyframes eOkhnKiMgmo27_c_o { 0% {opacity: 0} 66.666667% {opacity: 0;animation-timing-function: cubic-bezier(0.39,0.575,0.565,1)} 80% {opacity: 1} 100% {opacity: 1}}]]></style><rect width="1920" height="1080" rx="0" ry="0" stroke-width="0"/><g id="eOkhnKiMgmo5" transform="translate(-30.522399-22.314392)"><g transform="translate(638.122345 512.314405)"><path d="M88.4,402.6h-67.2C23,427,34.4,436.4,49.6,436.4c10.4,0,18.2-2.8,27.4-9.2l8,11c-10.4,8.2-22.2,13.2-36.8,13.2-29.4,0-46.6-20.6-46.6-54c0-32.8,16.6-56.2,43.8-56.2c28.4,0,43.4,19.8,43.4,52c0,3.6-.2,7-.4,9.4ZM70.6,387.8c0-20.6-8.2-32-24.8-32-14,0-23.2,9.8-24.6,33.2h49.4Z" transform="translate(-1.6-341.2)" fill="#fff"/><path d="M183.6,353.2l-7.8,11.6c-9.4-6-17.6-9-27.4-9-12,0-19.4,5.4-19.4,13.8c0,8.6,5.6,12.6,22.6,17c22.2,5.6,35,14.4,35,32.8c0,22-20.2,32-41.6,32-17.8,0-30.6-5.8-39.8-13.8l9.8-11.2c8.441481,6.627153,18.867928,10.220051,29.6,10.2c13.8,0,22.6-6,22.6-16c0-10.4-5.2-14.4-25.6-19.8-22.8-6-31.8-15.8-31.8-30.6c0-16.8,16.2-29,38-29c14.8,0,25.8,4.4,35.8,12Z" transform="translate(-1.6-341.2)" fill="#fff"/><path d="M277,353.2l-7.8,11.6c-9.4-6-17.6-9-27.4-9-12,0-19.4,5.4-19.4,13.8c0,8.6,5.6,12.6,22.6,17c22.2,5.6,35,14.4,35,32.8c0,22-20.2,32-41.6,32-17.8,0-30.6-5.8-39.8-13.8l9.8-11.2c8.441481,6.627153,18.867928,10.220051,29.6,10.2c13.8,0,22.6-6,22.6-16c0-10.4-5.2-14.4-25.6-19.8-22.8-6-31.8-15.8-31.8-30.6c0-16.8,16.2-29,38-29c14.8,0,25.8,4.4,35.8,12Z" transform="translate(-1.6-341.2)" fill="#fff"/><path d="M385.2,402.6h-67.2c1.8,24.4,13.2,33.8,28.4,33.8c10.4,0,18.2-2.8,27.4-9.2l8,11c-10.4,8.2-22.2,13.2-36.8,13.2-29.4,0-46.6-20.6-46.6-54c0-32.8,16.6-56.2,43.8-56.2c28.4,0,43.4,19.8,43.4,52c0,3.6-.2,7-.4,9.4Zm-17.8-14.8c0-20.6-8.2-32-24.8-32-14,0-23.2,9.8-24.6,33.2h49.4Z" transform="translate(-1.6-341.2)" fill="#fff"/><path d="M496.2,373.4v75.6h-18.4v-73c0-15.8-6.4-20.4-16.6-20.4-11.8,0-19.8,7.4-26.8,18.6v74.8h-18.4v-105.4h15.8l1.6,15.6c7.2-10.8,18.4-18,32.2-18c19.4,0,30.6,12.2,30.6,32.2Z" transform="translate(-1.6-341.2)" fill="#fff"/><path d="M603.8,352.6L595,364.2c-7.2-5.2-13.8-7.8-22.6-7.8-16.6,0-27,13-27,40.4c0,27.6,10.4,39,27,39c8.8,0,15-2.8,23-8l8.4,12c-9.022763,7.554718-20.432256,11.664971-32.2,11.6-28.4,0-46-20.2-46-54.2c0-33.6,17.4-56,46-56c12.4,0,22.4,3.2,32.2,11.4Z" transform="translate(-1.6-341.2)" fill="#fff"/><path d="M706,402.6h-67.2c1.8,24.4,13.2,33.8,28.4,33.8c10.4,0,18.2-2.8,27.4-9.2l8,11c-10.4,8.2-22.2,13.2-36.8,13.2-29.4,0-46.6-20.6-46.6-54c0-32.8,16.6-56.2,43.8-56.2c28.4,0,43.4,19.8,43.4,52c0,3.6-.2,7-.4,9.4Zm-17.8-14.8c0-20.6-8.2-32-24.8-32-14,0-23.2,9.8-24.6,33.2h49.4Z" transform="translate(-1.6-341.2)" fill="#fff"/></g></g><g id="eOkhnKiMgmo14_to" transform="translate(960,671.099993)"><rect width="860" height="122.199987" rx="0" ry="0" transform="translate(-430,-61.099993)" stroke-width="0"/></g><g id="eOkhnKiMgmo15_to" style="offset-path:path('M960,404.031645Q960,441.518301,960,445.654432C960,442.881047,960,466.654432,960,466.654432Q960,466.654432,960,489.900007');offset-rotate:0deg"><rect width="860" height="122.199987" rx="0" ry="0" transform="translate(-430,-61.099993)" stroke-width="0"/></g><g id="eOkhnKiMgmo16_to" transform="translate(960,84)"><path id="eOkhnKiMgmo16" d="M80,200h1760" transform="translate(-960,-200)" fill="none" stroke="#85bc20" stroke-width="5.5"/></g><g id="eOkhnKiMgmo17_to" transform="translate(970.00032,996)"><g id="eOkhnKiMgmo17_ts" transform="scale(1.011364,1)"><path d="M80,200h1740.224094" transform="translate(-960,-200)" fill="none" stroke="#e5202e" stroke-width="5.5"/></g></g><g id="eOkhnKiMgmo18_to" transform="translate(1924,538)"><g transform="translate(-1610,-538)"><line x1="0" y1="-85" x2="0" y2="95" transform="translate(1610 653)" fill="none" stroke="#007ac3" stroke-width="8"/><line x1="0" y1="-85" x2="0" y2="95" transform="translate(1610 413)" fill="none" stroke="#007ac3" stroke-width="8"/></g></g><g id="eOkhnKiMgmo21_to" transform="translate(-22,540)"><g transform="translate(-911,-540)"><line x1="0" y1="-205" x2="0" y2="213" transform="translate(911 533)" fill="none" stroke="#fff" stroke-width="8"/><rect width="103.556296" height="235.805677" rx="0" ry="0" transform="matrix(.231758 0 0 0.424078 915 520)" stroke-width="0"/><rect width="103.556296" height="235.805677" rx="0" ry="0" transform="matrix(.231758 0 0 0.424078 883 520)" stroke-width="0"/></g></g><rect id="eOkhnKiMgmo25" width="70.200054" height="42" rx="0" ry="0" transform="matrix(.5698 0 0 1 1010.000005 565.90002)" opacity="0" stroke-width="0"/><g id="eOkhnKiMgmo26_to" transform="translate(964.986453,540)"><line id="eOkhnKiMgmo26" x1="-210.4" y1="0" x2="215.6" y2="0" transform="translate(0,0)" opacity="0" fill="none" stroke="#85bc20" stroke-width="8"/></g><line id="eOkhnKiMgmo27" x1="0" y1="58.499994" x2="0" y2="-58.499993" transform="translate(1030 551.500006)" opacity="0" fill="none" stroke="#007ac3" stroke-width="8" stroke-miterlimit="3"/></svg>