<svg width="100%" height="100%" viewBox="0 0 1112 1112" version="1.1" xmlns="http://www.w3.org/2000/svg" xmlns:xlink="http://www.w3.org/1999/xlink" xml:space="preserve" xmlns:serif="http://www.serif.com/" style="fill-rule:evenodd;clip-rule:evenodd;stroke-miterlimit:10;">
    <g transform="matrix(1,0,0,1,116.959,116.959)">
        <g transform="matrix(3.31976,0,0,3.31976,-1965.85,-792.188)">
            <g id="ogrid-inner-top" transform="matrix(1.00737,0,0,1.00737,761.944,304.371)">
                <path d="M0,11.257C-10.617,4.017 -23.445,-0.221 -37.265,-0.221C-51.222,-0.221 -64.162,4.106 -74.84,11.478" style="fill:none;stroke:rgb(157,209,255);stroke-width:6.96px;"/>
            </g>
        </g>
        <g transform="matrix(3.31976,0,0,3.31976,-1965.85,-792.188)">
            <g id="ogrid-inner-tr" transform="matrix(1.00737,0,0,1.00737,788.444,315.711)">
                <path d="M0,73.328C1.72,67.432 2.66,61.203 2.66,54.752C2.66,31.995 -8.823,11.923 -26.306,0" style="fill:none;stroke:rgb(157,209,255);stroke-width:6.96px;"/>
            </g>
        </g>
        <g transform="matrix(3.31976,0,0,3.31976,-1965.85,-792.188)">
            <g id="ogrid-inner-br" transform="matrix(1.00737,0,0,1.00737,723.689,389.597)">
                <path d="M0,47.619C0.238,47.622 0.472,47.637 0.71,47.637C30.837,47.637 56.249,27.515 64.281,-0.018" style="fill:none;stroke:rgb(157,209,255);stroke-width:6.96px;"/>
            </g>
        </g>
        <g transform="matrix(3.31976,0,0,3.31976,-1965.85,-792.188)">
            <g id="ogrid-inner-bl" transform="matrix(0.799315,0.613091,0.613091,-0.799315,681.544,374.533)">
                <path d="M-8.208,-24.188C14.778,-41.457 47.216,-42.245 71.278,-24.188" style="fill:none;stroke:rgb(157,209,255);stroke-width:6.96px;"/>
            </g>
        </g>
        <g transform="matrix(3.31976,0,0,3.31976,-1965.85,-792.188)">
            <g id="ogrid-inner-tl" transform="matrix(1.00737,0,0,1.00737,686.552,388.834)">
                <path d="M0,-72.368C-17.307,-60.42 -28.655,-40.457 -28.655,-17.836C-28.655,-11.654 -27.79,-5.677 -26.205,0" style="fill:none;stroke:rgb(157,209,255);stroke-width:6.96px;"/>
            </g>
        </g>
        <g transform="matrix(3.31976,0,0,3.31976,-1965.85,-792.188)">
            <g id="ogrid-top" transform="matrix(1.00737,0,0,1.00737,724.405,250.413)">
                <path d="M0,53.342C13.82,53.342 26.648,57.58 37.265,64.82L75.711,12.325C54.317,-2.805 28.198,-11.699 0,-11.699C-28.318,-11.699 -54.542,-2.732 -75.988,12.517L-37.575,65.041C-26.897,57.669 -13.957,53.342 0,53.342Z" style="fill:none;stroke:rgb(157,209,255);stroke-width:6.96px;"/>
            </g>
        </g>
        <g transform="matrix(3.31976,0,0,3.31976,-1965.85,-792.188)">
            <g id="ogrid-tr" transform="matrix(1.00737,0,0,1.00737,791.123,301.5)">
                <path d="M0,68.86C0,75.311 -0.939,81.54 -2.66,87.436L59.333,107.247C63.041,95.105 65.041,82.216 65.041,68.86C65.041,24.559 43.094,-14.615 9.481,-38.387L-28.966,14.108C-11.482,26.03 0,46.102 0,68.86Z" style="fill:none;stroke:rgb(157,209,255);stroke-width:6.96px;"/>
            </g>
        </g>
        <g transform="matrix(3.31976,0,0,3.31976,-1965.85,-792.188)">
            <g id="ogrid-br" transform="matrix(1.00737,0,0,1.00737,788.444,503.105)">
                <path d="M0,-112.696C-8.032,-85.164 -33.444,-65.041 -63.571,-65.041C-63.809,-65.041 -64.043,-65.056 -64.281,-65.059L-64.281,-0.009C-64.044,-0.008 -63.808,0 -63.571,0C-4.428,0 45.574,-39.114 61.992,-92.884L0,-112.696Z" style="fill:none;stroke:rgb(157,209,255);stroke-width:6.96px;"/>
            </g>
        </g>
        <g transform="matrix(3.31976,0,0,3.31976,-1965.85,-792.188)">
            <g id="ogrid-tl" transform="matrix(1.00737,0,0,1.00737,657.686,300.508)">
                <path d="M0,69.844C0,47.223 11.349,27.261 28.655,15.312L-9.758,-37.211C-43.215,-13.42 -65.041,25.663 -65.041,69.844C-65.041,82.771 -63.164,95.257 -59.682,107.055L2.45,87.68C0.865,82.004 0,76.027 0,69.844Z" style="fill:none;stroke:rgb(157,209,255);stroke-width:6.96px;"/>
            </g>
        </g>
        <g transform="matrix(3.31976,0,0,3.31976,-1965.85,-792.188)">
            <g id="ogrid-bl" transform="matrix(-0.961691,0.299891,0.299891,0.961691,678.085,500.365)">
                <path d="M-15.967,-110.994L49.116,-110.994C49.983,-54.536 14.07,-1.877 -42.41,16.065L-61.776,-46.036C-33.152,-55.294 -15.101,-82.257 -15.967,-110.994Z" style="fill:none;stroke:rgb(157,209,255);stroke-width:6.96px;"/>
            </g>
        </g>
    </g>
</svg>
