<svg xmlns="http://www.w3.org/2000/svg" xmlns:xlink="http://www.w3.org/1999/xlink" viewBox="0 0 325.83 245.27">
  <defs>
    <clipPath id="clip-path" transform="translate(-991.36 -489.64)">
      <polyline points="1218.37 713.7 771.72 713.7 771.72 513.7 1218.37 513.7 1218.37 713.7" fill="none"/>
    </clipPath>
    <clipPath id="clip-path-2" transform="translate(-991.36 -489.64)">
      <path d="M1300.35,605.16a95.14,95.14,0,1,0-95.13,95.14,95.13,95.13,0,0,0,95.13-95.14m-95.13,64.16a64.16,64.16,0,1,1,64.16-64.16,64.16,64.16,0,0,1-64.16,64.16" fill="none"/>
    </clipPath>
  </defs>
  <title>sun_animate23</title>
  <g id="full_images" data-name="full images">
    <g clip-path="url(#clip-path)">
      <path d="M1100.63,513.7h-2.84a2.61,2.61,0,0,0,2.84,0" transform="translate(-991.36 -489.64)" fill="#c5d0e4"/>
      <path d="M1094.1,515.64a2.65,2.65,0,1,0,2.65,2.65,2.65,2.65,0,0,0-2.65-2.65" transform="translate(-991.36 -489.64)" fill="#c5d0e4"/>
      <path d="M1089.41,522.75a2.65,2.65,0,1,0,2.65,2.64,2.64,2.64,0,0,0-2.65-2.64" transform="translate(-991.36 -489.64)" fill="#c5d0e4"/>
      <path d="M1085.15,530.12a2.65,2.65,0,1,0,2.65,2.65,2.65,2.65,0,0,0-2.65-2.65" transform="translate(-991.36 -489.64)" fill="#c5d0e4"/>
      <path d="M1081.34,537.74a2.65,2.65,0,1,0,2.65,2.64,2.64,2.64,0,0,0-2.65-2.64" transform="translate(-991.36 -489.64)" fill="#c5d0e4"/>
      <path d="M1078,545.57a2.65,2.65,0,1,0,2.64,2.64,2.65,2.65,0,0,0-2.64-2.64" transform="translate(-991.36 -489.64)" fill="#c5d0e4"/>
      <path d="M1075.13,553.59a2.64,2.64,0,1,0,2.64,2.64,2.65,2.65,0,0,0-2.64-2.64" transform="translate(-991.36 -489.64)" fill="#c5d0e4"/>
      <path d="M1072.74,561.76a2.65,2.65,0,1,0,2.64,2.64,2.65,2.65,0,0,0-2.64-2.64" transform="translate(-991.36 -489.64)" fill="#c5d0e4"/>
      <path d="M1070.84,570.06a2.65,2.65,0,1,0,2.65,2.64,2.64,2.64,0,0,0-2.65-2.64" transform="translate(-991.36 -489.64)" fill="#c5d0e4"/>
      <path d="M1069.45,578.46a2.65,2.65,0,1,0,2.64,2.64,2.64,2.64,0,0,0-2.64-2.64" transform="translate(-991.36 -489.64)" fill="#c5d0e4"/>
      <path d="M1068.56,586.93a2.65,2.65,0,1,0,2.64,2.64,2.65,2.65,0,0,0-2.64-2.64" transform="translate(-991.36 -489.64)" fill="#c5d0e4"/>
      <path d="M1068.18,595.44a2.64,2.64,0,1,0,2.64,2.64,2.65,2.65,0,0,0-2.64-2.64" transform="translate(-991.36 -489.64)" fill="#c5d0e4"/>
      <path d="M1068.31,604a2.65,2.65,0,1,0,2.64,2.64,2.64,2.64,0,0,0-2.64-2.64" transform="translate(-991.36 -489.64)" fill="#c5d0e4"/>
      <path d="M1068.94,612.44a2.65,2.65,0,1,0,2.64,2.64,2.64,2.64,0,0,0-2.64-2.64" transform="translate(-991.36 -489.64)" fill="#c5d0e4"/>
      <path d="M1070.08,620.88a2.65,2.65,0,1,0,2.65,2.64,2.64,2.64,0,0,0-2.65-2.64" transform="translate(-991.36 -489.64)" fill="#c5d0e4"/>
      <path d="M1071.73,629.23a2.65,2.65,0,1,0,2.64,2.65,2.65,2.65,0,0,0-2.64-2.65" transform="translate(-991.36 -489.64)" fill="#c5d0e4"/>
      <path d="M1073.87,637.49a2.63,2.63,0,1,0,2.63,2.63,2.62,2.62,0,0,0-2.63-2.63" transform="translate(-991.36 -489.64)" fill="#c5d0e4"/>
      <path d="M1076.5,645.59a2.63,2.63,0,1,0,2.63,2.63,2.62,2.62,0,0,0-2.63-2.63" transform="translate(-991.36 -489.64)" fill="#c5d0e4"/>
      <path d="M1079.61,653.54a2.61,2.61,0,1,0,2.61,2.6,2.61,2.61,0,0,0-2.61-2.6" transform="translate(-991.36 -489.64)" fill="#c5d0e4"/>
      <path d="M1083.19,661.27a2.61,2.61,0,1,0,2.61,2.6,2.6,2.6,0,0,0-2.61-2.6" transform="translate(-991.36 -489.64)" fill="#c5d0e4"/>
      <path d="M1087.23,668.78a2.59,2.59,0,1,0,2.58,2.59,2.59,2.59,0,0,0-2.58-2.59" transform="translate(-991.36 -489.64)" fill="#c5d0e4"/>
      <path d="M1091.7,676a2.59,2.59,0,1,0,2.59,2.58,2.59,2.59,0,0,0-2.59-2.58" transform="translate(-991.36 -489.64)" fill="#c5d0e4"/>
      <path d="M1096.61,683a2.59,2.59,0,1,0,2.58,2.59,2.59,2.59,0,0,0-2.58-2.59" transform="translate(-991.36 -489.64)" fill="#c5d0e4"/>
      <path d="M1101.92,689.69a2.55,2.55,0,1,0,2.54,2.54,2.55,2.55,0,0,0-2.54-2.54" transform="translate(-991.36 -489.64)" fill="#c5d0e4"/>
      <path d="M1107.61,696a2.53,2.53,0,1,0,2.53,2.52,2.52,2.52,0,0,0-2.53-2.52" transform="translate(-991.36 -489.64)" fill="#c5d0e4"/>
      <path d="M1113.68,702a2.51,2.51,0,1,0,2.5,2.51,2.51,2.51,0,0,0-2.5-2.51" transform="translate(-991.36 -489.64)" fill="#c5d0e4"/>
      <path d="M1120.09,707.67a2.47,2.47,0,1,0,2.47,2.47,2.47,2.47,0,0,0-2.47-2.47" transform="translate(-991.36 -489.64)" fill="#c5d0e4"/>
      <path d="M1126.83,712a3.34,3.34,0,0,0-2.92,1.71h5.84a3.35,3.35,0,0,0-2.92-1.71" transform="translate(-991.36 -489.64)" fill="#c5d0e4"/>
      <path d="M1088.77,513.7h-4.19a2.48,2.48,0,0,0,2.09,1.15,2.51,2.51,0,0,0,2.1-1.15" transform="translate(-991.36 -489.64)" fill="#c5d0e4"/>
      <path d="M1081.94,516a3.43,3.43,0,1,0,3.44,3.43,3.44,3.44,0,0,0-3.44-3.43" transform="translate(-991.36 -489.64)" fill="#c5d0e4"/>
      <path d="M1077.62,524.29a2.49,2.49,0,1,0,2.48,2.49,2.48,2.48,0,0,0-2.48-2.49" transform="translate(-991.36 -489.64)" fill="#c5d0e4"/>
      <path d="M1073.71,531.85a2.49,2.49,0,1,0,2.48,2.49,2.49,2.49,0,0,0-2.48-2.49" transform="translate(-991.36 -489.64)" fill="#c5d0e4"/>
      <path d="M1070.23,538.68a3.44,3.44,0,1,0,3.43,3.43,3.43,3.43,0,0,0-3.43-3.43" transform="translate(-991.36 -489.64)" fill="#c5d0e4"/>
      <path d="M1067.19,547.58a2.49,2.49,0,1,0,2.49,2.49,2.5,2.5,0,0,0-2.49-2.49" transform="translate(-991.36 -489.64)" fill="#c5d0e4"/>
      <path d="M1064.61,554.75a3.44,3.44,0,1,0,3.43,3.43,3.43,3.43,0,0,0-3.43-3.43" transform="translate(-991.36 -489.64)" fill="#c5d0e4"/>
      <path d="M1062.48,563.78a2.65,2.65,0,1,0,2.64,2.65,2.65,2.65,0,0,0-2.64-2.65" transform="translate(-991.36 -489.64)" fill="#c5d0e4"/>
      <path d="M1060.82,572.14a2.65,2.65,0,1,0,2.64,2.64,2.65,2.65,0,0,0-2.64-2.64" transform="translate(-991.36 -489.64)" fill="#c5d0e4"/>
      <path d="M1059.63,580.73a2.49,2.49,0,1,0,2.48,2.48,2.48,2.48,0,0,0-2.48-2.48" transform="translate(-991.36 -489.64)" fill="#c5d0e4"/>
      <path d="M1058.91,589.21a2.49,2.49,0,1,0,2.49,2.49,2.49,2.49,0,0,0-2.49-2.49" transform="translate(-991.36 -489.64)" fill="#c5d0e4"/>
      <path d="M1058.67,597.72a2.49,2.49,0,1,0,2.49,2.49,2.49,2.49,0,0,0-2.49-2.49" transform="translate(-991.36 -489.64)" fill="#c5d0e4"/>
      <path d="M1058.91,605.29a3.44,3.44,0,1,0,3.44,3.43,3.43,3.43,0,0,0-3.44-3.43" transform="translate(-991.36 -489.64)" fill="#c5d0e4"/>
      <path d="M1059.63,613.75a3.46,3.46,0,1,0,3.45,3.46,3.46,3.46,0,0,0-3.45-3.46" transform="translate(-991.36 -489.64)" fill="#c5d0e4"/>
      <path d="M1060.82,623a2.65,2.65,0,1,0,2.64,2.65,2.65,2.65,0,0,0-2.64-2.65" transform="translate(-991.36 -489.64)" fill="#c5d0e4"/>
      <path d="M1062.48,631.34a2.65,2.65,0,1,0,2.64,2.65,2.65,2.65,0,0,0-2.64-2.65" transform="translate(-991.36 -489.64)" fill="#c5d0e4"/>
      <path d="M1064.61,638.78a3.46,3.46,0,1,0,3.45,3.45,3.46,3.46,0,0,0-3.45-3.45" transform="translate(-991.36 -489.64)" fill="#c5d0e4"/>
      <path d="M1067.19,646.9a3.45,3.45,0,1,0,3.45,3.45,3.44,3.44,0,0,0-3.45-3.45" transform="translate(-991.36 -489.64)" fill="#c5d0e4"/>
      <path d="M1070.23,654.87a3.44,3.44,0,1,0,3.43,3.43,3.43,3.43,0,0,0-3.43-3.43" transform="translate(-991.36 -489.64)" fill="#c5d0e4"/>
      <path d="M1073.71,662.64a3.44,3.44,0,1,0,3.43,3.44,3.44,3.44,0,0,0-3.43-3.44" transform="translate(-991.36 -489.64)" fill="#c5d0e4"/>
      <path d="M1077.62,670.21a3.44,3.44,0,1,0,3.43,3.43,3.44,3.44,0,0,0-3.43-3.43" transform="translate(-991.36 -489.64)" fill="#c5d0e4"/>
      <path d="M1081.94,677.54a3.44,3.44,0,1,0,3.44,3.44,3.44,3.44,0,0,0-3.44-3.44" transform="translate(-991.36 -489.64)" fill="#c5d0e4"/>
      <path d="M1086.67,684.6a3.46,3.46,0,1,0,3.45,3.46,3.45,3.45,0,0,0-3.45-3.46" transform="translate(-991.36 -489.64)" fill="#c5d0e4"/>
      <path d="M1091.79,692.29a2.57,2.57,0,1,0,2.57,2.57,2.57,2.57,0,0,0-2.57-2.57" transform="translate(-991.36 -489.64)" fill="#c5d0e4"/>
      <path d="M1097.29,697.93a3.44,3.44,0,1,0,3.43,3.44,3.44,3.44,0,0,0-3.43-3.44" transform="translate(-991.36 -489.64)" fill="#c5d0e4"/>
      <path d="M1103.14,704.12a3.44,3.44,0,1,0,3.43,3.43,3.44,3.44,0,0,0-3.43-3.43" transform="translate(-991.36 -489.64)" fill="#c5d0e4"/>
      <path d="M1109.33,710.9a2.5,2.5,0,0,0-2.51,2.5,1.51,1.51,0,0,0,0,.3h5c0-.1,0-.2,0-.3a2.5,2.5,0,0,0-2.5-2.5" transform="translate(-991.36 -489.64)" fill="#c5d0e4"/>
      <path d="M1076.2,513.7h-3.45a1.74,1.74,0,0,0,3.45,0" transform="translate(-991.36 -489.64)" fill="#c5d0e4"/>
      <path d="M1070.09,518.76a2,2,0,1,0,2,2,2,2,0,0,0-2-2" transform="translate(-991.36 -489.64)" fill="#c5d0e4"/>
      <path d="M1066.09,526.58a1.74,1.74,0,1,0,1.74,1.73,1.73,1.73,0,0,0-1.74-1.73" transform="translate(-991.36 -489.64)" fill="#c5d0e4"/>
      <path d="M1062.5,534a2,2,0,1,0,2,2,2,2,0,0,0-2-2" transform="translate(-991.36 -489.64)" fill="#c5d0e4"/>
      <path d="M1059.32,542.29a1.64,1.64,0,1,0,1.64,1.64,1.65,1.65,0,0,0-1.64-1.64" transform="translate(-991.36 -489.64)" fill="#c5d0e4"/>
      <path d="M1056.56,550.41a1.58,1.58,0,1,0,1.58,1.58,1.58,1.58,0,0,0-1.58-1.58" transform="translate(-991.36 -489.64)" fill="#c5d0e4"/>
      <path d="M1054.23,558.14a2,2,0,1,0,2,2,2,2,0,0,0-2-2" transform="translate(-991.36 -489.64)" fill="#c5d0e4"/>
      <path d="M1052.34,566.45a2,2,0,1,0,2,2,2,2,0,0,0-2-2" transform="translate(-991.36 -489.64)" fill="#c5d0e4"/>
      <path d="M1050.88,574.84a2,2,0,1,0,2,2,2,2,0,0,0-2-2" transform="translate(-991.36 -489.64)" fill="#c5d0e4"/>
      <path d="M1049.87,583.29a2,2,0,1,0,2,2,2,2,0,0,0-2-2" transform="translate(-991.36 -489.64)" fill="#c5d0e4"/>
      <path d="M1049.31,591.79a2,2,0,1,0,2,2,2,2,0,0,0-2-2" transform="translate(-991.36 -489.64)" fill="#c5d0e4"/>
      <path d="M1049.2,599.69a2.65,2.65,0,1,0,2.64,2.65,2.65,2.65,0,0,0-2.64-2.65" transform="translate(-991.36 -489.64)" fill="#c5d0e4"/>
      <path d="M1049.54,608.2a2.65,2.65,0,1,0,2.64,2.65,2.65,2.65,0,0,0-2.64-2.65" transform="translate(-991.36 -489.64)" fill="#c5d0e4"/>
      <path d="M1050.32,616.68a2.65,2.65,0,1,0,2.65,2.64,2.64,2.64,0,0,0-2.65-2.64" transform="translate(-991.36 -489.64)" fill="#c5d0e4"/>
      <path d="M1051.55,625.13a2.62,2.62,0,1,0,2.63,2.62,2.62,2.62,0,0,0-2.63-2.62" transform="translate(-991.36 -489.64)" fill="#c5d0e4"/>
      <path d="M1053.23,633.48a2.62,2.62,0,1,0,2.62,2.62,2.62,2.62,0,0,0-2.62-2.62" transform="translate(-991.36 -489.64)" fill="#c5d0e4"/>
      <path d="M1055.34,642.34a2,2,0,1,0,2,2,2,2,0,0,0-2-2" transform="translate(-991.36 -489.64)" fill="#c5d0e4"/>
      <path d="M1057.89,650.46a2,2,0,1,0,2,2,2,2,0,0,0-2-2" transform="translate(-991.36 -489.64)" fill="#c5d0e4"/>
      <path d="M1060.86,657.85a2.61,2.61,0,1,0,2.6,2.61,2.61,2.61,0,0,0-2.6-2.61" transform="translate(-991.36 -489.64)" fill="#c5d0e4"/>
      <path d="M1064.25,666.28a2,2,0,1,0,2,2,2,2,0,0,0-2-2" transform="translate(-991.36 -489.64)" fill="#c5d0e4"/>
      <path d="M1068,673.9a2,2,0,1,0,2,2,2,2,0,0,0-2-2" transform="translate(-991.36 -489.64)" fill="#c5d0e4"/>
      <path d="M1072.24,680.72a2.59,2.59,0,1,0,2.58,2.58,2.59,2.59,0,0,0-2.58-2.58" transform="translate(-991.36 -489.64)" fill="#c5d0e4"/>
      <path d="M1076.81,688.51a2,2,0,1,0,2,2,2,2,0,0,0-2-2" transform="translate(-991.36 -489.64)" fill="#c5d0e4"/>
      <path d="M1081.76,695.48a1.94,1.94,0,1,0,1.94,1.93,1.92,1.92,0,0,0-1.94-1.93" transform="translate(-991.36 -489.64)" fill="#c5d0e4"/>
      <path d="M1087.07,702.14a1.93,1.93,0,1,0,1.94,1.93,1.93,1.93,0,0,0-1.94-1.93" transform="translate(-991.36 -489.64)" fill="#c5d0e4"/>
      <path d="M1092.73,708.54a1.9,1.9,0,1,0,1.89,1.9,1.9,1.9,0,0,0-1.89-1.9" transform="translate(-991.36 -489.64)" fill="#c5d0e4"/>
      <path d="M1063.94,513.7h-2.72a1.73,1.73,0,0,0-.4,1.11,1.76,1.76,0,1,0,3.51,0,1.78,1.78,0,0,0-.39-1.11" transform="translate(-991.36 -489.64)" fill="#c5d0e4"/>
      <path d="M1058.51,520.54a1.76,1.76,0,1,0,1.75,1.75,1.75,1.75,0,0,0-1.75-1.75" transform="translate(-991.36 -489.64)" fill="#c5d0e4"/>
      <path d="M1054.81,528.21a1.76,1.76,0,1,0,1.76,1.76,1.75,1.75,0,0,0-1.76-1.76" transform="translate(-991.36 -489.64)" fill="#c5d0e4"/>
      <path d="M1051.5,536.18a1.64,1.64,0,1,0,1.64,1.63,1.64,1.64,0,0,0-1.64-1.63" transform="translate(-991.36 -489.64)" fill="#c5d0e4"/>
      <path d="M1048.59,544.06a1.76,1.76,0,1,0,1.76,1.76,1.76,1.76,0,0,0-1.76-1.76" transform="translate(-991.36 -489.64)" fill="#c5d0e4"/>
      <path d="M1046.08,552a2,2,0,1,0,2,2,2,2,0,0,0-2-2" transform="translate(-991.36 -489.64)" fill="#c5d0e4"/>
      <path d="M1044,560.21a2,2,0,1,0,2,2,2,2,0,0,0-2-2" transform="translate(-991.36 -489.64)" fill="#c5d0e4"/>
      <path d="M1042.29,568.07a2.49,2.49,0,1,0,2.49,2.48,2.49,2.49,0,0,0-2.49-2.48" transform="translate(-991.36 -489.64)" fill="#c5d0e4"/>
      <path d="M1041,575.54a3.44,3.44,0,1,0,3.44,3.43,3.44,3.44,0,0,0-3.44-3.43" transform="translate(-991.36 -489.64)" fill="#c5d0e4"/>
      <path d="M1040.17,584a3.44,3.44,0,1,0,3.44,3.44,3.44,3.44,0,0,0-3.44-3.44" transform="translate(-991.36 -489.64)" fill="#c5d0e4"/>
      <path d="M1039.75,592.52a3.43,3.43,0,1,0,3.43,3.43,3.42,3.42,0,0,0-3.43-3.43" transform="translate(-991.36 -489.64)" fill="#c5d0e4"/>
      <path d="M1039.75,601a3.44,3.44,0,1,0,3.43,3.44,3.43,3.43,0,0,0-3.43-3.44" transform="translate(-991.36 -489.64)" fill="#c5d0e4"/>
      <path d="M1040.17,609.54a3.44,3.44,0,1,0,3.44,3.43,3.43,3.43,0,0,0-3.44-3.43" transform="translate(-991.36 -489.64)" fill="#c5d0e4"/>
      <path d="M1041,618a3.44,3.44,0,1,0,3.44,3.43A3.44,3.44,0,0,0,1041,618" transform="translate(-991.36 -489.64)" fill="#c5d0e4"/>
      <path d="M1042.29,626.43a3.44,3.44,0,1,0,3.44,3.43,3.44,3.44,0,0,0-3.44-3.43" transform="translate(-991.36 -489.64)" fill="#c5d0e4"/>
      <path d="M1044,634.78a3.43,3.43,0,1,0,3.43,3.43,3.44,3.44,0,0,0-3.43-3.43" transform="translate(-991.36 -489.64)" fill="#c5d0e4"/>
      <path d="M1046.08,644a2.49,2.49,0,1,0,2.49,2.48,2.49,2.49,0,0,0-2.49-2.48" transform="translate(-991.36 -489.64)" fill="#c5d0e4"/>
      <path d="M1048.59,652.11a2.49,2.49,0,1,0,2.49,2.49,2.5,2.5,0,0,0-2.49-2.49" transform="translate(-991.36 -489.64)" fill="#c5d0e4"/>
      <path d="M1051.5,660.12a2.49,2.49,0,1,0,2.49,2.48,2.49,2.49,0,0,0-2.49-2.48" transform="translate(-991.36 -489.64)" fill="#c5d0e4"/>
      <path d="M1054.81,668.06a2.39,2.39,0,1,0,2.39,2.39,2.39,2.39,0,0,0-2.39-2.39" transform="translate(-991.36 -489.64)" fill="#c5d0e4"/>
      <path d="M1058.51,675.75a2.37,2.37,0,1,0,2.36,2.37,2.38,2.38,0,0,0-2.36-2.37" transform="translate(-991.36 -489.64)" fill="#c5d0e4"/>
      <path d="M1062.58,683.13a2.47,2.47,0,1,0,2.47,2.47,2.47,2.47,0,0,0-2.47-2.47" transform="translate(-991.36 -489.64)" fill="#c5d0e4"/>
      <path d="M1067,690.38a2.49,2.49,0,1,0,2.48,2.49,2.48,2.48,0,0,0-2.48-2.49" transform="translate(-991.36 -489.64)" fill="#c5d0e4"/>
      <path d="M1071.81,697.44a2.47,2.47,0,1,0,2.47,2.46,2.46,2.46,0,0,0-2.47-2.46" transform="translate(-991.36 -489.64)" fill="#c5d0e4"/>
      <path d="M1077,704.22a2.47,2.47,0,1,0,2.46,2.47,2.48,2.48,0,0,0-2.46-2.47" transform="translate(-991.36 -489.64)" fill="#c5d0e4"/>
      <path d="M1082.43,710.75a2.47,2.47,0,0,0-2.47,2.47,2.61,2.61,0,0,0,0,.48h4.84a2.61,2.61,0,0,0,.05-.48,2.47,2.47,0,0,0-2.47-2.47" transform="translate(-991.36 -489.64)" fill="#c5d0e4"/>
      <path d="M1050.93,514.53a1.76,1.76,0,1,0,1.76,1.75,1.75,1.75,0,0,0-1.76-1.75" transform="translate(-991.36 -489.64)" fill="#c5d0e4"/>
      <path d="M1047.15,520.48a3.44,3.44,0,1,0,3.43,3.43,3.43,3.43,0,0,0-3.43-3.43" transform="translate(-991.36 -489.64)" fill="#c5d0e4"/>
      <path d="M1043.73,529.23a2.49,2.49,0,1,0,2.49,2.48,2.48,2.48,0,0,0-2.49-2.48" transform="translate(-991.36 -489.64)" fill="#c5d0e4"/>
      <path d="M1040.68,536.43a3.24,3.24,0,1,0,3.24,3.23,3.24,3.24,0,0,0-3.24-3.23" transform="translate(-991.36 -489.64)" fill="#c5d0e4"/>
      <path d="M1038,544.51a3.24,3.24,0,1,0,3.23,3.24,3.24,3.24,0,0,0-3.23-3.24" transform="translate(-991.36 -489.64)" fill="#c5d0e4"/>
      <path d="M1035.72,552.52a3.44,3.44,0,1,0,3.44,3.43,3.44,3.44,0,0,0-3.44-3.43" transform="translate(-991.36 -489.64)" fill="#c5d0e4"/>
      <path d="M1033.83,560.82a3.44,3.44,0,1,0,3.43,3.44,3.43,3.43,0,0,0-3.43-3.44" transform="translate(-991.36 -489.64)" fill="#c5d0e4"/>
      <path d="M1032.33,569.21a3.43,3.43,0,1,0,3.43,3.43,3.42,3.42,0,0,0-3.43-3.43" transform="translate(-991.36 -489.64)" fill="#c5d0e4"/>
      <path d="M1031.23,577.65a3.44,3.44,0,1,0,3.43,3.43,3.44,3.44,0,0,0-3.43-3.43" transform="translate(-991.36 -489.64)" fill="#c5d0e4"/>
      <path d="M1030.52,586.61a3,3,0,1,0,3,3,3,3,0,0,0-3-3" transform="translate(-991.36 -489.64)" fill="#c5d0e4"/>
      <path d="M1030.22,595.12a3,3,0,1,0,3,3,3,3,0,0,0-3-3" transform="translate(-991.36 -489.64)" fill="#c5d0e4"/>
      <path d="M1030.32,603.63a3,3,0,1,0,3,3,3,3,0,0,0-3-3" transform="translate(-991.36 -489.64)" fill="#c5d0e4"/>
      <path d="M1030.82,611.66a3.44,3.44,0,1,0,3.44,3.44,3.44,3.44,0,0,0-3.44-3.44" transform="translate(-991.36 -489.64)" fill="#c5d0e4"/>
      <path d="M1031.73,620.13a3.44,3.44,0,1,0,3.43,3.43,3.43,3.43,0,0,0-3.43-3.43" transform="translate(-991.36 -489.64)" fill="#c5d0e4"/>
      <path d="M1033,628.54a3.44,3.44,0,1,0,3.43,3.44,3.43,3.43,0,0,0-3.43-3.44" transform="translate(-991.36 -489.64)" fill="#c5d0e4"/>
      <path d="M1034.73,636.87a3.46,3.46,0,1,0,3.45,3.45,3.46,3.46,0,0,0-3.45-3.45" transform="translate(-991.36 -489.64)" fill="#c5d0e4"/>
      <path d="M1036.82,645.14a3.44,3.44,0,1,0,3.43,3.44,3.43,3.43,0,0,0-3.43-3.44" transform="translate(-991.36 -489.64)" fill="#c5d0e4"/>
      <path d="M1039.3,653.29a3.44,3.44,0,1,0,3.43,3.43,3.44,3.44,0,0,0-3.43-3.43" transform="translate(-991.36 -489.64)" fill="#c5d0e4"/>
      <path d="M1042.16,662.26a2.49,2.49,0,1,0,2.48,2.48,2.48,2.48,0,0,0-2.48-2.48" transform="translate(-991.36 -489.64)" fill="#c5d0e4"/>
      <path d="M1045.39,669.37a3.26,3.26,0,1,0,3.26,3.25,3.25,3.25,0,0,0-3.26-3.25" transform="translate(-991.36 -489.64)" fill="#c5d0e4"/>
      <path d="M1049,677.71a2.63,2.63,0,1,0,2.62,2.63,2.63,2.63,0,0,0-2.62-2.63" transform="translate(-991.36 -489.64)" fill="#c5d0e4"/>
      <path d="M1053,685.41a2.47,2.47,0,1,0,2.47,2.47,2.47,2.47,0,0,0-2.47-2.47" transform="translate(-991.36 -489.64)" fill="#c5d0e4"/>
      <path d="M1057.28,692.75a2.47,2.47,0,1,0,2.46,2.47,2.47,2.47,0,0,0-2.46-2.47" transform="translate(-991.36 -489.64)" fill="#c5d0e4"/>
      <path d="M1061.93,700.35a2,2,0,1,0,2,2,2,2,0,0,0-2-2" transform="translate(-991.36 -489.64)" fill="#c5d0e4"/>
      <path d="M1066.92,706.76a2.49,2.49,0,1,0,2.49,2.49,2.49,2.49,0,0,0-2.49-2.49" transform="translate(-991.36 -489.64)" fill="#c5d0e4"/>
      <path d="M1072.23,713.44a2.42,2.42,0,0,0-1.11.26h2.23a2.49,2.49,0,0,0-1.12-.26" transform="translate(-991.36 -489.64)" fill="#c5d0e4"/>
      <path d="M1043.74,513.7H1043l.36,0,.36,0" transform="translate(-991.36 -489.64)" fill="#c5d0e4"/>
      <path d="M1039.51,514.44a3.44,3.44,0,1,0,3.44,3.43,3.44,3.44,0,0,0-3.44-3.43" transform="translate(-991.36 -489.64)" fill="#c5d0e4"/>
      <path d="M1036,522.19a3.44,3.44,0,1,0,3.43,3.44,3.44,3.44,0,0,0-3.43-3.44" transform="translate(-991.36 -489.64)" fill="#c5d0e4"/>
      <path d="M1032.82,530.1a3.44,3.44,0,1,0,3.43,3.43,3.42,3.42,0,0,0-3.43-3.43" transform="translate(-991.36 -489.64)" fill="#c5d0e4"/>
      <path d="M1030,538.92a2.65,2.65,0,1,0,2.64,2.65,2.65,2.65,0,0,0-2.64-2.65" transform="translate(-991.36 -489.64)" fill="#c5d0e4"/>
      <path d="M1027.56,546.49a3.24,3.24,0,1,0,3.24,3.24,3.24,3.24,0,0,0-3.24-3.24" transform="translate(-991.36 -489.64)" fill="#c5d0e4"/>
      <path d="M1025.48,554.75a3.24,3.24,0,1,0,3.23,3.23,3.23,3.23,0,0,0-3.23-3.23" transform="translate(-991.36 -489.64)" fill="#c5d0e4"/>
      <path d="M1023.77,562.89a3.44,3.44,0,1,0,3.43,3.44,3.43,3.43,0,0,0-3.43-3.44" transform="translate(-991.36 -489.64)" fill="#c5d0e4"/>
      <path d="M1022.44,571.3a3.44,3.44,0,1,0,3.43,3.44,3.44,3.44,0,0,0-3.43-3.44" transform="translate(-991.36 -489.64)" fill="#c5d0e4"/>
      <path d="M1021.48,580.24a3,3,0,1,0,3,3,3,3,0,0,0-3-3" transform="translate(-991.36 -489.64)" fill="#c5d0e4"/>
      <path d="M1020.91,588.73a3,3,0,1,0,3,3,3,3,0,0,0-3-3" transform="translate(-991.36 -489.64)" fill="#c5d0e4"/>
      <path d="M1020.72,597.25a3,3,0,1,0,3,3,3,3,0,0,0-3-3" transform="translate(-991.36 -489.64)" fill="#c5d0e4"/>
      <path d="M1020.91,605.76a3,3,0,1,0,3,3,3,3,0,0,0-3-3" transform="translate(-991.36 -489.64)" fill="#c5d0e4"/>
      <path d="M1021.48,613.78a3.44,3.44,0,1,0,3.44,3.44,3.44,3.44,0,0,0-3.44-3.44" transform="translate(-991.36 -489.64)" fill="#c5d0e4"/>
      <path d="M1022.44,622.25a3.43,3.43,0,1,0,3.43,3.43,3.44,3.44,0,0,0-3.43-3.43" transform="translate(-991.36 -489.64)" fill="#c5d0e4"/>
      <path d="M1023.77,630.66a3.44,3.44,0,1,0,3.43,3.43,3.43,3.43,0,0,0-3.43-3.43" transform="translate(-991.36 -489.64)" fill="#c5d0e4"/>
      <path d="M1025.48,639a3.44,3.44,0,1,0,3.43,3.43,3.44,3.44,0,0,0-3.43-3.43" transform="translate(-991.36 -489.64)" fill="#c5d0e4"/>
      <path d="M1027.56,647.24a3.45,3.45,0,1,0,3.45,3.45,3.44,3.44,0,0,0-3.45-3.45" transform="translate(-991.36 -489.64)" fill="#c5d0e4"/>
      <path d="M1030,655.61a3.24,3.24,0,1,0,3.23,3.24,3.24,3.24,0,0,0-3.23-3.24" transform="translate(-991.36 -489.64)" fill="#c5d0e4"/>
      <path d="M1032.82,663.65a3.24,3.24,0,1,0,3.24,3.23,3.23,3.23,0,0,0-3.24-3.23" transform="translate(-991.36 -489.64)" fill="#c5d0e4"/>
      <path d="M1036,672.14a2.65,2.65,0,1,0,2.65,2.65,2.65,2.65,0,0,0-2.65-2.65" transform="translate(-991.36 -489.64)" fill="#c5d0e4"/>
      <path d="M1039.51,679.9a2.65,2.65,0,1,0,2.65,2.64,2.64,2.64,0,0,0-2.65-2.64" transform="translate(-991.36 -489.64)" fill="#c5d0e4"/>
      <path d="M1043.38,688.12a2,2,0,1,0,2,2,2,2,0,0,0-2-2" transform="translate(-991.36 -489.64)" fill="#c5d0e4"/>
      <path d="M1047.58,695.17a2.37,2.37,0,1,0,2.37,2.37,2.37,2.37,0,0,0-2.37-2.37" transform="translate(-991.36 -489.64)" fill="#c5d0e4"/>
      <path d="M1052.11,702.28a2.47,2.47,0,1,0,2.47,2.47,2.47,2.47,0,0,0-2.47-2.47" transform="translate(-991.36 -489.64)" fill="#c5d0e4"/>
      <path d="M1057,709.38a2.37,2.37,0,0,0-1.34,4.32h2.68a2.37,2.37,0,0,0-1.34-4.32" transform="translate(-991.36 -489.64)" fill="#c5d0e4"/>
      <path d="M1034.79,513.7H1029a3.43,3.43,0,0,0,5.78,0" transform="translate(-991.36 -489.64)" fill="#c5d0e4"/>
      <path d="M1028.29,516.91a2.65,2.65,0,1,0,2.64,2.65,2.65,2.65,0,0,0-2.64-2.65" transform="translate(-991.36 -489.64)" fill="#c5d0e4"/>
      <path d="M1025,524a3.44,3.44,0,1,0,3.43,3.43A3.44,3.44,0,0,0,1025,524" transform="translate(-991.36 -489.64)" fill="#c5d0e4"/>
      <path d="M1022.06,532.76a2.65,2.65,0,1,0,2.65,2.64,2.65,2.65,0,0,0-2.65-2.64" transform="translate(-991.36 -489.64)" fill="#c5d0e4"/>
      <path d="M1019.47,540.87a2.65,2.65,0,1,0,2.64,2.65,2.65,2.65,0,0,0-2.64-2.65" transform="translate(-991.36 -489.64)" fill="#c5d0e4"/>
      <path d="M1017.22,549.08a2.65,2.65,0,1,0,2.64,2.65,2.65,2.65,0,0,0-2.64-2.65" transform="translate(-991.36 -489.64)" fill="#c5d0e4"/>
      <path d="M1015.33,556.6a3.44,3.44,0,1,0,3.43,3.43,3.44,3.44,0,0,0-3.43-3.43" transform="translate(-991.36 -489.64)" fill="#c5d0e4"/>
      <path d="M1013.79,565.45a3,3,0,1,0,3,3,3,3,0,0,0-3-3" transform="translate(-991.36 -489.64)" fill="#c5d0e4"/>
      <path d="M1012.61,574.2a2.65,2.65,0,1,0,2.64,2.64,2.65,2.65,0,0,0-2.64-2.64" transform="translate(-991.36 -489.64)" fill="#c5d0e4"/>
      <path d="M1011.79,582.67a2.65,2.65,0,1,0,2.65,2.65,2.65,2.65,0,0,0-2.65-2.65" transform="translate(-991.36 -489.64)" fill="#c5d0e4"/>
      <path d="M1011.33,591.18a2.65,2.65,0,1,0,2.65,2.64,2.64,2.64,0,0,0-2.65-2.64" transform="translate(-991.36 -489.64)" fill="#c5d0e4"/>
      <path d="M1011.24,599.69a2.65,2.65,0,1,0,2.65,2.65,2.65,2.65,0,0,0-2.65-2.65" transform="translate(-991.36 -489.64)" fill="#c5d0e4"/>
      <path d="M1011.52,608.2a2.65,2.65,0,1,0,2.64,2.65,2.65,2.65,0,0,0-2.64-2.65" transform="translate(-991.36 -489.64)" fill="#c5d0e4"/>
      <path d="M1012.15,616.69a2.65,2.65,0,1,0,2.65,2.65,2.65,2.65,0,0,0-2.65-2.65" transform="translate(-991.36 -489.64)" fill="#c5d0e4"/>
      <path d="M1013.15,624.36a3.44,3.44,0,1,0,3.43,3.44,3.44,3.44,0,0,0-3.43-3.44" transform="translate(-991.36 -489.64)" fill="#c5d0e4"/>
      <path d="M1014.51,633.24a3,3,0,1,0,3,3,3,3,0,0,0-3-3" transform="translate(-991.36 -489.64)" fill="#c5d0e4"/>
      <path d="M1016.23,640.93a3.62,3.62,0,1,0,3.61,3.62,3.61,3.61,0,0,0-3.61-3.62" transform="translate(-991.36 -489.64)" fill="#c5d0e4"/>
      <path d="M1018.3,649.85a3,3,0,1,0,3,3,3,3,0,0,0-3-3" transform="translate(-991.36 -489.64)" fill="#c5d0e4"/>
      <path d="M1020.72,658.32a2.65,2.65,0,1,0,2.65,2.65,2.65,2.65,0,0,0-2.65-2.65" transform="translate(-991.36 -489.64)" fill="#c5d0e4"/>
      <path d="M1023.49,665.25a3.77,3.77,0,1,0,3.77,3.77,3.77,3.77,0,0,0-3.77-3.77" transform="translate(-991.36 -489.64)" fill="#c5d0e4"/>
      <path d="M1026.6,674.3a2.65,2.65,0,1,0,2.65,2.65,2.65,2.65,0,0,0-2.65-2.65" transform="translate(-991.36 -489.64)" fill="#c5d0e4"/>
      <path d="M1030.05,682.09a2.65,2.65,0,1,0,2.65,2.65,2.65,2.65,0,0,0-2.65-2.65" transform="translate(-991.36 -489.64)" fill="#c5d0e4"/>
      <path d="M1033.83,689.74a2.63,2.63,0,1,0,2.62,2.63,2.63,2.63,0,0,0-2.62-2.63" transform="translate(-991.36 -489.64)" fill="#c5d0e4"/>
      <path d="M1037.93,697.21a2.63,2.63,0,1,0,2.62,2.62,2.62,2.62,0,0,0-2.62-2.62" transform="translate(-991.36 -489.64)" fill="#c5d0e4"/>
      <path d="M1042.34,703.33a3.79,3.79,0,1,0,3.79,3.79,3.79,3.79,0,0,0-3.79-3.79" transform="translate(-991.36 -489.64)" fill="#c5d0e4"/>
      <path d="M1047.06,710.41a3.78,3.78,0,0,0-3.75,3.29h7.51a3.79,3.79,0,0,0-3.76-3.29" transform="translate(-991.36 -489.64)" fill="#c5d0e4"/>
      <path d="M1023.24,513.7H1018a2.64,2.64,0,0,0,5.27,0" transform="translate(-991.36 -489.64)" fill="#c5d0e4"/>
      <path d="M1017.23,518.67a2.65,2.65,0,1,0,2.64,2.64,2.65,2.65,0,0,0-2.64-2.64" transform="translate(-991.36 -489.64)" fill="#c5d0e4"/>
      <path d="M1014.17,526.62a2.64,2.64,0,1,0,2.65,2.64,2.64,2.64,0,0,0-2.65-2.64" transform="translate(-991.36 -489.64)" fill="#c5d0e4"/>
      <path d="M1011.44,534.68a2.65,2.65,0,1,0,2.64,2.65,2.65,2.65,0,0,0-2.64-2.65" transform="translate(-991.36 -489.64)" fill="#c5d0e4"/>
      <path d="M1009,542.85a2.65,2.65,0,1,0,2.64,2.65,2.65,2.65,0,0,0-2.64-2.65" transform="translate(-991.36 -489.64)" fill="#c5d0e4"/>
      <path d="M1007,551.11a2.65,2.65,0,1,0,2.64,2.65,2.65,2.65,0,0,0-2.64-2.65" transform="translate(-991.36 -489.64)" fill="#c5d0e4"/>
      <path d="M1005.25,559.45a2.65,2.65,0,1,0,2.65,2.65,2.65,2.65,0,0,0-2.65-2.65" transform="translate(-991.36 -489.64)" fill="#c5d0e4"/>
      <path d="M1003.87,567.86a2.65,2.65,0,1,0,2.64,2.64,2.64,2.64,0,0,0-2.64-2.64" transform="translate(-991.36 -489.64)" fill="#c5d0e4"/>
      <path d="M1002.83,576.31a2.65,2.65,0,1,0,2.65,2.64,2.64,2.64,0,0,0-2.65-2.64" transform="translate(-991.36 -489.64)" fill="#c5d0e4"/>
      <path d="M1002.14,584.8a2.65,2.65,0,1,0,2.64,2.64,2.65,2.65,0,0,0-2.64-2.64" transform="translate(-991.36 -489.64)" fill="#c5d0e4"/>
      <path d="M1001.79,593.31a2.65,2.65,0,1,0,2.64,2.64,2.65,2.65,0,0,0-2.64-2.64" transform="translate(-991.36 -489.64)" fill="#c5d0e4"/>
      <path d="M1001.79,601.82a2.65,2.65,0,1,0,2.64,2.65,2.65,2.65,0,0,0-2.64-2.65" transform="translate(-991.36 -489.64)" fill="#c5d0e4"/>
      <path d="M1002.14,610.33a2.65,2.65,0,1,0,2.64,2.65,2.65,2.65,0,0,0-2.64-2.65" transform="translate(-991.36 -489.64)" fill="#c5d0e4"/>
      <path d="M1002.83,618.82a2.65,2.65,0,1,0,2.65,2.64,2.64,2.64,0,0,0-2.65-2.64" transform="translate(-991.36 -489.64)" fill="#c5d0e4"/>
      <path d="M1003.87,627.27a2.65,2.65,0,1,0,2.64,2.64,2.64,2.64,0,0,0-2.64-2.64" transform="translate(-991.36 -489.64)" fill="#c5d0e4"/>
      <path d="M1005.25,635.67a2.65,2.65,0,1,0,2.65,2.65,2.65,2.65,0,0,0-2.65-2.65" transform="translate(-991.36 -489.64)" fill="#c5d0e4"/>
      <path d="M1007,644a2.65,2.65,0,1,0,2.64,2.65A2.65,2.65,0,0,0,1007,644" transform="translate(-991.36 -489.64)" fill="#c5d0e4"/>
      <path d="M1009,652.25a2.67,2.67,0,1,0,2.67,2.67,2.67,2.67,0,0,0-2.67-2.67" transform="translate(-991.36 -489.64)" fill="#c5d0e4"/>
      <path d="M1011.44,660.45a2.64,2.64,0,1,0,2.64,2.64,2.64,2.64,0,0,0-2.64-2.64" transform="translate(-991.36 -489.64)" fill="#c5d0e4"/>
      <path d="M1014.17,668.22a2.94,2.94,0,1,0,2.94,2.94,2.94,2.94,0,0,0-2.94-2.94" transform="translate(-991.36 -489.64)" fill="#c5d0e4"/>
      <path d="M1017.23,676.16a2.94,2.94,0,1,0,2.94,2.94,2.94,2.94,0,0,0-2.94-2.94" transform="translate(-991.36 -489.64)" fill="#c5d0e4"/>
      <path d="M1020.61,684.28a2.65,2.65,0,1,0,2.64,2.64,2.65,2.65,0,0,0-2.64-2.64" transform="translate(-991.36 -489.64)" fill="#c5d0e4"/>
      <path d="M1024.3,692a2.65,2.65,0,1,0,2.65,2.64,2.64,2.64,0,0,0-2.65-2.64" transform="translate(-991.36 -489.64)" fill="#c5d0e4"/>
      <path d="M1028.31,699.48a2.63,2.63,0,1,0,2.62,2.63,2.63,2.63,0,0,0-2.62-2.63" transform="translate(-991.36 -489.64)" fill="#c5d0e4"/>
      <path d="M1032.62,706.85a2.61,2.61,0,1,0,2.6,2.6,2.61,2.61,0,0,0-2.6-2.6" transform="translate(-991.36 -489.64)" fill="#c5d0e4"/>
      <path d="M1000.93,536.64a2.65,2.65,0,1,0,2.65,2.64,2.64,2.64,0,0,0-2.65-2.64" transform="translate(-991.36 -489.64)" fill="#c5d0e4"/>
      <path d="M998.72,544.86a2.65,2.65,0,1,0,2.64,2.65,2.65,2.65,0,0,0-2.64-2.65" transform="translate(-991.36 -489.64)" fill="#c5d0e4"/>
      <path d="M996.82,553.16a2.65,2.65,0,1,0,2.65,2.65,2.65,2.65,0,0,0-2.65-2.65" transform="translate(-991.36 -489.64)" fill="#c5d0e4"/>
      <path d="M995.25,561.54a2.64,2.64,0,1,0,2.65,2.64,2.64,2.64,0,0,0-2.65-2.64" transform="translate(-991.36 -489.64)" fill="#c5d0e4"/>
      <path d="M994,570a2.65,2.65,0,1,0,2.64,2.64A2.65,2.65,0,0,0,994,570" transform="translate(-991.36 -489.64)" fill="#c5d0e4"/>
      <path d="M994.59,629.39a2.65,2.65,0,1,0,2.64,2.64,2.65,2.65,0,0,0-2.64-2.64" transform="translate(-991.36 -489.64)" fill="#c5d0e4"/>
      <path d="M996,637.79a2.64,2.64,0,1,0,2.65,2.64,2.64,2.64,0,0,0-2.65-2.64" transform="translate(-991.36 -489.64)" fill="#c5d0e4"/>
      <path d="M997.73,646.1a2.67,2.67,0,1,0,2.66,2.67,2.68,2.68,0,0,0-2.66-2.67" transform="translate(-991.36 -489.64)" fill="#c5d0e4"/>
      <path d="M999.78,654.37a2.67,2.67,0,1,0,2.67,2.66,2.66,2.66,0,0,0-2.67-2.66" transform="translate(-991.36 -489.64)" fill="#c5d0e4"/>
      <path d="M1002.16,662.56a2.65,2.65,0,1,0,2.65,2.65,2.65,2.65,0,0,0-2.65-2.65" transform="translate(-991.36 -489.64)" fill="#c5d0e4"/>
      <path d="M1022.93,709.15a2.62,2.62,0,0,0-1.78,4.55h3.55a2.57,2.57,0,0,0,.85-1.93,2.62,2.62,0,0,0-2.62-2.62" transform="translate(-991.36 -489.64)" fill="#c5d0e4"/>
      <path d="M1041,618a3.44,3.44,0,1,1-3.43,3.43A3.44,3.44,0,0,1,1041,618Z" transform="translate(-991.36 -489.64)" fill="#164595"/>
      <line x1="134.21" y1="187.6" x2="71.62" y2="244.71" fill="none" stroke="#164595" stroke-miterlimit="10" stroke-width="1.5"/>
      <line x1="49.31" y1="131.71" x2="105.06" y2="125.75" fill="none" stroke="#164595" stroke-miterlimit="10" stroke-width="1.5"/>
      <line x1="138.35" y1="239.06" x2="158.87" y2="205.52" fill="none" stroke="#164595" stroke-miterlimit="10" stroke-width="1.5"/>
      <path d="M1251.65,604.84a46.86,46.86,0,1,0-46.86,46.87,46.86,46.86,0,0,0,46.86-46.87" transform="translate(-991.36 -489.64)" fill="#052245"/>
      <path d="M1205.22,557.55a18.89,18.89,0,0,0-4.79.63c1.43-.13,2.89-.2,4.36-.2a47.64,47.64,0,0,1,5.76.35,19.24,19.24,0,0,0-5.33-.78" transform="translate(-991.36 -489.64)" fill="#8aa2ca"/>
      <path d="M1193.62,562.28c-.75,0-1.5,0-2.24.08-2.75,1.68-5.38,3.52-8,5s-5.73,3-8.62,4.61c-.32.49-.63,1-.93,1.49l-.24.42c3.33-2,7-3.66,10.33-5.58s6.36-4.15,9.67-6m23.1,0c.55.31,1.1.64,1.65,1v-.93c-.55,0-1.1,0-1.65,0M1204.79,558c-1.47,0-2.93.07-4.36.2a29.55,29.55,0,0,0-6.84,2.88l-.26.14h.79l1.47,0a21.21,21.21,0,0,1,9.63-2.6h0a21.12,21.12,0,0,1,9.52,2.55c.54,0,1.08,0,1.61,0h.66l-.17-.09a30.47,30.47,0,0,0-6.29-2.73,47.64,47.64,0,0,0-5.76-.35" transform="translate(-991.36 -489.64)" fill="#0e346d"/>
      <path d="M1166,578.54a17.35,17.35,0,0,0-2,2.81,17.74,17.74,0,0,0-1.41,3.15,48.07,48.07,0,0,1,3.44-6" transform="translate(-991.36 -489.64)" fill="#8aa2ca"/>
      <path d="M1162.38,593.71l-.41.73-.66,1.25c.07,3.16.29,6.36.29,9.47s-.23,6.42-.29,9.63c.22.43.45.86.69,1.3l.38.66v-.56c0-3.59.3-7.34.3-11s-.31-7.44-.3-11v-.42m10.45-20.6-.13.08a28.23,28.23,0,0,0-6.7,5.35,48.07,48.07,0,0,0-3.44,6,29.16,29.16,0,0,0-1.26,8.92q.56-1,1.14-1.95a18.51,18.51,0,0,1,9.29-16.39c.35-.66.72-1.32,1.1-2" transform="translate(-991.36 -489.64)" fill="#0e346d"/>
      <path d="M1162.09,624.18A18.43,18.43,0,0,0,1164,629a19.07,19.07,0,0,0,3.76,4.56,47.43,47.43,0,0,1-5.64-9.36" transform="translate(-991.36 -489.64)" fill="#8aa2ca"/>
      <path d="M1218.37,647.12l-1.54.92,1.54,0v-.88M1174,636.65c.16.26.31.52.47.77l.72,1.13c2.77,1.51,5.63,2.88,8.23,4.39s5.27,3.38,8.06,5.08c.73,0,1.48.07,2.23.07-3.34-1.9-6.54-4.22-9.75-6.08s-6.73-3.48-10-5.36M1161.3,617a32.22,32.22,0,0,0,.79,7.14,47.43,47.43,0,0,0,5.64,9.36,33.11,33.11,0,0,0,5,3.59l.51.31c-.39-.65-.76-1.3-1.13-2a21.17,21.17,0,0,1-7.17-7,20.89,20.89,0,0,1-2.46-9.45c-.39-.65-.78-1.29-1.15-2" transform="translate(-991.36 -489.64)" fill="#0e346d"/>
      <path d="M1213.61,650.88a47.2,47.2,0,0,1-16.19.25,20.48,20.48,0,0,0,7.8,1.65,21,21,0,0,0,8.39-1.9" transform="translate(-991.36 -489.64)" fill="#8aa2ca"/>
      <path d="M1214.85,649.1a21.21,21.21,0,0,1-9.63,2.6h0a21.24,21.24,0,0,1-9.54-2.55l-1.59,0h-.67l.18.1a37.53,37.53,0,0,0,3.83,1.86,47.2,47.2,0,0,0,16.19-.25c1.1-.48,2.18-1,3.23-1.61l.28-.16h-.81l-1.46,0" transform="translate(-991.36 -489.64)" fill="#0e346d"/>
      <path d="M1176.64,642.31a18.77,18.77,0,0,0,5,4.21,19.61,19.61,0,0,0,6.91,2.28,46.27,46.27,0,0,1-11.88-6.49m-18.58-41a17.9,17.9,0,0,0-.47,4v.06h0a17.85,17.85,0,0,0,.59,4.38,47.17,47.17,0,0,1-.25-4.93c0-1.18,0-2.36.13-3.53m26.83-38.9a18,18,0,0,0-3.69,1.63,18.85,18.85,0,0,0-3.07,2.26,46.12,46.12,0,0,1,6.76-3.89" transform="translate(-991.36 -489.64)" fill="#8aa2ca"/>
      <path d="M1216.35,561.15c-.53,0-1.07,0-1.61,0-3.29.08-6.6.36-9.74.37h-.22c-2.93,0-6-.25-9.19-.32l-1.47,0h-.79a29,29,0,0,0-8.44,1.21,46.12,46.12,0,0,0-6.76,3.89,28.08,28.08,0,0,0-5.19,6.63l-.11.18c-.38.65-.75,1.31-1.1,2-1.55,2.87-2.9,5.82-4.4,8.45s-3.26,5.24-4.89,7.94q-.59,1-1.14,1.95l-.27.5a29.34,29.34,0,0,0-3,7.39c-.09,1.17-.13,2.35-.13,3.53a47.17,47.17,0,0,0,.25,4.93,30.08,30.08,0,0,0,2.88,6.84l.24.43c.37.66.76,1.3,1.15,2,1.67,2.74,3.51,5.43,5.1,8.16s3,5.57,4.53,8.32c.37.67.74,1.32,1.13,2l.33.55a34.1,34.1,0,0,0,3.1,4.32,46.27,46.27,0,0,0,11.88,6.49,34.43,34.43,0,0,0,4.89.37h.67l1.59,0c3.3-.08,6.62-.36,9.76-.37h.21c2.94,0,6.06.25,9.21.32l1.46,0h.81c.42,0,.83,0,1.25,0V648l-1.54,0h-.53c-3.58,0-7.21-.34-10.67-.34h-.2c-3.72,0-7.59.39-11.34.39h-.39c-.75,0-1.5,0-2.23-.07a18.49,18.49,0,0,1-16.29-9.47l-.72-1.13c-.16-.25-.31-.51-.47-.77-1.89-3.2-3.58-6.74-5.51-10s-4.24-6.59-6.1-9.86l-.38-.66c-.24-.44-.47-.87-.69-1.3a21,21,0,0,1-2.64-9.4h0v-.06a21.53,21.53,0,0,1,2.64-9.64l.66-1.25.41-.73c1.83-3.25,4-6.43,5.89-9.64s3.43-6.85,5.35-10.17l.24-.42c.3-.5.61-1,.93-1.49a19.14,19.14,0,0,1,16.59-9.63c.74-.05,1.49-.07,2.24-.08h.51c3.57,0,7.21.34,10.66.34h.21c3.72,0,7.59-.39,11.34-.39h.38c.55,0,1.1,0,1.65,0v-1.08l-1.36,0h-.66" transform="translate(-991.36 -489.64)" fill="#0e346d"/>
      <path d="M1218.37,513.7h-39.46a95.16,95.16,0,0,0,39.46,185.69V668a64.17,64.17,0,1,1-13.15-127,64,64,0,0,1,13.15,1.35V513.7" transform="translate(-991.36 -489.64)" fill="#8aa2ca"/>
      <g clip-path="url(#clip-path-2)">
        <line x1="213.74" y1="115.52" x2="213.74" y2="217.42" fill="none" stroke="#052245" stroke-miterlimit="10" stroke-width="5.74"/>
        <line x1="213.74" y1="115.52" x2="292.3" y2="180.41" fill="none" stroke="#052245" stroke-miterlimit="10" stroke-width="5.74"/>
        <line x1="213.74" y1="115.52" x2="307.92" y2="154.43" fill="none" stroke="#052245" stroke-miterlimit="10" stroke-width="5.74"/>
        <line x1="213.74" y1="115.52" x2="289.66" y2="47.55" fill="none" stroke="#052245" stroke-miterlimit="10" stroke-width="5.74"/>
        <line x1="213.74" y1="115.52" x2="213.74" y2="12.04" fill="none" stroke="#052245" stroke-miterlimit="10" stroke-width="5.74"/>
        <line x1="213.74" y1="115.52" x2="130.01" y2="57.43" fill="none" stroke="#052245" stroke-miterlimit="10" stroke-width="5.74"/>
        <line x1="213.74" y1="115.52" x2="135.11" y2="84.07" fill="none" stroke="#052245" stroke-miterlimit="10" stroke-width="5.74"/>
        <line x1="213.74" y1="115.52" x2="115.23" y2="141.59" fill="none" stroke="#052245" stroke-miterlimit="10" stroke-width="5.74"/>
        <line x1="213.74" y1="115.52" x2="129.14" y2="168.04" fill="none" stroke="#052245" stroke-miterlimit="10" stroke-width="5.74"/>
        <path d="M1205.22,679.43a74.23,74.23,0,0,1-63.14-35.14" transform="translate(-991.36 -489.64)" fill="none" stroke="#052245" stroke-miterlimit="10" stroke-width="5.74"/>
        <path d="M1205.22,520.35a84.6,84.6,0,0,1,63.13,28.19" transform="translate(-991.36 -489.64)" fill="none" stroke="#052245" stroke-miterlimit="10" stroke-width="5.74"/>
        <path d="M1123.21,626.84a85,85,0,0,1,11.68-69.1" transform="translate(-991.36 -489.64)" fill="none" stroke="#052245" stroke-miterlimit="10" stroke-width="5.74"/>
        <line x1="213.74" y1="115.52" x2="317.53" y2="80.29" fill="none" stroke="#052245" stroke-miterlimit="10" stroke-width="5.74"/>
      </g>
      <path d="M1138.47,697.92A114.07,114.07,0,0,1,1097,571.24l.33-1,11.93,3.89-.32,1a100.75,100.75,0,0,0,37.3,112l.88.63-7.81,10.82Z" transform="translate(-991.36 -489.64)" fill="#904098"/>
      <path d="M1098.06,571.57l9.88,3.23A102,102,0,0,0,1145.64,688l-6.54,9.06a113,113,0,0,1-41-125.48m-1.4-2.73-.66,2.07a115,115,0,0,0,41.83,127.88l1.75,1.28,1.27-1.76,6.54-9.06,1.26-1.75-1.75-1.26a100.62,100.62,0,0,1-30.14-34.76,99.06,99.06,0,0,1-8.37-22,100.51,100.51,0,0,1,1.61-54l.63-2-2-.66-9.88-3.23Z" transform="translate(-991.36 -489.64)" fill="#052245"/>
      <path d="M1205.58,719.78a113.05,113.05,0,0,1-67.11-21.86l-.87-.63,7.8-10.81.87.63a100.8,100.8,0,0,0,118-.17l.87-.63,8.16,11.14-.87.64A113.11,113.11,0,0,1,1205.58,719.78Z" transform="translate(-991.36 -489.64)" fill="#e85342"/>
      <path d="M1264.94,687.81l6.89,9.41a112.9,112.9,0,0,1-132.73-.17l6.54-9.06a101.87,101.87,0,0,0,119.3-.18m.47-3-1.74,1.26a99.74,99.74,0,0,1-116.77.17l-1.75-1.26-1.26,1.75-6.53,9.06-1.26,1.74,1.73,1.26a114.84,114.84,0,0,0,135.27.17l1.75-1.27-1.28-1.75-6.89-9.4Z" transform="translate(-991.36 -489.64)" fill="#052245"/>
      <path d="M1096.7,572.26l.33-1a113.37,113.37,0,0,1,15.87-31.62,114.68,114.68,0,0,1,24.5-25A113.07,113.07,0,0,1,1204.69,492h1.09l-.08,12.56h-1.07a99.94,99.94,0,0,0-59.88,20.11,101,101,0,0,0-35.78,50.5l-.33,1Z" transform="translate(-991.36 -489.64)" fill="#4da621"/>
      <path d="M1204.7,493l-.07,10.39a101.93,101.93,0,0,0-96.69,71.37l-9.88-3.23A112.88,112.88,0,0,1,1204.7,493m2.17-2.18-2.19,0a115.11,115.11,0,0,0-108.68,80l-.65,2,2,.67,9.88,3.23,2.07.68.66-2.09a99.61,99.61,0,0,1,94.64-69.85h2.13v-2.13l.07-10.4Z" transform="translate(-991.36 -489.64)" fill="#052245"/>
      <path d="M1300.64,574.87a99.41,99.41,0,0,0-14.06-28,100.78,100.78,0,0,0-21.74-22.09,99.35,99.35,0,0,0-59.67-19.7h-2.25l.1-13.78,1.85,0h.71a113.63,113.63,0,0,1,68,22.33,114.78,114.78,0,0,1,41,56.77l.53,1.62-13.9,4.42Z" transform="translate(-991.36 -489.64)" fill="#1a80ff"/>
      <path d="M1205.58,493A112.89,112.89,0,0,1,1312.92,571l-10.66,3.38a101.93,101.93,0,0,0-97.09-70.92h-.54l.07-10.39h.88m0-3.39h-.91l-3.34,0,0,3.34-.07,10.4,0,3.43,3.43,0h.52A98.59,98.59,0,0,1,1299,575.38l1,3.23,3.22-1,10.66-3.39,3.25-1-1-3.24a116.11,116.11,0,0,0-110.56-80.28Z" transform="translate(-991.36 -489.64)" fill="#052245"/>
      <path d="M1188.32,615.67l11.13-9.72,3.47,7-14.6,2.74m16.22-4.42-3.37-6.79,3.37-3,3.38,3-3.38,6.79m4.39-8.83-2.72-2.37,6.89-6-4.17,8.38m-8.78,0L1196,594l6.89,6-2.72,2.37m-13.49,11.79,6.17-21.57,5.61,11.28-11.78,10.29m29.75-25.56a1.37,1.37,0,0,0-.89.35l-11,9.59-11-9.61a1.3,1.3,0,0,0-.88-.32,1.11,1.11,0,0,0-.46.08,1.33,1.33,0,0,0-.8.84l-7.79,27.22a1.32,1.32,0,0,0,1.27,1.73.82.82,0,0,0,.22,0l19.42-3.65,13.83,2.6v-2.24l-12.21-2.29,3.47-7,8.74,7.64v-2.92l-7.73-6.76,5.62-11.3,2.11,7.37v-8l-.67-2.34a1.33,1.33,0,0,0-.94-1,1.48,1.48,0,0,0-.35-.05" transform="translate(-991.36 -489.64)" fill="#0e346d"/>
    </g>
  </g>
</svg>
