<?xml version="1.0" encoding="UTF-8"?>
<svg width="368px" height="60px" viewBox="0 0 368 60" version="1.1" xmlns="http://www.w3.org/2000/svg" xmlns:xlink="http://www.w3.org/1999/xlink">
    <!-- Generator: Sketch 50.2 (55047) - http://www.bohemiancoding.com/sketch -->
    <title>UberEats-Logo-OnBlack-Color-H</title>
    <desc>Created with Sketch.</desc>
    <defs></defs>
    <g id="Page-1" stroke="none" stroke-width="1" fill="none" fill-rule="evenodd">
        <g id="UberEats-Logo-OnBlack-Color-H" fill-rule="nonzero">
            <path d="M194.32,0.25 L235.19,0.25 L235.19,10.25 L205.36,10.25 L205.36,24.45 L234.36,24.45 L234.36,34.11 L205.36,34.11 L205.36,48.55 L235.19,48.55 L235.19,58.55 L194.32,58.55 L194.32,0.25 Z M348.06,59.6 C360.59,59.6 367.65,53.6 367.65,45.36 C367.65,39.49 363.47,35.11 354.72,33.21 L345.47,31.32 C340.1,30.32 338.41,29.32 338.41,27.32 C338.41,24.73 341,23.14 345.77,23.14 C350.94,23.14 354.77,24.53 355.77,29.31 L366.61,29.31 C366.02,20.31 359.55,14.37 346.43,14.37 C335.09,14.37 327.13,19.05 327.13,28.12 C327.13,34.39 331.51,38.47 340.96,40.46 L351.3,42.85 C355.38,43.65 356.47,44.75 356.47,46.44 C356.47,49.13 353.39,50.82 348.41,50.82 C342.15,50.82 338.57,49.43 337.18,44.65 L326.28,44.65 C327.87,53.63 334.53,59.6 348.06,59.6 Z M323.13,58.51 L311.4,58.51 C304.04,58.51 299.96,53.93 299.96,48.15 L299.96,25.25 L291.71,25.25 L291.71,15.49 L300,15.49 L300,3.24 L310.9,3.24 L310.9,15.49 L323.13,15.49 L323.13,25.25 L310.9,25.25 L310.9,45.36 C310.9,47.65 312.49,48.75 314.98,48.75 L323.13,48.75 L323.13,58.51 Z M276.13,15.51 L276.13,19.39 C272.292244,16.1458629 267.425189,14.3734464 262.4,14.39 C254.210674,14.2177458 246.568621,18.4881638 242.423424,25.5530114 C238.278227,32.6178591 238.278227,41.3721409 242.423424,48.4369886 C246.568621,55.5018362 254.210674,59.7722542 262.4,59.6 C267.426107,59.6218158 272.294925,57.8487574 276.13,54.6 L276.13,58.49 L287,58.49 L287,15.49 L276.13,15.51 Z M263.3,50.16 C257.967183,50.2208333 253.125728,47.0547121 251.043591,42.1447891 C248.961453,37.2348661 250.051017,31.5535939 253.801883,27.7623344 C257.552748,23.9710749 263.222024,22.8207197 268.153967,24.8501466 C273.085911,26.8795735 276.303709,31.686837 276.3,37.02 C276.332055,40.4920286 274.97383,43.8325973 272.528041,46.2971714 C270.082251,48.7617455 266.752172,50.1454898 263.28,50.14 L263.3,50.16 Z" id="Eats" fill="#5FB709"></path>
            <path d="M170.06,23.56 C164.59,23.56 160.71,27.84 160.71,34.41 L160.71,58.51 L152.36,58.51 L152.36,16.09 L160.61,16.09 L160.61,21.27 C162.682295,17.7737551 166.487349,15.675999 170.55,15.79 L173.55,15.79 L173.55,23.56 L170.06,23.56 Z M146.59,37.3 C146.59,24.65 137.59,15.19 125.41,15.19 C119.59753,15.2294601 114.040807,17.585378 109.971232,21.7356694 C105.901656,25.8859608 103.655311,31.487876 103.73,37.3 C103.73,49.94 113.48,59.5 126.2,59.5 C133.410502,59.6362048 140.23667,56.2566923 144.5,50.44 L138.44,46 C135.617985,49.9386309 131.044699,52.2439556 126.2,52.17 C119.175332,52.1368636 113.227452,46.979202 112.2,40.03 L146.61,40.03 L146.59,37.3 Z M112.38,33.41 C113.87,26.94 119.04,22.56 125.31,22.56 C131.58,22.56 136.74,26.94 138.14,33.41 L112.38,33.41 Z M77.28,15.19 C71.6436643,15.1947308 66.2430479,17.4521885 62.28,21.46 L62.28,0.25 L53.93,0.25 L53.93,58.51 L62.18,58.51 L62.18,53.13 C66.1766976,57.1731385 71.6149948,59.464273 77.3,59.5 C85.3274233,59.6705551 92.819146,55.4855351 96.8829012,48.5606157 C100.946656,41.6356964 100.946656,33.0543036 96.8829012,26.1293843 C92.819146,19.2044649 85.3274233,15.0194449 77.3,15.19 L77.28,15.19 Z M76.68,52.04 C70.727618,52.06833 65.3465051,48.501827 63.0536435,43.0087003 C60.7607819,37.5155737 62.0094489,31.1817636 66.2155883,26.9698703 C70.4217277,22.7579769 76.7538249,21.5006524 82.2500808,23.7860025 C87.7463368,26.0713526 91.3201928,31.4475848 91.3,37.4 C91.3053332,41.2772614 89.766088,44.9969627 87.0225717,47.7367259 C84.2790554,50.4764891 80.5572505,52.0106409 76.68,52 L76.68,52.04 Z M23.18,51.64 C31.24,51.64 37.5,45.46 37.5,36.2 L37.5,0.25 L46.15,0.25 L46.15,58.51 L37.6,58.51 L37.6,53 C33.5633289,57.1719108 27.9949951,59.5098161 22.19,59.47 C9.76,59.47 0.19,50.41 0.19,36.67 L0.19,0.25 L9,0.25 L9,36.25 C9,45.56 15,51.64 23.18,51.64 Z" id="Uber" fill="#FFFFFF"></path>
        </g>
    </g>
</svg>